{
.appVersion = "895";
copyright = "Copyright 2009, 2010, 2011 by Daniel Johnson.  Released under the terms of the Open Font License.";
customParameters = (
{
name = licenseURL;
value = "http://scripts.sil.org/OFL";
},
{
name = vendorID;
value = PfEd;
},
{
name = panose;
value = (
2,
0,
6,
3,
0,
0,
0,
0,
0,
0
);
},
{
name = unicodeRanges;
value = (
0,
1,
2,
3,
5,
6,
7,
9,
29,
31,
32,
33,
35,
38,
45,
60,
62,
69
);
},
{
name = codePageRanges;
value = (
1252,
1250,
1251,
1253,
1254,
1257
);
},
{
name = glyphOrder;
value = (
.notdef,
uni0000,
uni000D,
space,
exclam,
quotedbl,
numbersign,
dollar,
percent,
ampersand,
quotesingle,
parenleft,
parenright,
asterisk,
plus,
comma,
hyphen,
period,
slash,
zero,
one,
two,
three,
four,
five,
six,
seven,
eight,
nine,
colon,
semicolon,
less,
equal,
greater,
question,
at,
A,
B,
C,
D,
E,
F,
G,
H,
I,
J,
K,
L,
M,
N,
O,
P,
Q,
R,
S,
T,
U,
V,
W,
X,
Y,
Z,
bracketleft,
backslash,
bracketright,
asciicircum,
underscore,
grave,
a,
b,
c,
d,
e,
f,
g,
h,
i,
j,
k,
l,
m,
n,
o,
p,
q,
r,
s,
t,
u,
v,
w,
x,
y,
z,
braceleft,
bar,
braceright,
asciitilde,
exclamdown,
cent,
sterling,
currency,
yen,
brokenbar,
section,
dieresis,
copyright,
ordfeminine,
guillemotleft,
logicalnot,
uni00AD,
registered,
macron,
degree,
plusminus,
twosuperior,
threesuperior,
acute,
uni00B5,
paragraph,
periodcentered,
cedilla,
onesuperior,
ordmasculine,
guillemotright,
onequarter,
onehalf,
threequarters,
questiondown,
Agrave,
Aacute,
Acircumflex,
Atilde,
Adieresis,
Aring,
AE,
Ccedilla,
Egrave,
Eacute,
Ecircumflex,
Edieresis,
Igrave,
Iacute,
Icircumflex,
Idieresis,
Eth,
Ntilde,
Ograve,
Oacute,
Ocircumflex,
Otilde,
Odieresis,
multiply,
Oslash,
Ugrave,
Uacute,
Ucircumflex,
Udieresis,
Yacute,
Thorn,
germandbls,
agrave,
aacute,
acircumflex,
atilde,
adieresis,
aring,
ae,
ccedilla,
egrave,
eacute,
ecircumflex,
edieresis,
igrave,
iacute,
icircumflex,
idieresis,
eth,
ntilde,
ograve,
oacute,
ocircumflex,
otilde,
odieresis,
divide,
oslash,
ugrave,
uacute,
ucircumflex,
udieresis,
yacute,

glyphs = (
{
glyphname = .notdef;
lastChange = "2016-08-01 22:59:05 +0000";
layers = (
{
layerId = "54C0795B-BA9F-4804-AEEC-86C9BCD12C1B";
paths = (
{
closed = 1;
nodes = (
"156 589 OFFCURVE",
"169 606 OFFCURVE",
"210 606 CURVE SMOOTH",
"328 606 LINE SMOOTH",
"369 606 OFFCURVE",
"382 589 OFFCURVE",
"382 546 CURVE SMOOTH",
"382 130 LINE SMOOTH",
"382 87 OFFCURVE",
"369 71 OFFCURVE",
"328 71 CURVE SMOOTH",
"210 71 LINE SMOOTH",
"169 71 OFFCURVE",
"156 87 OFFCURVE",
"156 130 CURVE SMOOTH",
"156 546 LINE SMOOTH"
);
},
{
closed = 1;
nodes = (
"453 678 LINE",
"85 678 LINE",
"85 0 LINE",
"453 0 LINE"
);
}
);
width = 538;
}
);
note = .notdef;
},
{
glyphname = exclam;
lastChange = "2016-07-31 02:28:38 +0000";
layers = (
{
layerId = "54C0795B-BA9F-4804-AEEC-86C9BCD12C1B";
paths = (
{
closed = 1;
nodes = (
"100 -12 OFFCURVE",
"113 -17 OFFCURVE",
"126 -17 CURVE SMOOTH",
"153 -17 OFFCURVE",
"183 1 OFFCURVE",
"183 28 CURVE SMOOTH",
"183 55 OFFCURVE",
"150 75 OFFCURVE",
"126 75 CURVE SMOOTH",
"102 75 OFFCURVE",
"70 54 OFFCURVE",
"70 29 CURVE SMOOTH",
"70 16 OFFCURVE",
"76 6 OFFCURVE",
"88 -3 CURVE SMOOTH"
);
},
{
closed = 1;
nodes = (
"157 641 OFFCURVE",
"147 654 OFFCURVE",
"126 654 CURVE SMOOTH",
"105 654 OFFCURVE",
"95 641 OFFCURVE",
"95 616 CURVE SMOOTH",
"95 197 LINE SMOOTH",
"95 172 OFFCURVE",
"105 159 OFFCURVE",
"126 159 CURVE SMOOTH",
"147 159 OFFCURVE",
"157 172 OFFCURVE",
"157 197 CURVE SMOOTH",
"157 616 LINE SMOOTH"
);
}
);
width = 253;
}
);
note = exclam;
unicode = 0021;
},
{
glyphname = quotedbl;
lastChange = "2016-07-31 02:28:38 +0000";
layers = (
{
layerId = "54C0795B-BA9F-4804-AEEC-86C9BCD12C1B";
paths = (
{
closed = 1;
nodes = (
"172 441 OFFCURVE",
"182 428 OFFCURVE",
"203 428 CURVE SMOOTH",
"224 428 OFFCURVE",
"234 441 OFFCURVE",
"234 466 CURVE SMOOTH",
"234 615 LINE SMOOTH",
"234 640 OFFCURVE",
"224 653 OFFCURVE",
"203 653 CURVE SMOOTH",
"182 653 OFFCURVE",
"172 640 OFFCURVE",
"172 615 CURVE SMOOTH",
"172 466 LINE SMOOTH"
);
},
{
closed = 1;
nodes = (
"72 441 OFFCURVE",
"82 428 OFFCURVE",
"102 428 CURVE SMOOTH",
"122 428 OFFCURVE",
"132 441 OFFCURVE",
"132 466 CURVE SMOOTH",
"132 615 LINE SMOOTH",
"132 640 OFFCURVE",
"122 653 OFFCURVE",
"102 653 CURVE SMOOTH",
"82 653 OFFCURVE",
"72 640 OFFCURVE",
"71 615 CURVE",
"71 466 LINE"
);
}
);
width = 305;
}
);
leftKerningGroup = quotedbl;
note = quotedbl;
rightKerningGroup = quotedbl;
unicode = 0022;
},
{
glyphname = numbersign;
lastChange = "2016-07-31 02:28:38 +0000";
layers = (
{
layerId = "54C0795B-BA9F-4804-AEEC-86C9BCD12C1B";
paths = (
{
closed = 1;
nodes = (
"352 592 OFFCURVE",
"353 598 OFFCURVE",
"353 605 CURVE SMOOTH",
"353 625 OFFCURVE",
"342 635 OFFCURVE",
"320 635 CURVE SMOOTH",
"309 635 OFFCURVE",
"300 626 OFFCURVE",
"291 608 CURVE",
"231 441 LINE",
"112 441 LINE SMOOTH",
"87 441 OFFCURVE",
"75 431 OFFCURVE",
"75 410 CURVE SMOOTH",
"75 389 OFFCURVE",
"87 379 OFFCURVE",
"112 379 CURVE SMOOTH",
"208 379 LINE",
"163 257 LINE",
"82 257 LINE SMOOTH",
"57 257 OFFCURVE",
"44 247 OFFCURVE",
"44 226 CURVE SMOOTH",
"44 205 OFFCURVE",
"57 195 OFFCURVE",
"82 195 CURVE SMOOTH",
"141 195 LINE",
"87 49 LINE SMOOTH",
"85 43 OFFCURVE",
"84 37 OFFCURVE",
"84 31 CURVE SMOOTH",
"84 11 OFFCURVE",
"95 1 OFFCURVE",
"118 1 CURVE SMOOTH",
"130 1 OFFCURVE",
"139 10 OFFCURVE",
"146 28 CURVE SMOOTH",
"206 195 LINE",
"320 195 LINE",
"265 50 LINE",
"263 43 OFFCURVE",
"262 37 OFFCURVE",
"262 32 CURVE SMOOTH",
"262 11 OFFCURVE",
"272 1 OFFCURVE",
"293 1 CURVE SMOOTH",
"308 1 OFFCURVE",
"318 10 OFFCURVE",
"325 28 CURVE SMOOTH",
"385 195 LINE",
"500 195 LINE SMOOTH",
"525 195 OFFCURVE",
"538 205 OFFCURVE",
"538 226 CURVE SMOOTH",
"538 247 OFFCURVE",
"525 257 OFFCURVE",
"500 257 CURVE SMOOTH",
"408 257 LINE",
"453 379 LINE",
"531 379 LINE SMOOTH",
"556 379 OFFCURVE",
"569 389 OFFCURVE",
"569 410 CURVE SMOOTH",
"569 431 OFFCURVE",
"556 441 OFFCURVE",
"531 441 CURVE SMOOTH",
"475 441 LINE",
"529 586 LINE",
"531 593 OFFCURVE",
"532 599 OFFCURVE",
"532 606 CURVE SMOOTH",
"532 619 OFFCURVE",
"521 635 OFFCURVE",
"498 635 CURVE SMOOTH",
"486 635 OFFCURVE",
"476 626 OFFCURVE",
"469 608 CURVE SMOOTH",
"409 441 LINE",
"295 441 LINE",
"350 587 LINE SMOOTH"
);
},
{
closed = 1;
nodes = (
"341 257 LINE",
"229 257 LINE",
"274 379 LINE",
"386 379 LINE"
);
}
);
width = 613;
}
);
note = numbersign;
rightKerningGroup = numbersign;
unicode = 0023;
},
{
glyphname = dollar;
lastChange = "2016-07-31 02:28:38 +0000";
layers = (
{
layerId = "54C0795B-BA9F-4804-AEEC-86C9BCD12C1B";
paths = (
{
closed = 1;
nodes = (
"278 28 LINE SMOOTH",
"278 5 OFFCURVE",
"288 -7 OFFCURVE",
"307 -7 CURVE SMOOTH",
"329 -7 OFFCURVE",
"340 5 OFFCURVE",
"340 30 CURVE SMOOTH",
"340 87 LINE",
"414 87 LINE SMOOTH",
"503 87 OFFCURVE",
"547 131 OFFCURVE",
"547 218 CURVE SMOOTH",
"547 311 OFFCURVE",
"503 358 OFFCURVE",
"416 358 CURVE SMOOTH",
"340 358 LINE",
"340 492 LINE",
"435 492 LINE SMOOTH",
"474 492 OFFCURVE",
"485 483 OFFCURVE",
"485 438 CURVE SMOOTH",
"485 393 OFFCURVE",
"547 390 OFFCURVE",
"547 442 CURVE SMOOTH",
"547 511 OFFCURVE",
"526 554 OFFCURVE",
"442 554 CURVE SMOOTH",
"340 554 LINE",
"340 607 LINE SMOOTH",
"340 631 OFFCURVE",
"330 643 OFFCURVE",
"309 643 CURVE SMOOTH",
"288 643 OFFCURVE",
"278 631 OFFCURVE",
"278 606 CURVE SMOOTH",
"278 554 LINE",
"195 554 LINE SMOOTH",
"98 554 OFFCURVE",
"61 510 OFFCURVE",
"61 430 CURVE SMOOTH",
"61 341 OFFCURVE",
"106 296 OFFCURVE",
"195 296 CURVE SMOOTH",
"278 296 LINE",
"278 149 LINE",
"173 149 LINE SMOOTH",
"136 149 OFFCURVE",
"123 161 OFFCURVE",
"123 206 CURVE SMOOTH",
"123 229 OFFCURVE",
"113 240 OFFCURVE",
"92 240 CURVE SMOOTH",
"71 240 OFFCURVE",
"61 227 OFFCURVE",
"61 202 CURVE SMOOTH",
"61 131 OFFCURVE",
"82 87 OFFCURVE",
"166 87 CURVE SMOOTH",
"278 87 LINE"
);
},
{
closed = 1;
nodes = (
"463 296 OFFCURVE",
"485 262 OFFCURVE",
"485 214 CURVE SMOOTH",
"485 171 OFFCURVE",
"467 149 OFFCURVE",
"431 149 CURVE SMOOTH",
"340 149 LINE",
"340 296 LINE",
"431 296 LINE SMOOTH"
);
},
{
closed = 1;
nodes = (
"145 358 OFFCURVE",
"123 384 OFFCURVE",
"123 432 CURVE SMOOTH",
"123 480 OFFCURVE",
"141 492 OFFCURVE",
"177 492 CURVE SMOOTH",
"278 492 LINE",
"278 358 LINE",
"177 358 LINE SMOOTH"
);
}
);
width = 608;
}
);
note = dollar;
rightKerningGroup = numbersign;
unicode = 0024;
},
{
glyphname = percent;
lastChange = "2016-07-31 02:28:38 +0000";
layers = (
{
layerId = "54C0795B-BA9F-4804-AEEC-86C9BCD12C1B";
paths = (
{
closed = 1;
nodes = (
"399 206 OFFCURVE",
"405 208 OFFCURVE",
"412 208 CURVE SMOOTH",
"426 208 OFFCURVE",
"436 198 OFFCURVE",
"436 184 CURVE SMOOTH",
"436 170 OFFCURVE",
"424 158 OFFCURVE",
"411 158 CURVE SMOOTH",
"398 158 OFFCURVE",
"386 170 OFFCURVE",
"386 183 CURVE SMOOTH",
"386 190 OFFCURVE",
"389 196 OFFCURVE",
"394 201 CURVE SMOOTH"
);
},
{
closed = 1;
nodes = (
"364 105 OFFCURVE",
"385 96 OFFCURVE",
"410 96 CURVE SMOOTH",
"459 96 OFFCURVE",
"498 135 OFFCURVE",
"498 183 CURVE SMOOTH",
"498 231 OFFCURVE",
"459 270 OFFCURVE",
"410 270 CURVE SMOOTH",
"361 270 OFFCURVE",
"317 231 OFFCURVE",
"317 183 CURVE SMOOTH",
"317 159 OFFCURVE",
"326 139 OFFCURVE",
"345 122 CURVE SMOOTH"
);
},
{
closed = 1;
nodes = (
"156 484 OFFCURVE",
"161 486 OFFCURVE",
"167 486 CURVE SMOOTH",
"179 486 OFFCURVE",
"193 474 OFFCURVE",
"193 461 CURVE SMOOTH",
"193 448 OFFCURVE",
"179 436 OFFCURVE",
"168 436 CURVE SMOOTH",
"156 436 OFFCURVE",
"143 448 OFFCURVE",
"143 461 CURVE SMOOTH",
"143 468 OFFCURVE",
"146 474 OFFCURVE",
"151 479 CURVE SMOOTH"
);
},
{
closed = 1;
nodes = (
"123 383 OFFCURVE",
"144 374 OFFCURVE",
"169 374 CURVE SMOOTH",
"219 374 OFFCURVE",
"261 413 OFFCURVE",
"261 461 CURVE SMOOTH",
"261 509 OFFCURVE",
"219 548 OFFCURVE",
"169 548 CURVE SMOOTH",
"119 548 OFFCURVE",
"80 509 OFFCURVE",
"80 461 CURVE SMOOTH",
"80 437 OFFCURVE",
"89 417 OFFCURVE",
"106 400 CURVE SMOOTH"
);
},
{
closed = 1;
nodes = (
"73 160 OFFCURVE",
"68 151 OFFCURVE",
"68 142 CURVE SMOOTH",
"68 124 OFFCURVE",
"84 111 OFFCURVE",
"100 111 CURVE SMOOTH",
"108 111 OFFCURVE",
"117 115 OFFCURVE",
"126 124 CURVE SMOOTH",
"497 471 LINE",
"506 482 OFFCURVE",
"510 491 OFFCURVE",
"510 499 CURVE SMOOTH",
"510 515 OFFCURVE",
"494 528 OFFCURVE",
"480 528 CURVE SMOOTH",
"473 528 OFFCURVE",
"464 524 OFFCURVE",
"453 515 CURVE",
"82 169 LINE SMOOTH"
);
}
);
width = 578;
}
);
note = percent;
rightKerningGroup = numbersign;
unicode = 0025;
},
{
glyphname = ampersand;
lastChange = "2016-07-31 02:28:38 +0000";
layers = (
{
layerId = "54C0795B-BA9F-4804-AEEC-86C9BCD12C1B";
paths = (
{
closed = 1;
nodes = (
"326 57 OFFCURVE",
"291 43 OFFCURVE",
"253 43 CURVE SMOOTH",
"176 43 OFFCURVE",
"102 82 OFFCURVE",
"102 190 CURVE SMOOTH",
"102 244 OFFCURVE",
"122 285 OFFCURVE",
"162 312 CURVE",
"358 85 LINE"
);
},
{
closed = 1;
nodes = (
"360 608 OFFCURVE",
"305 657 OFFCURVE",
"248 657 CURVE SMOOTH",
"157 657 OFFCURVE",
"65 581 OFFCURVE",
"65 476 CURVE SMOOTH",
"65 443 OFFCURVE",
"81 406 OFFCURVE",
"114 367 CURVE SMOOTH",
"122 358 LINE",
"66 317 OFFCURVE",
"40 248 OFFCURVE",
"40 180 CURVE SMOOTH",
"40 146 OFFCURVE",
"47 115 OFFCURVE",
"61 88 CURVE SMOOTH",
"89 33 OFFCURVE",
"158 -19 OFFCURVE",
"254 -19 CURVE SMOOTH",
"306 -19 OFFCURVE",
"354 0 OFFCURVE",
"398 38 CURVE",
"430 1 LINE SMOOTH",
"441 -11 OFFCURVE",
"451 -17 OFFCURVE",
"460 -17 CURVE SMOOTH",
"478 -17 OFFCURVE",
"491 -9 OFFCURVE",
"491 11 CURVE SMOOTH",
"491 21 OFFCURVE",
"488 29 OFFCURVE",
"483 35 CURVE",
"439 84 LINE",
"468 127 OFFCURVE",
"483 174 OFFCURVE",
"483 227 CURVE SMOOTH",
"483 254 OFFCURVE",
"473 268 OFFCURVE",
"454 268 CURVE SMOOTH",
"433 268 OFFCURVE",
"422 254 OFFCURVE",
"422 227 CURVE SMOOTH",
"422 192 OFFCURVE",
"414 160 OFFCURVE",
"397 133 CURVE",
"166 400 LINE SMOOTH",
"141 428 OFFCURVE",
"129 453 OFFCURVE",
"129 476 CURVE SMOOTH",
"129 548 OFFCURVE",
"188 595 OFFCURVE",
"248 595 CURVE SMOOTH",
"280 595 OFFCURVE",
"307 571 OFFCURVE",
"319 547 CURVE SMOOTH",
"331 522 OFFCURVE",
"349 498 OFFCURVE",
"366 498 CURVE SMOOTH",
"383 498 OFFCURVE",
"397 512 OFFCURVE",
"397 528 CURVE SMOOTH",
"397 536 OFFCURVE",
"392 550 OFFCURVE",
"381 569 CURVE SMOOTH"
);
}
);
width = 520;
}
);
leftKerningGroup = ampersand;
note = ampersand;
rightKerningGroup = ampersand;
unicode = 0026;
},
{
glyphname = quotesingle;
lastChange = "2016-07-31 02:28:38 +0000";
layers = (
{
layerId = "54C0795B-BA9F-4804-AEEC-86C9BCD12C1B";
paths = (
{
closed = 1;
nodes = (
"72 441 OFFCURVE",
"82 428 OFFCURVE",
"102 428 CURVE SMOOTH",
"122 428 OFFCURVE",
"132 441 OFFCURVE",
"132 466 CURVE SMOOTH",
"132 615 LINE SMOOTH",
"132 640 OFFCURVE",
"122 653 OFFCURVE",
"102 653 CURVE SMOOTH",
"82 653 OFFCURVE",
"72 640 OFFCURVE",
"71 615 CURVE",
"71 466 LINE"
);
}
);
width = 203;
}
);
leftKerningGroup = quotedbl;
note = quotesingle;
rightKerningGroup = quotedbl;
unicode = 0027;
},
{
glyphname = parenleft;
lastChange = "2016-07-31 02:28:38 +0000";
layers = (
{
layerId = "54C0795B-BA9F-4804-AEEC-86C9BCD12C1B";
paths = (
{
closed = 1;
nodes = (
"135 536 OFFCURVE",
"135 560 OFFCURVE",
"136 575 CURVE SMOOTH",
"137 589 OFFCURVE",
"140 601 OFFCURVE",
"147 610 CURVE",
"160 628 OFFCURVE",
"170 626 OFFCURVE",
"213 626 CURVE",
"213 688 LINE",
"192 688 OFFCURVE",
"176 687 OFFCURVE",
"165 686 CURVE SMOOTH",
"141 683 OFFCURVE",
"110 671 OFFCURVE",
"97 644 CURVE SMOOTH",
"81 613 OFFCURVE",
"73 566 OFFCURVE",
"73 503 CURVE SMOOTH",
"73 133 LINE SMOOTH",
"73 70 OFFCURVE",
"81 23 OFFCURVE",
"97 -8 CURVE SMOOTH",
"104 -21 OFFCURVE",
"114 -31 OFFCURVE",
"127 -38 CURVE",
"154 -51 OFFCURVE",
"172 -52 OFFCURVE",
"213 -52 CURVE",
"213 10 LINE",
"192 10 OFFCURVE",
"177 11 OFFCURVE",
"169 12 CURVE SMOOTH",
"153 14 OFFCURVE",
"137 33 OFFCURVE",
"136 62 CURVE",
"135 76 OFFCURVE",
"135 100 OFFCURVE",
"135 133 CURVE SMOOTH",
"135 503 LINE SMOOTH"
);
}
);
width = 260;
}
);
note = parenleft;
rightKerningGroup = parenleft;
unicode = 0028;
},
{
glyphname = parenright;
lastChange = "2016-07-31 02:28:38 +0000";
layers = (
{
layerId = "54C0795B-BA9F-4804-AEEC-86C9BCD12C1B";
paths = (
{
closed = 1;
nodes = (
"125 100 OFFCURVE",
"125 76 OFFCURVE",
"124 62 CURVE SMOOTH",
"123 47 OFFCURVE",
"120 36 OFFCURVE",
"113 27 CURVE",
"100 9 OFFCURVE",
"90 10 OFFCURVE",
"47 10 CURVE",
"47 -52 LINE",
"68 -52 OFFCURVE",
"84 -51 OFFCURVE",
"96 -50 CURVE",
"119 -47 OFFCURVE",
"150 -35 OFFCURVE",
"163 -8 CURVE SMOOTH",
"179 23 OFFCURVE",
"187 70 OFFCURVE",
"187 133 CURVE SMOOTH",
"187 503 LINE SMOOTH",
"187 566 OFFCURVE",
"179 613 OFFCURVE",
"163 644 CURVE SMOOTH",
"156 657 OFFCURVE",
"146 667 OFFCURVE",
"133 674 CURVE",
"106 687 OFFCURVE",
"88 688 OFFCURVE",
"47 688 CURVE",
"47 626 LINE",
"68 626 OFFCURVE",
"83 626 OFFCURVE",
"91 625 CURVE SMOOTH",
"107 623 OFFCURVE",
"123 603 OFFCURVE",
"124 575 CURVE SMOOTH",
"125 560 OFFCURVE",
"125 536 OFFCURVE",
"125 503 CURVE SMOOTH",
"125 133 LINE SMOOTH"
);
}
);
width = 260;
}
);
leftKerningGroup = parenright;
note = parenright;
rightKerningGroup = numbersign;
unicode = 0029;
},
{
glyphname = asterisk;
lastChange = "2016-07-31 02:28:38 +0000";
layers = (
{
layerId = "54C0795B-BA9F-4804-AEEC-86C9BCD12C1B";
paths = (
{
closed = 1;
nodes = (
"279 412 OFFCURVE",
"306 399 OFFCURVE",
"314 399 CURVE SMOOTH",
"330 399 OFFCURVE",
"341 418 OFFCURVE",
"341 434 CURVE SMOOTH",
"341 442 OFFCURVE",
"334 450 OFFCURVE",
"320 459 CURVE SMOOTH",
"265 492 LINE",
"320 523 LINE",
"334 532 OFFCURVE",
"341 541 OFFCURVE",
"341 550 CURVE SMOOTH",
"341 569 OFFCURVE",
"328 583 OFFCURVE",
"312 583 CURVE",
"304 582 OFFCURVE",
"291 577 OFFCURVE",
"272 566 CURVE SMOOTH",
"253 555 OFFCURVE",
"240 548 OFFCURVE",
"233 545 CURVE",
"233 608 LINE SMOOTH",
"233 633 OFFCURVE",
"223 646 OFFCURVE",
"202 646 CURVE SMOOTH",
"181 646 OFFCURVE",
"171 633 OFFCURVE",
"171 608 CURVE SMOOTH",
"171 545 LINE",
"125 570 OFFCURVE",
"98 583 OFFCURVE",
"90 583 CURVE SMOOTH",
"74 583 OFFCURVE",
"64 564 OFFCURVE",
"64 553 CURVE SMOOTH",
"64 540 OFFCURVE",
"71 530 OFFCURVE",
"84 523 CURVE SMOOTH",
"140 492 LINE",
"84 459 LINE",
"71 450 OFFCURVE",
"64 441 OFFCURVE",
"64 432 CURVE SMOOTH",
"64 413 OFFCURVE",
"77 399 OFFCURVE",
"92 399 CURVE",
"99 400 OFFCURVE",
"113 405 OFFCURVE",
"132 416 CURVE SMOOTH",
"151 427 OFFCURVE",
"164 434 OFFCURVE",
"171 437 CURVE",
"171 374 LINE SMOOTH",
"171 349 OFFCURVE",
"181 336 OFFCURVE",
"202 336 CURVE SMOOTH",
"223 336 OFFCURVE",
"233 349 OFFCURVE",
"233 374 CURVE SMOOTH",
"233 437 LINE"
);
}
);
width = 405;
}
);
leftKerningGroup = asterisk;
note = asterisk;
rightKerningGroup = asterisk;
unicode = 002A;
},
{
glyphname = plus;
lastChange = "2016-07-31 02:28:38 +0000";
layers = (
{
layerId = "54C0795B-BA9F-4804-AEEC-86C9BCD12C1B";
paths = (
{
closed = 1;
nodes = (
"231 -5 OFFCURVE",
"241 -17 OFFCURVE",
"262 -17 CURVE SMOOTH",
"283 -17 OFFCURVE",
"293 -5 OFFCURVE",
"293 20 CURVE SMOOTH",
"293 199 LINE",
"450 199 LINE SMOOTH",
"471 199 OFFCURVE",
"489 210 OFFCURVE",
"489 229 CURVE SMOOTH",
"489 251 OFFCURVE",
"476 262 OFFCURVE",
"450 262 CURVE SMOOTH",
"293 262 LINE",
"293 440 LINE SMOOTH",
"293 465 OFFCURVE",
"283 478 OFFCURVE",
"262 478 CURVE SMOOTH",
"241 478 OFFCURVE",
"231 465 OFFCURVE",
"231 440 CURVE SMOOTH",
"231 262 LINE",
"72 262 LINE SMOOTH",
"47 262 OFFCURVE",
"36 247 OFFCURVE",
"36 231 CURVE SMOOTH",
"36 210 OFFCURVE",
"48 199 OFFCURVE",
"72 199 CURVE SMOOTH",
"231 199 LINE",
"231 20 LINE SMOOTH"
);
}
);
width = 525;
}
);
note = plus;
rightKerningGroup = numbersign;
unicode = 002B;
},
{
glyphname = comma;
lastChange = "2016-07-31 02:28:38 +0000";
layers = (
{
layerId = "54C0795B-BA9F-4804-AEEC-86C9BCD12C1B";
paths = (
{
closed = 1;
nodes = (
"149 27 OFFCURVE",
"151 35 OFFCURVE",
"151 44 CURVE SMOOTH",
"151 63 OFFCURVE",
"124 71 OFFCURVE",
"105 71 CURVE SMOOTH",
"90 71 OFFCURVE",
"80 62 OFFCURVE",
"75 44 CURVE SMOOTH",
"51 -43 LINE SMOOTH",
"49 -51 OFFCURVE",
"48 -57 OFFCURVE",
"48 -60 CURVE SMOOTH",
"48 -80 OFFCURVE",
"57 -90 OFFCURVE",
"75 -90 CURVE SMOOTH",
"86 -90 OFFCURVE",
"96 -81 OFFCURVE",
"105 -63 CURVE SMOOTH",
"145 20 LINE"
);
}
);
width = 219;
}
);
leftKerningGroup = comma;
note = comma;
rightKerningGroup = comma;
unicode = 002C;
},
{
glyphname = hyphen;
lastChange = "2016-07-31 02:28:38 +0000";
layers = (
{
layerId = "54C0795B-BA9F-4804-AEEC-86C9BCD12C1B";
paths = (
{
closed = 1;
nodes = (
"84 262 OFFCURVE",
"73 247 OFFCURVE",
"73 231 CURVE SMOOTH",
"73 210 OFFCURVE",
"85 199 OFFCURVE",
"109 199 CURVE SMOOTH",
"354 199 LINE SMOOTH",
"375 199 OFFCURVE",
"393 210 OFFCURVE",
"393 229 CURVE SMOOTH",
"393 251 OFFCURVE",
"380 262 OFFCURVE",
"354 262 CURVE SMOOTH",
"109 262 LINE SMOOTH"
);
}
);
width = 466;
}
);
leftKerningGroup = hyphen;
note = hyphen;
rightKerningGroup = hyphen;
unicode = 002D;
},
{
glyphname = period;
lastChange = "2016-07-31 02:28:38 +0000";
layers = (
{
layerId = "54C0795B-BA9F-4804-AEEC-86C9BCD12C1B";
paths = (
{
closed = 1;
nodes = (
"144 71 OFFCURVE",
"132 76 OFFCURVE",
"120 76 CURVE SMOOTH",
"119 76 OFFCURVE",
"119 76 OFFCURVE",
"119 76 CURVE SMOOTH",
"95 76 OFFCURVE",
"64 55 OFFCURVE",
"64 28 CURVE SMOOTH",
"64 1 OFFCURVE",
"93 -18 OFFCURVE",
"120 -18 CURVE SMOOTH",
"121 -18 OFFCURVE",
"121 -18 OFFCURVE",
"121 -18 CURVE",
"148 -18 OFFCURVE",
"176 4 OFFCURVE",
"176 29 CURVE SMOOTH",
"176 42 OFFCURVE",
"170 53 OFFCURVE",
"157 62 CURVE SMOOTH"
);
}
);
width = 239;
}
);
leftKerningGroup = comma;
note = period;
rightKerningGroup = comma;
unicode = 002E;
},
{
glyphname = slash;
lastChange = "2016-07-31 02:28:38 +0000";
layers = (
{
layerId = "54C0795B-BA9F-4804-AEEC-86C9BCD12C1B";
paths = (
{
closed = 1;
nodes = (
"324 616 OFFCURVE",
"325 624 OFFCURVE",
"325 631 CURVE SMOOTH",
"325 644 OFFCURVE",
"308 655 OFFCURVE",
"293 655 CURVE SMOOTH",
"280 655 OFFCURVE",
"270 646 OFFCURVE",
"263 629 CURVE",
"45 30 LINE",
"43 22 OFFCURVE",
"42 14 OFFCURVE",
"42 7 CURVE SMOOTH",
"42 -8 OFFCURVE",
"60 -18 OFFCURVE",
"73 -18 CURVE SMOOTH",
"87 -18 OFFCURVE",
"97 -9 OFFCURVE",
"104 8 CURVE",
"322 606 LINE"
);
}
);
width = 367;
}
);
leftKerningGroup = slash;
note = slash;
rightKerningGroup = slash;
unicode = 002F;
},
{
glyphname = zero;
lastChange = "2016-07-31 02:28:38 +0000";
layers = (
{
layerId = "54C0795B-BA9F-4804-AEEC-86C9BCD12C1B";
paths = (
{
closed = 1;
nodes = (
"116 535 OFFCURVE",
"165 578 OFFCURVE",
"230 578 CURVE SMOOTH",
"362 578 LINE SMOOTH",
"427 578 OFFCURVE",
"476 535 OFFCURVE",
"476 494 CURVE SMOOTH",
"476 141 LINE SMOOTH",
"476 100 OFFCURVE",
"427 57 OFFCURVE",
"362 57 CURVE SMOOTH",
"230 57 LINE SMOOTH",
"165 57 OFFCURVE",
"116 100 OFFCURVE",
"116 141 CURVE SMOOTH",
"116 494 LINE SMOOTH"
);
},
{
closed = 1;
nodes = (
"538 575 OFFCURVE",
"460 641 OFFCURVE",
"352 641 CURVE SMOOTH",
"240 641 LINE SMOOTH",
"132 641 OFFCURVE",
"54 575 OFFCURVE",
"54 480 CURVE SMOOTH",
"54 156 LINE SMOOTH",
"54 61 OFFCURVE",
"132 -5 OFFCURVE",
"240 -5 CURVE SMOOTH",
"352 -5 LINE SMOOTH",
"460 -5 OFFCURVE",
"538 61 OFFCURVE",
"538 156 CURVE SMOOTH",
"538 480 LINE SMOOTH"
);
}
);
width = 592;
}
);
leftKerningGroup = zero;
note = zero;
rightKerningGroup = zero;
unicode = 0030;
},
{
glyphname = one;
lastChange = "2016-07-31 02:28:38 +0000";
layers = (
{
layerId = "54C0795B-BA9F-4804-AEEC-86C9BCD12C1B";
paths = (
{
closed = 1;
nodes = (
"274 5 OFFCURVE",
"284 -7 OFFCURVE",
"305 -7 CURVE SMOOTH",
"326 -7 OFFCURVE",
"336 5 OFFCURVE",
"336 29 CURVE SMOOTH",
"336 652 LINE SMOOTH",
"336 675 OFFCURVE",
"319 685 OFFCURVE",
"302 685 CURVE SMOOTH",
"293 685 OFFCURVE",
"284 680 OFFCURVE",
"273 671 CURVE",
"212 610 LINE",
"201 600 OFFCURVE",
"196 591 OFFCURVE",
"196 583 CURVE SMOOTH",
"196 567 OFFCURVE",
"205 554 OFFCURVE",
"226 554 CURVE SMOOTH",
"237 554 OFFCURVE",
"247 559 OFFCURVE",
"258 569 CURVE",
"274 585 LINE",
"274 29 LINE SMOOTH"
);
}
);
width = 592;
}
);
leftKerningGroup = one;
note = one;
rightKerningGroup = numbersign;
unicode = 0031;
},
{
glyphname = two;
lastChange = "2016-07-31 02:28:38 +0000";
layers = (
{
layerId = "54C0795B-BA9F-4804-AEEC-86C9BCD12C1B";
paths = (
{
closed = 1;
nodes = (
"538 603 OFFCURVE",
"468 641 OFFCURVE",
"313 641 CURVE SMOOTH",
"159 641 LINE SMOOTH",
"86 641 OFFCURVE",
"55 608 OFFCURVE",
"55 524 CURVE SMOOTH",
"55 497 OFFCURVE",
"65 484 OFFCURVE",
"86 484 CURVE SMOOTH",
"107 484 OFFCURVE",
"117 496 OFFCURVE",
"117 520 CURVE SMOOTH",
"117 568 OFFCURVE",
"127 579 OFFCURVE",
"166 579 CURVE SMOOTH",
"313 579 LINE SMOOTH",
"440 579 OFFCURVE",
"476 562 OFFCURVE",
"476 457 CURVE SMOOTH",
"476 382 OFFCURVE",
"369 343 OFFCURVE",
"310 315 CURVE SMOOTH",
"251 287 OFFCURVE",
"189 255 OFFCURVE",
"139 216 CURVE SMOOTH",
"89 176 OFFCURVE",
"55 117 OFFCURVE",
"55 48 CURVE SMOOTH",
"55 -5 LINE",
"498 -5 LINE SMOOTH",
"525 -5 OFFCURVE",
"538 5 OFFCURVE",
"538 26 CURVE SMOOTH",
"538 47 OFFCURVE",
"525 57 OFFCURVE",
"498 57 CURVE SMOOTH",
"117 57 LINE",
"119 95 OFFCURVE",
"135 129 OFFCURVE",
"165 160 CURVE SMOOTH",
"225 220 OFFCURVE",
"312 257 OFFCURVE",
"393 297 CURVE SMOOTH",
"474 337 OFFCURVE",
"538 391 OFFCURVE",
"538 458 CURVE SMOOTH"
);
}
);
width = 592;
}
);
note = two;
rightKerningGroup = numbersign;
unicode = 0032;
},
{
glyphname = three;
lastChange = "2016-07-31 02:28:38 +0000";
layers = (
{
layerId = "54C0795B-BA9F-4804-AEEC-86C9BCD12C1B";
paths = (
{
closed = 1;
nodes = (
"444 579 OFFCURVE",
"477 541 OFFCURVE",
"477 472 CURVE SMOOTH",
"477 403 OFFCURVE",
"376 357 OFFCURVE",
"291 357 CURVE SMOOTH",
"290 357 OFFCURVE",
"289 357 OFFCURVE",
"288 357 CURVE SMOOTH",
"259 357 OFFCURVE",
"245 347 OFFCURVE",
"245 326 CURVE SMOOTH",
"245 305 OFFCURVE",
"262 294 OFFCURVE",
"297 294 CURVE SMOOTH",
"366 294 OFFCURVE",
"477 235 OFFCURVE",
"477 166 CURVE SMOOTH",
"477 97 OFFCURVE",
"444 57 OFFCURVE",
"340 57 CURVE SMOOTH",
"252 57 LINE SMOOTH",
"187 57 OFFCURVE",
"116 82 OFFCURVE",
"116 114 CURVE SMOOTH",
"116 139 OFFCURVE",
"106 152 OFFCURVE",
"85 152 CURVE SMOOTH",
"64 152 OFFCURVE",
"54 137 OFFCURVE",
"54 108 CURVE SMOOTH",
"54 49 OFFCURVE",
"128 -5 OFFCURVE",
"245 -5 CURVE SMOOTH",
"328 -5 LINE SMOOTH",
"480 -5 OFFCURVE",
"538 47 OFFCURVE",
"538 187 CURVE SMOOTH",
"538 232 OFFCURVE",
"471 302 OFFCURVE",
"419 326 CURVE",
"474 351 OFFCURVE",
"538 406 OFFCURVE",
"538 449 CURVE SMOOTH",
"538 589 OFFCURVE",
"480 641 OFFCURVE",
"328 641 CURVE SMOOTH",
"245 641 LINE SMOOTH",
"128 641 OFFCURVE",
"54 587 OFFCURVE",
"54 528 CURVE SMOOTH",
"54 499 OFFCURVE",
"64 484 OFFCURVE",
"85 484 CURVE SMOOTH",
"106 484 OFFCURVE",
"116 497 OFFCURVE",
"116 522 CURVE SMOOTH",
"116 554 OFFCURVE",
"188 579 OFFCURVE",
"252 579 CURVE SMOOTH",
"340 579 LINE SMOOTH"
);
}
);
width = 592;
}
);
note = three;
rightKerningGroup = three;
unicode = 0033;
},
{
glyphname = four;
lastChange = "2016-07-31 02:28:38 +0000";
layers = (
{
layerId = "54C0795B-BA9F-4804-AEEC-86C9BCD12C1B";
paths = (
{
closed = 1;
nodes = (
"528 165 OFFCURVE",
"540 175 OFFCURVE",
"540 196 CURVE SMOOTH",
"540 217 OFFCURVE",
"528 227 OFFCURVE",
"503 227 CURVE SMOOTH",
"452 227 LINE",
"452 641 LINE",
"377 641 LINE",
"52 234 LINE",
"52 165 LINE",
"388 165 LINE",
"388 28 LINE SMOOTH",
"388 5 OFFCURVE",
"399 -7 OFFCURVE",
"420 -7 CURVE SMOOTH",
"441 -7 OFFCURVE",
"452 5 OFFCURVE",
"452 28 CURVE SMOOTH",
"452 165 LINE",
"503 165 LINE SMOOTH"
);
},
{
closed = 1;
nodes = (
"119 227 LINE",
"388 564 LINE",
"388 227 LINE"
);
}
);
width = 592;
}
);
leftKerningGroup = four;
note = four;
rightKerningGroup = four;
unicode = 0034;
},
{
glyphname = five;
lastChange = "2016-07-31 02:28:38 +0000";
layers = (
{
layerId = "54C0795B-BA9F-4804-AEEC-86C9BCD12C1B";
paths = (
{
closed = 1;
nodes = (
"59 49 OFFCURVE",
"203 -9 OFFCURVE",
"291 -9 CURVE SMOOTH",
"435 -9 OFFCURVE",
"533 84 OFFCURVE",
"533 224 CURVE SMOOTH",
"533 363 OFFCURVE",
"428 444 OFFCURVE",
"309 444 CURVE SMOOTH",
"132 444 LINE",
"138 526 LINE SMOOTH",
"142 566 OFFCURVE",
"156 579 OFFCURVE",
"187 579 CURVE SMOOTH",
"454 579 LINE SMOOTH",
"479 579 OFFCURVE",
"491 589 OFFCURVE",
"491 610 CURVE SMOOTH",
"491 631 OFFCURVE",
"479 641 OFFCURVE",
"454 641 CURVE SMOOTH",
"194 641 LINE SMOOTH",
"114 641 OFFCURVE",
"81 607 OFFCURVE",
"74 510 CURVE SMOOTH",
"65 382 LINE",
"318 382 LINE SMOOTH",
"423 382 OFFCURVE",
"471 304 OFFCURVE",
"471 235 CURVE SMOOTH",
"471 118 OFFCURVE",
"408 53 OFFCURVE",
"291 53 CURVE SMOOTH",
"224 53 OFFCURVE",
"159 86 OFFCURVE",
"123 112 CURVE SMOOTH",
"104 125 OFFCURVE",
"92 131 OFFCURVE",
"87 131 CURVE SMOOTH",
"75 131 OFFCURVE",
"59 116 OFFCURVE",
"59 100 CURVE SMOOTH"
);
}
);
width = 592;
}
);
note = five;
rightKerningGroup = five;
unicode = 0035;
},
{
glyphname = six;
lastChange = "2016-07-31 02:28:38 +0000";
layers = (
{
layerId = "54C0795B-BA9F-4804-AEEC-86C9BCD12C1B";
paths = (
{
closed = 1;
nodes = (
"437 -9 OFFCURVE",
"538 83 OFFCURVE",
"538 212 CURVE SMOOTH",
"538 341 OFFCURVE",
"435 433 OFFCURVE",
"305 433 CURVE SMOOTH",
"240 433 OFFCURVE",
"186 418 OFFCURVE",
"144 389 CURVE",
"179 485 OFFCURVE",
"246 552 OFFCURVE",
"314 585 CURVE SMOOTH",
"331 593 OFFCURVE",
"340 603 OFFCURVE",
"340 616 CURVE SMOOTH",
"340 635 OFFCURVE",
"328 644 OFFCURVE",
"304 644 CURVE SMOOTH",
"295 644 OFFCURVE",
"281 639 OFFCURVE",
"263 629 CURVE SMOOTH",
"226 609 OFFCURVE",
"173 560 OFFCURVE",
"130 496 CURVE SMOOTH",
"87 432 OFFCURVE",
"54 328 OFFCURVE",
"54 206 CURVE SMOOTH",
"54 84 OFFCURVE",
"155 -9 OFFCURVE",
"296 -9 CURVE SMOOTH"
);
},
{
closed = 1;
nodes = (
"195 357 OFFCURVE",
"239 371 OFFCURVE",
"296 371 CURVE SMOOTH",
"409 371 OFFCURVE",
"476 309 OFFCURVE",
"476 212 CURVE SMOOTH",
"476 115 OFFCURVE",
"411 53 OFFCURVE",
"296 53 CURVE SMOOTH",
"181 53 OFFCURVE",
"116 115 OFFCURVE",
"116 212 CURVE SMOOTH",
"116 261 OFFCURVE",
"132 299 OFFCURVE",
"164 328 CURVE SMOOTH"
);
}
);
width = 592;
}
);
leftKerningGroup = six;
note = six;
rightKerningGroup = six;
unicode = 0036;
},
{
glyphname = seven;
lastChange = "2016-07-31 02:28:38 +0000";
layers = (
{
layerId = "54C0795B-BA9F-4804-AEEC-86C9BCD12C1B";
paths = (
{
closed = 1;
nodes = (
"284 -10 OFFCURVE",
"295 0 OFFCURVE",
"302 19 CURVE SMOOTH",
"525 596 LINE SMOOTH",
"528 604 OFFCURVE",
"529 611 OFFCURVE",
"529 618 CURVE SMOOTH",
"529 637 OFFCURVE",
"519 646 OFFCURVE",
"498 646 CURVE SMOOTH",
"168 646 LINE SMOOTH",
"95 646 OFFCURVE",
"63 613 OFFCURVE",
"63 529 CURVE SMOOTH",
"63 502 OFFCURVE",
"73 489 OFFCURVE",
"94 489 CURVE SMOOTH",
"115 489 OFFCURVE",
"125 502 OFFCURVE",
"125 529 CURVE SMOOTH",
"125 569 OFFCURVE",
"136 584 OFFCURVE",
"176 584 CURVE SMOOTH",
"455 584 LINE",
"239 41 LINE",
"235 33 OFFCURVE",
"233 25 OFFCURVE",
"233 16 CURVE SMOOTH",
"233 -1 OFFCURVE",
"253 -10 OFFCURVE",
"269 -10 CURVE SMOOTH"
);
}
);
width = 592;
}
);
leftKerningGroup = seven;
note = seven;
rightKerningGroup = seven;
unicode = 0037;
},
{
glyphname = eight;
lastChange = "2016-07-31 02:28:38 +0000";
layers = (
{
layerId = "54C0795B-BA9F-4804-AEEC-86C9BCD12C1B";
paths = (
{
closed = 1;
nodes = (
"440 297 OFFCURVE",
"476 281 OFFCURVE",
"476 177 CURVE SMOOTH",
"476 73 OFFCURVE",
"441 57 OFFCURVE",
"313 57 CURVE SMOOTH",
"280 57 LINE SMOOTH",
"152 57 OFFCURVE",
"116 73 OFFCURVE",
"116 177 CURVE SMOOTH",
"116 280 OFFCURVE",
"152 297 OFFCURVE",
"280 297 CURVE SMOOTH",
"313 297 LINE SMOOTH"
);
},
{
closed = 1;
nodes = (
"518 350 OFFCURVE",
"538 398 OFFCURVE",
"538 470 CURVE SMOOTH",
"538 586 OFFCURVE",
"506 641 OFFCURVE",
"313 641 CURVE SMOOTH",
"280 641 LINE SMOOTH",
"249 640 OFFCURVE",
"224 639 OFFCURVE",
"204 638 CURVE SMOOTH",
"100 630 OFFCURVE",
"54 586 OFFCURVE",
"54 470 CURVE SMOOTH",
"54 399 OFFCURVE",
"74 351 OFFCURVE",
"114 326 CURVE",
"74 298 OFFCURVE",
"54 247 OFFCURVE",
"54 174 CURVE SMOOTH",
"54 101 OFFCURVE",
"75 52 OFFCURVE",
"116 27 CURVE SMOOTH",
"159 2 OFFCURVE",
"204 -4 OFFCURVE",
"280 -5 CURVE SMOOTH",
"313 -5 LINE SMOOTH",
"468 -5 OFFCURVE",
"538 32 OFFCURVE",
"538 175 CURVE SMOOTH",
"538 246 OFFCURVE",
"518 297 OFFCURVE",
"479 326 CURVE"
);
},
{
closed = 1;
nodes = (
"471 418 OFFCURVE",
"469 408 OFFCURVE",
"466 400 CURVE SMOOTH",
"460 383 OFFCURVE",
"443 374 OFFCURVE",
"423 366 CURVE",
"412 361 OFFCURVE",
"376 359 OFFCURVE",
"313 359 CURVE SMOOTH",
"280 359 LINE SMOOTH",
"275 359 OFFCURVE",
"269 359 OFFCURVE",
"264 359 CURVE SMOOTH",
"221 359 OFFCURVE",
"190 361 OFFCURVE",
"171 366 CURVE SMOOTH",
"155 370 OFFCURVE",
"144 376 OFFCURVE",
"138 384 CURVE SMOOTH",
"126 400 OFFCURVE",
"116 426 OFFCURVE",
"116 467 CURVE SMOOTH",
"116 507 OFFCURVE",
"115 539 OFFCURVE",
"152 566 CURVE SMOOTH",
"164 575 OFFCURVE",
"201 579 OFFCURVE",
"264 579 CURVE SMOOTH",
"269 579 OFFCURVE",
"273 579 OFFCURVE",
"278 579 CURVE SMOOTH",
"313 579 LINE SMOOTH",
"348 579 OFFCURVE",
"377 578 OFFCURVE",
"398 576 CURVE SMOOTH",
"413 575 OFFCURVE",
"423 573 OFFCURVE",
"429 570 CURVE",
"441 565 OFFCURVE",
"460 555 OFFCURVE",
"466 539 CURVE SMOOTH",
"472 522 OFFCURVE",
"476 501 OFFCURVE",
"476 469 CURVE SMOOTH",
"476 453 OFFCURVE",
"475 440 OFFCURVE",
"473 429 CURVE SMOOTH"
);
}
);
width = 592;
}
);
leftKerningGroup = eight;
note = eight;
rightKerningGroup = eight;
unicode = 0038;
},
{
glyphname = nine;
lastChange = "2016-07-31 02:28:38 +0000";
layers = (
{
layerId = "54C0795B-BA9F-4804-AEEC-86C9BCD12C1B";
paths = (
{
closed = 1;
nodes = (
"54 354 OFFCURVE",
"140 297 OFFCURVE",
"313 297 CURVE SMOOTH",
"377 297 OFFCURVE",
"426 306 OFFCURVE",
"460 324 CURVE",
"437 229 OFFCURVE",
"384 151 OFFCURVE",
"326 110 CURVE SMOOTH",
"268 69 OFFCURVE",
"212 47 OFFCURVE",
"165 47 CURVE SMOOTH",
"141 47 OFFCURVE",
"129 37 OFFCURVE",
"129 16 CURVE SMOOTH",
"129 -5 OFFCURVE",
"141 -16 OFFCURVE",
"165 -16 CURVE SMOOTH",
"258 -16 OFFCURVE",
"352 35 OFFCURVE",
"422 117 CURVE SMOOTH",
"492 199 OFFCURVE",
"538 327 OFFCURVE",
"538 468 CURVE SMOOTH",
"538 583 OFFCURVE",
"463 641 OFFCURVE",
"313 641 CURVE SMOOTH",
"268 641 OFFCURVE",
"227 636 OFFCURVE",
"188 626 CURVE SMOOTH",
"162 619 OFFCURVE",
"140 610 OFFCURVE",
"122 599 CURVE SMOOTH",
"85 575 OFFCURVE",
"54 529 OFFCURVE",
"54 469 CURVE SMOOTH"
);
},
{
closed = 1;
nodes = (
"430 579 OFFCURVE",
"476 540 OFFCURVE",
"476 468 CURVE SMOOTH",
"476 396 OFFCURVE",
"431 359 OFFCURVE",
"320 359 CURVE SMOOTH",
"208 359 OFFCURVE",
"116 373 OFFCURVE",
"116 469 CURVE SMOOTH",
"116 542 OFFCURVE",
"182 579 OFFCURVE",
"313 579 CURVE SMOOTH"
);
}
);
width = 592;
}
);
leftKerningGroup = nine;
note = nine;
rightKerningGroup = nine;
unicode = 0039;
},
{
glyphname = colon;
lastChange = "2016-07-31 02:28:38 +0000";
layers = (
{
layerId = "54C0795B-BA9F-4804-AEEC-86C9BCD12C1B";
paths = (
{
closed = 1;
nodes = (
"153 476 OFFCURVE",
"140 480 OFFCURVE",
"128 480 CURVE SMOOTH",
"104 480 OFFCURVE",
"73 461 OFFCURVE",
"73 434 CURVE SMOOTH",
"73 407 OFFCURVE",
"101 388 OFFCURVE",
"128 388 CURVE SMOOTH",
"155 388 OFFCURVE",
"185 409 OFFCURVE",
"185 434 CURVE SMOOTH",
"185 447 OFFCURVE",
"179 458 OFFCURVE",
"166 467 CURVE SMOOTH"
);
},
{
closed = 1;
nodes = (
"153 122 OFFCURVE",
"140 126 OFFCURVE",
"128 126 CURVE SMOOTH",
"104 126 OFFCURVE",
"73 107 OFFCURVE",
"73 80 CURVE SMOOTH",
"73 53 OFFCURVE",
"101 34 OFFCURVE",
"128 34 CURVE SMOOTH",
"155 34 OFFCURVE",
"185 55 OFFCURVE",
"185 80 CURVE SMOOTH",
"185 93 OFFCURVE",
"179 104 OFFCURVE",
"166 113 CURVE SMOOTH"
);
}
);
width = 258;
}
);
leftKerningGroup = colon;
note = colon;
rightKerningGroup = numbersign;
unicode = 003A;
},
{
glyphname = semicolon;
lastChange = "2016-07-31 02:28:38 +0000";
layers = (
{
layerId = "54C0795B-BA9F-4804-AEEC-86C9BCD12C1B";
paths = (
{
closed = 1;
nodes = (
"153 476 OFFCURVE",
"140 480 OFFCURVE",
"128 480 CURVE SMOOTH",
"104 480 OFFCURVE",
"73 461 OFFCURVE",
"73 434 CURVE SMOOTH",
"73 407 OFFCURVE",
"101 388 OFFCURVE",
"128 388 CURVE SMOOTH",
"155 388 OFFCURVE",
"185 409 OFFCURVE",
"185 434 CURVE SMOOTH",
"185 447 OFFCURVE",
"179 458 OFFCURVE",
"166 467 CURVE SMOOTH"
);
},
{
closed = 1;
nodes = (
"181 77 OFFCURVE",
"183 85 OFFCURVE",
"183 94 CURVE SMOOTH",
"183 113 OFFCURVE",
"156 122 OFFCURVE",
"137 122 CURVE SMOOTH",
"122 122 OFFCURVE",
"112 113 OFFCURVE",
"107 95 CURVE SMOOTH",
"83 8 LINE SMOOTH",
"81 0 OFFCURVE",
"80 -6 OFFCURVE",
"80 -9 CURVE SMOOTH",
"80 -29 OFFCURVE",
"89 -39 OFFCURVE",
"107 -39 CURVE SMOOTH",
"118 -39 OFFCURVE",
"128 -30 OFFCURVE",
"137 -12 CURVE SMOOTH",
"177 71 LINE"
);
}
);
width = 261;
}
);
leftKerningGroup = semicolon;
note = semicolon;
rightKerningGroup = numbersign;
unicode = 003B;
},
{
glyphname = less;
lastChange = "2016-07-31 02:28:38 +0000";
layers = (
{
layerId = "54C0795B-BA9F-4804-AEEC-86C9BCD12C1B";
paths = (
{
closed = 1;
nodes = (
"424 87 OFFCURVE",
"433 84 OFFCURVE",
"442 84 CURVE SMOOTH",
"461 84 OFFCURVE",
"470 103 OFFCURVE",
"470 119 CURVE SMOOTH",
"470 127 OFFCURVE",
"462 136 OFFCURVE",
"447 145 CURVE SMOOTH",
"125 333 LINE",
"448 519 LINE SMOOTH",
"463 528 OFFCURVE",
"470 537 OFFCURVE",
"470 548 CURVE SMOOTH",
"470 569 OFFCURVE",
"458 579 OFFCURVE",
"442 579 CURVE SMOOTH",
"434 579 OFFCURVE",
"426 577 OFFCURVE",
"417 572 CURVE SMOOTH",
"53 362 LINE SMOOTH",
"40 354 OFFCURVE",
"33 344 OFFCURVE",
"33 332 CURVE SMOOTH",
"33 320 OFFCURVE",
"40 310 OFFCURVE",
"53 302 CURVE SMOOTH",
"417 92 LINE"
);
}
);
width = 539;
}
);
note = less;
rightKerningGroup = numbersign;
unicode = 003C;
},
{
glyphname = equal;
lastChange = "2016-07-31 02:28:38 +0000";
layers = (
{
layerId = "54C0795B-BA9F-4804-AEEC-86C9BCD12C1B";
paths = (
{
closed = 1;
nodes = (
"90 415 OFFCURVE",
"79 400 OFFCURVE",
"79 384 CURVE SMOOTH",
"79 363 OFFCURVE",
"91 352 OFFCURVE",
"115 352 CURVE SMOOTH",
"360 352 LINE SMOOTH",
"381 352 OFFCURVE",
"399 363 OFFCURVE",
"399 382 CURVE SMOOTH",
"399 404 OFFCURVE",
"386 415 OFFCURVE",
"360 415 CURVE SMOOTH",
"115 415 LINE SMOOTH"
);
},
{
closed = 1;
nodes = (
"90 312 OFFCURVE",
"79 297 OFFCURVE",
"79 281 CURVE SMOOTH",
"79 260 OFFCURVE",
"91 249 OFFCURVE",
"115 249 CURVE SMOOTH",
"360 249 LINE SMOOTH",
"381 249 OFFCURVE",
"399 260 OFFCURVE",
"399 279 CURVE SMOOTH",
"399 301 OFFCURVE",
"386 312 OFFCURVE",
"360 312 CURVE SMOOTH",
"115 312 LINE SMOOTH"
);
}
);
width = 478;
}
);
note = equal;
rightKerningGroup = numbersign;
unicode = 003D;
},
{
glyphname = greater;
lastChange = "2016-07-31 02:28:38 +0000";
layers = (
{
layerId = "54C0795B-BA9F-4804-AEEC-86C9BCD12C1B";
paths = (
{
closed = 1;
nodes = (
"499 310 OFFCURVE",
"506 320 OFFCURVE",
"506 332 CURVE SMOOTH",
"506 344 OFFCURVE",
"499 354 OFFCURVE",
"486 362 CURVE SMOOTH",
"122 572 LINE SMOOTH",
"113 577 OFFCURVE",
"106 579 OFFCURVE",
"99 579 CURVE SMOOTH",
"98 579 OFFCURVE",
"98 579 OFFCURVE",
"97 579 CURVE SMOOTH",
"78 579 OFFCURVE",
"69 569 OFFCURVE",
"69 548 CURVE SMOOTH",
"69 537 OFFCURVE",
"76 528 OFFCURVE",
"91 519 CURVE SMOOTH",
"414 333 LINE",
"92 145 LINE SMOOTH",
"77 136 OFFCURVE",
"69 127 OFFCURVE",
"69 119 CURVE SMOOTH",
"69 103 OFFCURVE",
"79 84 OFFCURVE",
"97 84 CURVE SMOOTH",
"106 84 OFFCURVE",
"114 87 OFFCURVE",
"122 92 CURVE",
"486 302 LINE SMOOTH"
);
}
);
width = 539;
}
);
note = greater;
rightKerningGroup = numbersign;
unicode = 003E;
},
{
glyphname = question;
lastChange = "2016-07-31 02:28:38 +0000";
layers = (
{
layerId = "54C0795B-BA9F-4804-AEEC-86C9BCD12C1B";
paths = (
{
closed = 1;
nodes = (
"280 71 OFFCURVE",
"268 75 OFFCURVE",
"256 75 CURVE SMOOTH",
"231 75 OFFCURVE",
"200 55 OFFCURVE",
"200 29 CURVE SMOOTH",
"200 3 OFFCURVE",
"230 -17 OFFCURVE",
"256 -17 CURVE SMOOTH",
"282 -17 OFFCURVE",
"312 4 OFFCURVE",
"312 29 CURVE SMOOTH",
"312 42 OFFCURVE",
"306 53 OFFCURVE",
"293 62 CURVE SMOOTH"
);
},
{
closed = 1;
nodes = (
"277 156 OFFCURVE",
"287 169 OFFCURVE",
"287 194 CURVE SMOOTH",
"287 295 LINE",
"373 319 LINE SMOOTH",
"469 346 OFFCURVE",
"504 392 OFFCURVE",
"504 485 CURVE SMOOTH",
"504 577 OFFCURVE",
"454 654 OFFCURVE",
"333 654 CURVE SMOOTH",
"257 654 LINE SMOOTH",
"184 654 OFFCURVE",
"140 647 OFFCURVE",
"99 622 CURVE SMOOTH",
"58 597 OFFCURVE",
"38 547 OFFCURVE",
"38 471 CURVE SMOOTH",
"38 446 OFFCURVE",
"49 433 OFFCURVE",
"70 433 CURVE SMOOTH",
"91 433 OFFCURVE",
"101 446 OFFCURVE",
"101 471 CURVE SMOOTH",
"101 576 OFFCURVE",
"134 592 OFFCURVE",
"257 592 CURVE SMOOTH",
"350 592 LINE SMOOTH",
"415 592 OFFCURVE",
"442 536 OFFCURVE",
"442 485 CURVE SMOOTH",
"442 433 OFFCURVE",
"418 394 OFFCURVE",
"386 386 CURVE SMOOTH",
"225 342 LINE",
"225 194 LINE SMOOTH",
"225 166 OFFCURVE",
"240 156 OFFCURVE",
"256 156 CURVE SMOOTH"
);
}
);
width = 545;
}
);
leftKerningGroup = question;
note = question;
rightKerningGroup = numbersign;
unicode = 003F;
},
{
glyphname = at;
lastChange = "2016-07-31 02:28:38 +0000";
layers = (
{
layerId = "54C0795B-BA9F-4804-AEEC-86C9BCD12C1B";
paths = (
{
closed = 1;
nodes = (
"70 85 OFFCURVE",
"156 -10 OFFCURVE",
"288 -10 CURVE SMOOTH",
"429 -10 LINE SMOOTH",
"513 -10 OFFCURVE",
"535 39 OFFCURVE",
"535 101 CURVE SMOOTH",
"535 132 OFFCURVE",
"525 147 OFFCURVE",
"504 147 CURVE SMOOTH",
"483 147 OFFCURVE",
"473 135 OFFCURVE",
"473 112 CURVE SMOOTH",
"473 64 OFFCURVE",
"461 52 OFFCURVE",
"422 52 CURVE SMOOTH",
"288 52 LINE SMOOTH",
"184 52 OFFCURVE",
"132 121 OFFCURVE",
"132 241 CURVE SMOOTH",
"132 395 LINE SMOOTH",
"132 515 OFFCURVE",
"184 584 OFFCURVE",
"288 584 CURVE SMOOTH",
"317 584 LINE SMOOTH",
"420 584 OFFCURVE",
"473 512 OFFCURVE",
"473 404 CURVE SMOOTH",
"473 349 OFFCURVE",
"470 313 OFFCURVE",
"464 294 CURVE SMOOTH",
"458 275 OFFCURVE",
"447 263 OFFCURVE",
"430 258 CURVE",
"435 276 OFFCURVE",
"438 301 OFFCURVE",
"438 332 CURVE SMOOTH",
"438 439 OFFCURVE",
"407 483 OFFCURVE",
"307 483 CURVE SMOOTH",
"206 483 OFFCURVE",
"175 439 OFFCURVE",
"175 332 CURVE SMOOTH",
"175 224 OFFCURVE",
"205 180 OFFCURVE",
"306 180 CURVE SMOOTH",
"341 180 OFFCURVE",
"372 182 OFFCURVE",
"398 186 CURVE SMOOTH",
"486 202 OFFCURVE",
"535 236 OFFCURVE",
"535 395 CURVE SMOOTH",
"535 551 OFFCURVE",
"449 646 OFFCURVE",
"317 646 CURVE SMOOTH",
"288 646 LINE SMOOTH",
"156 646 OFFCURVE",
"70 551 OFFCURVE",
"70 395 CURVE SMOOTH",
"70 241 LINE SMOOTH"
);
},
{
closed = 1;
nodes = (
"237 406 OFFCURVE",
"246 421 OFFCURVE",
"307 421 CURVE SMOOTH",
"367 421 OFFCURVE",
"376 406 OFFCURVE",
"376 332 CURVE SMOOTH",
"376 258 OFFCURVE",
"367 242 OFFCURVE",
"307 242 CURVE SMOOTH",
"246 242 OFFCURVE",
"237 258 OFFCURVE",
"237 332 CURVE SMOOTH"
);
}
);
width = 603;
}
);
note = at;
rightKerningGroup = numbersign;
unicode = 0040;
},
{
glyphname = A;
lastChange = "2016-07-31 02:28:38 +0000";
layers = (
{
layerId = "54C0795B-BA9F-4804-AEEC-86C9BCD12C1B";
paths = (
{
closed = 1;
nodes = (
"27 31 LINE",
"25 25 OFFCURVE",
"24 18 OFFCURVE",
"24 10 CURVE SMOOTH",
"24 -6 OFFCURVE",
"43 -16 OFFCURVE",
"55 -16 CURVE SMOOTH",
"69 -16 OFFCURVE",
"80 -7 OFFCURVE",
"87 10 CURVE SMOOTH",
"157 194 LINE",
"433 194 LINE",
"503 10 LINE SMOOTH",
"510 -7 OFFCURVE",
"520 -16 OFFCURVE",
"535 -16 CURVE SMOOTH",
"547 -16 OFFCURVE",
"566 -6 OFFCURVE",
"566 10 CURVE SMOOTH",
"566 18 OFFCURVE",
"565 25 OFFCURVE",
"563 31 CURVE",
"331 636 LINE",
"259 636 LINE"
);
},
{
closed = 1;
nodes = (
"294 546 LINE",
"409 256 LINE",
"181 256 LINE"
);
}
);
width = 590;
}
);
leftKerningGroup = A;
note = A;
rightKerningGroup = A;
unicode = 0041;
},
{
glyphname = B;
lastChange = "2016-07-31 02:28:38 +0000";
layers = (
{
layerId = "54C0795B-BA9F-4804-AEEC-86C9BCD12C1B";
paths = (
{
closed = 1;
nodes = (
"470 317 OFFCURVE",
"506 301 OFFCURVE",
"506 198 CURVE SMOOTH",
"506 181 LINE SMOOTH",
"506 78 OFFCURVE",
"470 62 OFFCURVE",
"331 62 CURVE SMOOTH",
"146 62 LINE",
"146 317 LINE",
"343 317 LINE SMOOTH"
);
},
{
closed = 1;
nodes = (
"84 13 OFFCURVE",
"94 0 OFFCURVE",
"113 0 CURVE SMOOTH",
"331 0 LINE SMOOTH",
"498 0 OFFCURVE",
"568 37 OFFCURVE",
"568 182 CURVE SMOOTH",
"568 201 LINE SMOOTH",
"568 286 OFFCURVE",
"539 340 OFFCURVE",
"482 365 CURVE",
"511 390 OFFCURVE",
"526 430 OFFCURVE",
"526 486 CURVE SMOOTH",
"526 598 OFFCURVE",
"453 636 OFFCURVE",
"297 636 CURVE SMOOTH",
"113 636 LINE SMOOTH",
"94 636 OFFCURVE",
"84 623 OFFCURVE",
"84 596 CURVE SMOOTH",
"84 40 LINE SMOOTH"
);
},
{
closed = 1;
nodes = (
"146 569 LINE",
"297 569 LINE SMOOTH",
"421 569 OFFCURVE",
"464 551 OFFCURVE",
"464 474 CURVE SMOOTH",
"464 397 OFFCURVE",
"424 379 OFFCURVE",
"297 379 CURVE SMOOTH",
"146 379 LINE"
);
}
);
width = 624;
}
);
leftKerningGroup = B;
note = B;
rightKerningGroup = B;
unicode = 0042;
},
{
glyphname = C;
lastChange = "2016-07-31 02:28:38 +0000";
layers = (
{
layerId = "54C0795B-BA9F-4804-AEEC-86C9BCD12C1B";
paths = (
{
closed = 1;
nodes = (
"534 0 OFFCURVE",
"555 49 OFFCURVE",
"555 110 CURVE SMOOTH",
"555 171 OFFCURVE",
"493 169 OFFCURVE",
"493 122 CURVE SMOOTH",
"493 75 OFFCURVE",
"482 62 OFFCURVE",
"443 62 CURVE SMOOTH",
"309 62 LINE SMOOTH",
"169 62 OFFCURVE",
"133 78 OFFCURVE",
"133 183 CURVE SMOOTH",
"133 453 LINE SMOOTH",
"133 557 OFFCURVE",
"169 574 OFFCURVE",
"297 574 CURVE SMOOTH",
"443 574 LINE SMOOTH",
"482 574 OFFCURVE",
"493 562 OFFCURVE",
"493 514 CURVE SMOOTH",
"493 491 OFFCURVE",
"503 479 OFFCURVE",
"522 479 CURVE SMOOTH",
"523 479 OFFCURVE",
"523 479 OFFCURVE",
"524 479 CURVE SMOOTH",
"545 479 OFFCURVE",
"555 492 OFFCURVE",
"555 519 CURVE SMOOTH",
"555 590 OFFCURVE",
"534 636 OFFCURVE",
"450 636 CURVE SMOOTH",
"297 636 LINE SMOOTH",
"141 636 OFFCURVE",
"71 598 OFFCURVE",
"71 454 CURVE SMOOTH",
"71 182 LINE SMOOTH",
"71 37 OFFCURVE",
"142 0 OFFCURVE",
"309 0 CURVE SMOOTH",
"450 0 LINE SMOOTH"
);
}
);
width = 610;
}
);
leftKerningGroup = C;
note = C;
rightKerningGroup = C;
unicode = 0043;
},
{
glyphname = D;
lastChange = "2016-07-31 02:28:38 +0000";
layers = (
{
layerId = "54C0795B-BA9F-4804-AEEC-86C9BCD12C1B";
paths = (
{
closed = 1;
nodes = (
"568 598 OFFCURVE",
"498 636 OFFCURVE",
"343 636 CURVE SMOOTH",
"113 636 LINE SMOOTH",
"94 636 OFFCURVE",
"84 623 OFFCURVE",
"84 596 CURVE SMOOTH",
"84 40 LINE SMOOTH",
"84 13 OFFCURVE",
"94 0 OFFCURVE",
"113 0 CURVE SMOOTH",
"331 0 LINE SMOOTH",
"498 0 OFFCURVE",
"568 37 OFFCURVE",
"568 182 CURVE SMOOTH",
"568 454 LINE SMOOTH"
);
},
{
closed = 1;
nodes = (
"506 78 OFFCURVE",
"470 62 OFFCURVE",
"331 62 CURVE SMOOTH",
"146 62 LINE",
"146 574 LINE",
"343 574 LINE SMOOTH",
"470 574 OFFCURVE",
"506 558 OFFCURVE",
"506 453 CURVE SMOOTH",
"506 183 LINE SMOOTH"
);
}
);
width = 639;
}
);
leftKerningGroup = B;
note = D;
rightKerningGroup = D;
unicode = 0044;
},
{
glyphname = E;
lastChange = "2016-07-31 02:28:38 +0000";
layers = (
{
layerId = "54C0795B-BA9F-4804-AEEC-86C9BCD12C1B";
paths = (
{
closed = 1;
nodes = (
"437 327 OFFCURVE",
"451 337 OFFCURVE",
"451 356 CURVE SMOOTH",
"451 378 OFFCURVE",
"437 389 OFFCURVE",
"408 389 CURVE SMOOTH",
"146 389 LINE",
"146 574 LINE",
"529 574 LINE SMOOTH",
"555 574 OFFCURVE",
"568 584 OFFCURVE",
"568 603 CURVE SMOOTH",
"568 625 OFFCURVE",
"555 636 OFFCURVE",
"529 636 CURVE SMOOTH",
"113 636 LINE SMOOTH",
"94 636 OFFCURVE",
"84 623 OFFCURVE",
"84 596 CURVE SMOOTH",
"84 40 LINE SMOOTH",
"84 13 OFFCURVE",
"94 0 OFFCURVE",
"113 0 CURVE SMOOTH",
"529 0 LINE SMOOTH",
"555 0 OFFCURVE",
"568 10 OFFCURVE",
"568 29 CURVE SMOOTH",
"568 51 OFFCURVE",
"555 62 OFFCURVE",
"529 62 CURVE SMOOTH",
"146 62 LINE",
"146 327 LINE",
"408 327 LINE SMOOTH"
);
}
);
width = 617;
}
);
leftKerningGroup = B;
note = E;
rightKerningGroup = E;
unicode = 0045;
},
{
glyphname = F;
lastChange = "2016-07-31 02:28:38 +0000";
layers = (
{
layerId = "54C0795B-BA9F-4804-AEEC-86C9BCD12C1B";
paths = (
{
closed = 1;
nodes = (
"408 327 LINE SMOOTH",
"437 327 OFFCURVE",
"451 337 OFFCURVE",
"451 356 CURVE SMOOTH",
"451 378 OFFCURVE",
"437 389 OFFCURVE",
"408 389 CURVE SMOOTH",
"146 389 LINE",
"146 574 LINE",
"529 574 LINE SMOOTH",
"555 574 OFFCURVE",
"568 584 OFFCURVE",
"568 603 CURVE SMOOTH",
"568 625 OFFCURVE",
"555 636 OFFCURVE",
"529 636 CURVE SMOOTH",
"113 636 LINE SMOOTH",
"94 636 OFFCURVE",
"84 623 OFFCURVE",
"84 596 CURVE SMOOTH",
"84 32 LINE SMOOTH",
"84 6 OFFCURVE",
"94 -7 OFFCURVE",
"115 -7 CURVE SMOOTH",
"136 -7 OFFCURVE",
"146 6 OFFCURVE",
"146 31 CURVE SMOOTH",
"146 327 LINE"
);
}
);
width = 596;
}
);
leftKerningGroup = B;
note = F;
rightKerningGroup = F;
unicode = 0046;
},
{
glyphname = G;
lastChange = "2016-07-31 02:28:38 +0000";
layers = (
{
layerId = "54C0795B-BA9F-4804-AEEC-86C9BCD12C1B";
paths = (
{
closed = 1;
nodes = (
"493 75 OFFCURVE",
"483 62 OFFCURVE",
"443 62 CURVE SMOOTH",
"297 62 LINE SMOOTH",
"169 62 OFFCURVE",
"133 78 OFFCURVE",
"133 181 CURVE SMOOTH",
"133 455 LINE SMOOTH",
"133 558 OFFCURVE",
"170 574 OFFCURVE",
"309 574 CURVE SMOOTH",
"443 574 LINE SMOOTH",
"482 574 OFFCURVE",
"493 562 OFFCURVE",
"493 514 CURVE SMOOTH",
"493 491 OFFCURVE",
"502 480 OFFCURVE",
"521 480 CURVE SMOOTH",
"522 480 OFFCURVE",
"523 480 OFFCURVE",
"524 480 CURVE SMOOTH",
"545 480 OFFCURVE",
"555 495 OFFCURVE",
"555 526 CURVE SMOOTH",
"555 587 OFFCURVE",
"534 636 OFFCURVE",
"450 636 CURVE SMOOTH",
"309 636 LINE SMOOTH",
"142 636 OFFCURVE",
"71 601 OFFCURVE",
"71 457 CURVE SMOOTH",
"71 179 LINE SMOOTH",
"71 36 OFFCURVE",
"141 0 OFFCURVE",
"297 0 CURVE SMOOTH",
"450 0 LINE SMOOTH",
"479 0 OFFCURVE",
"502 6 OFFCURVE",
"519 18 CURVE SMOOTH",
"551 42 OFFCURVE",
"555 69 OFFCURVE",
"555 112 CURVE SMOOTH",
"555 303 LINE",
"364 303 LINE SMOOTH",
"335 303 OFFCURVE",
"321 293 OFFCURVE",
"321 272 CURVE SMOOTH",
"321 251 OFFCURVE",
"335 241 OFFCURVE",
"364 241 CURVE SMOOTH",
"493 241 LINE",
"493 116 LINE SMOOTH"
);
}
);
width = 625;
}
);
leftKerningGroup = C;
note = G;
rightKerningGroup = G;
unicode = 0047;
},
{
glyphname = H;
lastChange = "2016-07-31 02:28:38 +0000";
layers = (
{
layerId = "54C0795B-BA9F-4804-AEEC-86C9BCD12C1B";
paths = (
{
closed = 1;
nodes = (
"506 312 LINE",
"506 31 LINE SMOOTH",
"506 6 OFFCURVE",
"516 -7 OFFCURVE",
"537 -7 CURVE SMOOTH",
"558 -7 OFFCURVE",
"568 6 OFFCURVE",
"568 31 CURVE SMOOTH",
"568 604 LINE SMOOTH",
"568 630 OFFCURVE",
"558 643 OFFCURVE",
"537 643 CURVE SMOOTH",
"516 643 OFFCURVE",
"506 630 OFFCURVE",
"506 604 CURVE SMOOTH",
"506 374 LINE",
"146 374 LINE",
"146 604 LINE SMOOTH",
"146 630 OFFCURVE",
"135 643 OFFCURVE",
"113 643 CURVE SMOOTH",
"94 643 OFFCURVE",
"84 630 OFFCURVE",
"84 604 CURVE SMOOTH",
"84 31 LINE SMOOTH",
"84 6 OFFCURVE",
"94 -7 OFFCURVE",
"115 -7 CURVE SMOOTH",
"136 -7 OFFCURVE",
"146 6 OFFCURVE",
"146 31 CURVE SMOOTH",
"146 312 LINE"
);
}
);
width = 652;
}
);
leftKerningGroup = B;
note = H;
rightKerningGroup = H;
unicode = 0048;
},
{
glyphname = I;
lastChange = "2016-07-31 02:28:38 +0000";
layers = (
{
layerId = "54C0795B-BA9F-4804-AEEC-86C9BCD12C1B";
paths = (
{
closed = 1;
nodes = (
"146 631 OFFCURVE",
"136 643 OFFCURVE",
"115 643 CURVE SMOOTH",
"94 643 OFFCURVE",
"84 631 OFFCURVE",
"84 606 CURVE SMOOTH",
"84 29 LINE SMOOTH",
"84 5 OFFCURVE",
"94 -7 OFFCURVE",
"115 -7 CURVE SMOOTH",
"136 -7 OFFCURVE",
"146 5 OFFCURVE",
"146 29 CURVE SMOOTH",
"146 606 LINE SMOOTH"
);
}
);
width = 230;
}
);
leftKerningGroup = B;
note = I;
rightKerningGroup = H;
unicode = 0049;
},
{
glyphname = J;
lastChange = "2016-07-31 02:28:38 +0000";
layers = (
{
layerId = "54C0795B-BA9F-4804-AEEC-86C9BCD12C1B";
paths = (
{
closed = 1;
nodes = (
"96 200 OFFCURVE",
"85 215 OFFCURVE",
"66 215 CURVE SMOOTH",
"44 215 OFFCURVE",
"33 202 OFFCURVE",
"33 177 CURVE SMOOTH",
"33 29 OFFCURVE",
"104 -8 OFFCURVE",
"262 -8 CURVE SMOOTH",
"420 -8 OFFCURVE",
"490 28 OFFCURVE",
"490 171 CURVE SMOOTH",
"490 606 LINE SMOOTH",
"490 631 OFFCURVE",
"480 643 OFFCURVE",
"459 643 CURVE SMOOTH",
"438 643 OFFCURVE",
"428 631 OFFCURVE",
"428 607 CURVE SMOOTH",
"428 173 LINE SMOOTH",
"428 70 OFFCURVE",
"392 54 OFFCURVE",
"262 54 CURVE SMOOTH",
"132 54 OFFCURVE",
"96 70 OFFCURVE",
"96 177 CURVE SMOOTH"
);
}
);
width = 571;
}
);
leftKerningGroup = J;
note = J;
rightKerningGroup = J;
unicode = 004A;
},
{
glyphname = K;
lastChange = "2016-07-31 02:28:38 +0000";
layers = (
{
layerId = "54C0795B-BA9F-4804-AEEC-86C9BCD12C1B";
paths = (
{
closed = 1;
nodes = (
"456 588 LINE",
"463 597 OFFCURVE",
"467 605 OFFCURVE",
"467 614 CURVE SMOOTH",
"467 630 OFFCURVE",
"451 643 OFFCURVE",
"435 643 CURVE SMOOTH",
"427 643 OFFCURVE",
"418 637 OFFCURVE",
"408 626 CURVE SMOOTH",
"146 338 LINE",
"146 605 LINE SMOOTH",
"146 630 OFFCURVE",
"136 643 OFFCURVE",
"115 643 CURVE SMOOTH",
"94 643 OFFCURVE",
"84 631 OFFCURVE",
"84 606 CURVE SMOOTH",
"84 29 LINE SMOOTH",
"84 5 OFFCURVE",
"94 -7 OFFCURVE",
"115 -7 CURVE SMOOTH",
"136 -7 OFFCURVE",
"146 5 OFFCURVE",
"146 30 CURVE SMOOTH",
"146 261 LINE",
"194 319 LINE",
"474 10 LINE",
"483 -1 OFFCURVE",
"492 -7 OFFCURVE",
"501 -7 CURVE SMOOTH",
"517 -7 OFFCURVE",
"534 6 OFFCURVE",
"534 22 CURVE SMOOTH",
"534 30 OFFCURVE",
"530 39 OFFCURVE",
"522 48 CURVE SMOOTH",
"237 355 LINE"
);
}
);
width = 539;
}
);
leftKerningGroup = B;
note = K;
rightKerningGroup = K;
unicode = 004B;
},
{
glyphname = L;
lastChange = "2016-07-31 02:28:38 +0000";
layers = (
{
layerId = "54C0795B-BA9F-4804-AEEC-86C9BCD12C1B";
paths = (
{
closed = 1;
nodes = (
"499 0 OFFCURVE",
"512 10 OFFCURVE",
"512 31 CURVE SMOOTH",
"512 52 OFFCURVE",
"499 62 OFFCURVE",
"474 62 CURVE SMOOTH",
"146 62 LINE",
"146 607 LINE SMOOTH",
"146 631 OFFCURVE",
"136 643 OFFCURVE",
"115 643 CURVE SMOOTH",
"94 643 OFFCURVE",
"84 631 OFFCURVE",
"84 607 CURVE SMOOTH",
"84 39 LINE SMOOTH",
"84 13 OFFCURVE",
"94 0 OFFCURVE",
"113 0 CURVE SMOOTH",
"474 0 LINE SMOOTH"
);
}
);
width = 535;
}
);
leftKerningGroup = B;
note = L;
rightKerningGroup = L;
unicode = 004C;
},
{
glyphname = M;
lastChange = "2016-07-31 02:28:38 +0000";
layers = (
{
layerId = "54C0795B-BA9F-4804-AEEC-86C9BCD12C1B";
paths = (
{
closed = 1;
nodes = (
"527 33 LINE SMOOTH",
"527 6 OFFCURVE",
"537 -7 OFFCURVE",
"558 -7 CURVE SMOOTH",
"579 -7 OFFCURVE",
"589 6 OFFCURVE",
"589 31 CURVE SMOOTH",
"589 604 LINE SMOOTH",
"589 630 OFFCURVE",
"579 643 OFFCURVE",
"559 643 CURVE SMOOTH",
"547 643 OFFCURVE",
"536 636 OFFCURVE",
"526 622 CURVE SMOOTH",
"336 350 LINE",
"147 622 LINE",
"138 636 OFFCURVE",
"126 643 OFFCURVE",
"113 643 CURVE SMOOTH",
"94 643 OFFCURVE",
"84 630 OFFCURVE",
"84 604 CURVE SMOOTH",
"84 31 LINE SMOOTH",
"84 6 OFFCURVE",
"94 -7 OFFCURVE",
"115 -7 CURVE SMOOTH",
"136 -7 OFFCURVE",
"146 6 OFFCURVE",
"146 33 CURVE SMOOTH",
"146 534 LINE",
"314 289 LINE",
"321 282 OFFCURVE",
"329 279 OFFCURVE",
"338 279 CURVE SMOOTH",
"347 279 OFFCURVE",
"354 282 OFFCURVE",
"359 289 CURVE SMOOTH",
"527 534 LINE"
);
}
);
width = 673;
}
);
leftKerningGroup = B;
note = M;
rightKerningGroup = H;
unicode = 004D;
},
{
glyphname = N;
lastChange = "2016-07-31 02:28:38 +0000";
layers = (
{
layerId = "54C0795B-BA9F-4804-AEEC-86C9BCD12C1B";
paths = (
{
closed = 1;
nodes = (
"558 -7 OFFCURVE",
"568 6 OFFCURVE",
"568 31 CURVE SMOOTH",
"568 604 LINE SMOOTH",
"568 630 OFFCURVE",
"558 643 OFFCURVE",
"537 643 CURVE SMOOTH",
"516 643 OFFCURVE",
"506 629 OFFCURVE",
"506 602 CURVE SMOOTH",
"506 107 LINE",
"147 622 LINE",
"138 636 OFFCURVE",
"126 643 OFFCURVE",
"113 643 CURVE SMOOTH",
"94 643 OFFCURVE",
"84 630 OFFCURVE",
"84 604 CURVE SMOOTH",
"84 31 LINE SMOOTH",
"84 6 OFFCURVE",
"94 -7 OFFCURVE",
"115 -7 CURVE SMOOTH",
"136 -7 OFFCURVE",
"146 5 OFFCURVE",
"146 29 CURVE SMOOTH",
"146 530 LINE",
"514 0 LINE",
"519 -5 OFFCURVE",
"527 -7 OFFCURVE",
"538 -7 CURVE SMOOTH"
);
}
);
width = 652;
}
);
leftKerningGroup = B;
note = N;
rightKerningGroup = H;
unicode = 004E;
},
{
glyphname = O;
lastChange = "2016-07-31 02:28:38 +0000";
layers = (
{
layerId = "54C0795B-BA9F-4804-AEEC-86C9BCD12C1B";
paths = (
{
closed = 1;
nodes = (
"549 555 OFFCURVE",
"450 645 OFFCURVE",
"307 645 CURVE SMOOTH",
"163 645 OFFCURVE",
"65 555 OFFCURVE",
"65 407 CURVE SMOOTH",
"65 229 LINE SMOOTH",
"65 81 OFFCURVE",
"163 -9 OFFCURVE",
"307 -9 CURVE SMOOTH",
"450 -9 OFFCURVE",
"549 81 OFFCURVE",
"549 229 CURVE SMOOTH",
"549 407 LINE SMOOTH"
);
},
{
closed = 1;
nodes = (
"472 505 OFFCURVE",
"487 461 OFFCURVE",
"487 405 CURVE SMOOTH",
"487 231 LINE SMOOTH",
"487 118 OFFCURVE",
"424 53 OFFCURVE",
"307 53 CURVE SMOOTH",
"190 53 OFFCURVE",
"127 118 OFFCURVE",
"127 231 CURVE SMOOTH",
"127 405 LINE SMOOTH",
"127 517 OFFCURVE",
"191 583 OFFCURVE",
"307 583 CURVE SMOOTH",
"365 583 OFFCURVE",
"410 567 OFFCURVE",
"441 536 CURVE SMOOTH"
);
}
);
width = 614;
}
);
leftKerningGroup = O;
note = O;
rightKerningGroup = O;
unicode = 004F;
},
{
glyphname = P;
lastChange = "2016-07-31 02:28:38 +0000";
layers = (
{
layerId = "54C0795B-BA9F-4804-AEEC-86C9BCD12C1B";
paths = (
{
closed = 1;
nodes = (
"345 322 LINE SMOOTH",
"460 322 OFFCURVE",
"526 375 OFFCURVE",
"526 486 CURVE SMOOTH",
"526 597 OFFCURVE",
"451 636 OFFCURVE",
"299 636 CURVE SMOOTH",
"113 636 LINE SMOOTH",
"94 636 OFFCURVE",
"84 623 OFFCURVE",
"84 596 CURVE SMOOTH",
"84 29 LINE SMOOTH",
"84 5 OFFCURVE",
"94 -7 OFFCURVE",
"115 -7 CURVE SMOOTH",
"136 -7 OFFCURVE",
"146 5 OFFCURVE",
"146 29 CURVE SMOOTH",
"146 322 LINE"
);
},
{
closed = 1;
nodes = (
"146 574 LINE",
"299 574 LINE SMOOTH",
"423 574 OFFCURVE",
"464 557 OFFCURVE",
"464 480 CURVE SMOOTH",
"464 403 OFFCURVE",
"428 384 OFFCURVE",
"299 384 CURVE SMOOTH",
"146 384 LINE"
);
}
);
width = 560;
}
);
leftKerningGroup = B;
note = P;
rightKerningGroup = P;
unicode = 0050;
},
{
glyphname = Q;
lastChange = "2016-07-31 02:28:38 +0000";
layers = (
{
layerId = "54C0795B-BA9F-4804-AEEC-86C9BCD12C1B";
paths = (
{
closed = 1;
nodes = (
"472 505 OFFCURVE",
"487 461 OFFCURVE",
"487 405 CURVE SMOOTH",
"487 231 LINE SMOOTH",
"487 185 OFFCURVE",
"477 147 OFFCURVE",
"457 118 CURVE",
"407 166 LINE SMOOTH",
"397 176 OFFCURVE",
"387 181 OFFCURVE",
"377 181 CURVE SMOOTH",
"357 181 OFFCURVE",
"344 165 OFFCURVE",
"344 148 CURVE SMOOTH",
"344 139 OFFCURVE",
"349 131 OFFCURVE",
"359 124 CURVE",
"412 77 LINE",
"385 61 OFFCURVE",
"350 53 OFFCURVE",
"307 53 CURVE SMOOTH",
"190 53 OFFCURVE",
"127 118 OFFCURVE",
"127 231 CURVE SMOOTH",
"127 405 LINE SMOOTH",
"127 517 OFFCURVE",
"191 583 OFFCURVE",
"307 583 CURVE SMOOTH",
"365 583 OFFCURVE",
"410 567 OFFCURVE",
"441 536 CURVE SMOOTH"
);
},
{
closed = 1;
nodes = (
"496 -8 OFFCURVE",
"505 -12 OFFCURVE",
"515 -12 CURVE SMOOTH",
"534 -12 OFFCURVE",
"546 3 OFFCURVE",
"546 20 CURVE SMOOTH",
"546 29 OFFCURVE",
"542 37 OFFCURVE",
"534 45 CURVE SMOOTH",
"502 75 LINE",
"533 115 OFFCURVE",
"549 166 OFFCURVE",
"549 229 CURVE SMOOTH",
"549 407 LINE SMOOTH",
"549 555 OFFCURVE",
"450 645 OFFCURVE",
"307 645 CURVE SMOOTH",
"163 645 OFFCURVE",
"65 555 OFFCURVE",
"65 407 CURVE SMOOTH",
"65 229 LINE SMOOTH",
"65 81 OFFCURVE",
"166 -9 OFFCURVE",
"298 -9 CURVE SMOOTH",
"364 -9 OFFCURVE",
"417 4 OFFCURVE",
"457 31 CURVE",
"489 -1 LINE SMOOTH"
);
}
);
width = 614;
}
);
leftKerningGroup = O;
note = Q;
rightKerningGroup = O;
unicode = 0051;
},
{
glyphname = R;
lastChange = "2016-07-31 02:28:38 +0000";
layers = (
{
layerId = "54C0795B-BA9F-4804-AEEC-86C9BCD12C1B";
paths = (
{
closed = 1;
nodes = (
"485 346 OFFCURVE",
"526 398 OFFCURVE",
"526 478 CURVE SMOOTH",
"526 599 OFFCURVE",
"452 636 OFFCURVE",
"297 636 CURVE SMOOTH",
"113 636 LINE SMOOTH",
"94 636 OFFCURVE",
"84 623 OFFCURVE",
"84 596 CURVE SMOOTH",
"84 29 LINE SMOOTH",
"84 5 OFFCURVE",
"94 -7 OFFCURVE",
"115 -7 CURVE SMOOTH",
"136 -7 OFFCURVE",
"146 5 OFFCURVE",
"146 29 CURVE SMOOTH",
"146 317 LINE",
"333 317 LINE",
"412 258 OFFCURVE",
"469 79 OFFCURVE",
"472 30 CURVE SMOOTH",
"473 5 OFFCURVE",
"483 -7 OFFCURVE",
"502 -7 CURVE SMOOTH",
"521 -7 OFFCURVE",
"534 10 OFFCURVE",
"534 27 CURVE SMOOTH",
"534 36 OFFCURVE",
"529 58 OFFCURVE",
"520 94 CURVE SMOOTH",
"500 165 OFFCURVE",
"457 282 OFFCURVE",
"414 329 CURVE"
);
},
{
closed = 1;
nodes = (
"297 569 LINE SMOOTH",
"422 569 OFFCURVE",
"464 553 OFFCURVE",
"464 474 CURVE SMOOTH",
"464 395 OFFCURVE",
"424 379 OFFCURVE",
"297 379 CURVE SMOOTH",
"146 379 LINE",
"146 569 LINE"
);
}
);
width = 589;
}
);
leftKerningGroup = B;
note = R;
rightKerningGroup = R;
unicode = 0052;
},
{
glyphname = S;
lastChange = "2016-07-31 02:28:38 +0000";
layers = (
{
layerId = "54C0795B-BA9F-4804-AEEC-86C9BCD12C1B";
paths = (
{
closed = 1;
nodes = (
"404 582 OFFCURVE",
"434 580 OFFCURVE",
"466 564 CURVE",
"497 547 OFFCURVE",
"504 513 OFFCURVE",
"504 474 CURVE SMOOTH",
"504 434 OFFCURVE",
"516 423 OFFCURVE",
"535 423 CURVE SMOOTH",
"556 423 OFFCURVE",
"567 437 OFFCURVE",
"567 465 CURVE SMOOTH",
"567 540 OFFCURVE",
"546 589 OFFCURVE",
"504 612 CURVE SMOOTH",
"459 637 OFFCURVE",
"412 644 OFFCURVE",
"329 644 CURVE SMOOTH",
"253 644 LINE SMOOTH",
"116 644 OFFCURVE",
"61 571 OFFCURVE",
"61 480 CURVE SMOOTH",
"61 388 OFFCURVE",
"99 340 OFFCURVE",
"195 320 CURVE SMOOTH",
"449 268 LINE SMOOTH",
"474 263 OFFCURVE",
"506 226 OFFCURVE",
"506 155 CURVE SMOOTH",
"506 88 OFFCURVE",
"456 54 OFFCURVE",
"408 54 CURVE SMOOTH",
"298 54 LINE SMOOTH",
"158 54 OFFCURVE",
"124 70 OFFCURVE",
"124 177 CURVE SMOOTH",
"124 200 OFFCURVE",
"113 215 OFFCURVE",
"94 215 CURVE SMOOTH",
"72 215 OFFCURVE",
"61 202 OFFCURVE",
"61 177 CURVE SMOOTH",
"61 29 OFFCURVE",
"133 -8 OFFCURVE",
"298 -8 CURVE SMOOTH",
"388 -8 LINE SMOOTH",
"389 -8 OFFCURVE",
"391 -8 OFFCURVE",
"392 -8 CURVE SMOOTH",
"521 -8 OFFCURVE",
"566 73 OFFCURVE",
"567 158 CURVE SMOOTH",
"567 243 OFFCURVE",
"530 313 OFFCURVE",
"435 332 CURVE SMOOTH",
"179 382 LINE",
"148 390 OFFCURVE",
"123 429 OFFCURVE",
"123 479 CURVE SMOOTH",
"123 529 OFFCURVE",
"152 582 OFFCURVE",
"227 582 CURVE SMOOTH",
"329 582 LINE SMOOTH"
);
}
);
width = 628;
}
);
leftKerningGroup = S;
note = S;
rightKerningGroup = S;
unicode = 0053;
},
{
glyphname = T;
lastChange = "2016-07-31 02:28:38 +0000";
layers = (
{
layerId = "54C0795B-BA9F-4804-AEEC-86C9BCD12C1B";
paths = (
{
closed = 1;
nodes = (
"39 636 OFFCURVE",
"26 626 OFFCURVE",
"26 605 CURVE SMOOTH",
"26 584 OFFCURVE",
"39 574 OFFCURVE",
"64 574 CURVE SMOOTH",
"216 574 LINE",
"216 29 LINE SMOOTH",
"216 5 OFFCURVE",
"227 -7 OFFCURVE",
"249 -7 CURVE SMOOTH",
"268 -7 OFFCURVE",
"285 2 OFFCURVE",
"285 29 CURVE SMOOTH",
"285 574 LINE",
"435 574 LINE SMOOTH",
"460 574 OFFCURVE",
"473 584 OFFCURVE",
"473 605 CURVE SMOOTH",
"473 626 OFFCURVE",
"460 636 OFFCURVE",
"435 636 CURVE SMOOTH",
"64 636 LINE SMOOTH"
);
}
);
width = 500;
}
);
leftKerningGroup = T;
note = T;
rightKerningGroup = T;
unicode = 0054;
},
{
glyphname = U;
lastChange = "2016-07-31 02:28:38 +0000";
layers = (
{
layerId = "54C0795B-BA9F-4804-AEEC-86C9BCD12C1B";
paths = (
{
closed = 1;
nodes = (
"500 118 OFFCURVE",
"437 53 OFFCURVE",
"320 53 CURVE SMOOTH",
"203 53 OFFCURVE",
"140 118 OFFCURVE",
"140 231 CURVE SMOOTH",
"140 607 LINE SMOOTH",
"140 631 OFFCURVE",
"130 643 OFFCURVE",
"109 643 CURVE SMOOTH",
"88 643 OFFCURVE",
"78 631 OFFCURVE",
"78 606 CURVE SMOOTH",
"78 229 LINE SMOOTH",
"78 81 OFFCURVE",
"176 -10 OFFCURVE",
"320 -10 CURVE SMOOTH",
"321 -10 OFFCURVE",
"321 -10 OFFCURVE",
"322 -10 CURVE SMOOTH",
"393 -10 OFFCURVE",
"451 11 OFFCURVE",
"494 54 CURVE SMOOTH",
"539 97 OFFCURVE",
"562 155 OFFCURVE",
"562 229 CURVE SMOOTH",
"562 606 LINE SMOOTH",
"562 631 OFFCURVE",
"552 643 OFFCURVE",
"531 643 CURVE SMOOTH",
"510 643 OFFCURVE",
"500 631 OFFCURVE",
"500 607 CURVE SMOOTH",
"500 231 LINE SMOOTH"
);
}
);
width = 640;
}
);
leftKerningGroup = U;
note = U;
rightKerningGroup = U;
unicode = 0055;
},
{
glyphname = V;
lastChange = "2016-07-31 02:28:38 +0000";
layers = (
{
layerId = "54C0795B-BA9F-4804-AEEC-86C9BCD12C1B";
paths = (
{
closed = 1;
nodes = (
"87 626 LINE",
"79 643 OFFCURVE",
"68 652 OFFCURVE",
"55 652 CURVE SMOOTH",
"43 652 OFFCURVE",
"24 642 OFFCURVE",
"24 626 CURVE SMOOTH",
"24 618 OFFCURVE",
"25 611 OFFCURVE",
"27 605 CURVE",
"259 0 LINE",
"331 0 LINE",
"563 605 LINE",
"565 611 OFFCURVE",
"566 618 OFFCURVE",
"566 626 CURVE SMOOTH",
"566 642 OFFCURVE",
"547 652 OFFCURVE",
"535 652 CURVE SMOOTH",
"521 652 OFFCURVE",
"510 643 OFFCURVE",
"503 626 CURVE SMOOTH",
"296 90 LINE"
);
}
);
width = 590;
}
);
leftKerningGroup = V;
note = V;
rightKerningGroup = V;
unicode = 0056;
},
{
glyphname = W;
lastChange = "2016-07-31 02:28:38 +0000";
layers = (
{
layerId = "54C0795B-BA9F-4804-AEEC-86C9BCD12C1B";
paths = (
{
closed = 1;
nodes = (
"497 642 OFFCURVE",
"485 652 OFFCURVE",
"468 652 CURVE SMOOTH",
"451 652 OFFCURVE",
"439 642 OFFCURVE",
"432 623 CURVE",
"258 84 LINE",
"89 628 LINE",
"82 645 OFFCURVE",
"70 653 OFFCURVE",
"53 653 CURVE SMOOTH",
"36 653 OFFCURVE",
"27 645 OFFCURVE",
"27 628 CURVE SMOOTH",
"27 624 OFFCURVE",
"28 618 OFFCURVE",
"31 610 CURVE",
"225 0 LINE",
"290 0 LINE",
"467 542 LINE",
"645 0 LINE",
"711 0 LINE",
"904 606 LINE",
"907 614 OFFCURVE",
"908 620 OFFCURVE",
"908 624 CURVE SMOOTH",
"908 641 OFFCURVE",
"899 649 OFFCURVE",
"882 649 CURVE SMOOTH",
"865 649 OFFCURVE",
"853 641 OFFCURVE",
"846 624 CURVE",
"679 84 LINE",
"504 622 LINE SMOOTH"
);
}
);
width = 935;
}
);
leftKerningGroup = W;
note = W;
rightKerningGroup = W;
unicode = 0057;
},
{
glyphname = X;
lastChange = "2016-07-31 02:28:38 +0000";
layers = (
{
layerId = "54C0795B-BA9F-4804-AEEC-86C9BCD12C1B";
paths = (
{
closed = 1;
nodes = (
"98 623 LINE SMOOTH",
"89 636 OFFCURVE",
"79 643 OFFCURVE",
"69 643 CURVE SMOOTH",
"49 643 OFFCURVE",
"38 627 OFFCURVE",
"38 612 CURVE SMOOTH",
"38 604 OFFCURVE",
"41 596 OFFCURVE",
"47 589 CURVE",
"251 317 LINE",
"47 46 LINE SMOOTH",
"41 38 OFFCURVE",
"38 30 OFFCURVE",
"38 22 CURVE SMOOTH",
"38 5 OFFCURVE",
"52 -7 OFFCURVE",
"71 -7 CURVE SMOOTH",
"80 -7 OFFCURVE",
"89 -1 OFFCURVE",
"98 11 CURVE SMOOTH",
"291 273 LINE",
"485 11 LINE SMOOTH",
"494 -1 OFFCURVE",
"503 -7 OFFCURVE",
"512 -7 CURVE SMOOTH",
"529 -7 OFFCURVE",
"545 4 OFFCURVE",
"545 21 CURVE SMOOTH",
"545 30 OFFCURVE",
"542 38 OFFCURVE",
"536 46 CURVE SMOOTH",
"332 317 LINE",
"536 589 LINE SMOOTH",
"542 597 OFFCURVE",
"545 606 OFFCURVE",
"545 615 CURVE SMOOTH",
"545 633 OFFCURVE",
"528 643 OFFCURVE",
"512 643 CURVE SMOOTH",
"504 643 OFFCURVE",
"495 636 OFFCURVE",
"485 623 CURVE SMOOTH",
"291 362 LINE"
);
}
);
width = 582;
}
);
leftKerningGroup = X;
note = X;
rightKerningGroup = X;
unicode = 0058;
},
{
glyphname = Y;
lastChange = "2016-07-31 02:28:38 +0000";
layers = (
{
layerId = "54C0795B-BA9F-4804-AEEC-86C9BCD12C1B";
paths = (
{
closed = 1;
nodes = (
"238 5 OFFCURVE",
"249 -7 OFFCURVE",
"270 -7 CURVE SMOOTH",
"291 -7 OFFCURVE",
"302 5 OFFCURVE",
"303 28 CURVE",
"303 307 LINE",
"514 590 LINE",
"520 599 OFFCURVE",
"523 608 OFFCURVE",
"523 615 CURVE SMOOTH",
"523 630 OFFCURVE",
"507 643 OFFCURVE",
"491 643 CURVE SMOOTH",
"483 643 OFFCURVE",
"474 636 OFFCURVE",
"463 623 CURVE",
"270 362 LINE",
"76 623 LINE",
"65 636 OFFCURVE",
"56 643 OFFCURVE",
"48 643 CURVE SMOOTH",
"32 643 OFFCURVE",
"17 630 OFFCURVE",
"17 615 CURVE SMOOTH",
"17 608 OFFCURVE",
"20 599 OFFCURVE",
"26 590 CURVE",
"238 307 LINE",
"238 28 LINE SMOOTH"
);
}
);
width = 541;
}
);
leftKerningGroup = Y;
note = Y;
rightKerningGroup = Y;
unicode = 0059;
},
{
glyphname = Z;
lastChange = "2016-07-31 02:28:38 +0000";
layers = (
{
layerId = "54C0795B-BA9F-4804-AEEC-86C9BCD12C1B";
paths = (
{
closed = 1;
nodes = (
"519 0 OFFCURVE",
"532 10 OFFCURVE",
"532 31 CURVE SMOOTH",
"532 52 OFFCURVE",
"519 62 OFFCURVE",
"492 62 CURVE SMOOTH",
"128 62 LINE",
"532 576 LINE",
"532 636 LINE",
"89 636 LINE SMOOTH",
"62 636 OFFCURVE",
"48 626 OFFCURVE",
"48 605 CURVE SMOOTH",
"48 584 OFFCURVE",
"62 574 OFFCURVE",
"89 574 CURVE SMOOTH",
"455 574 LINE",
"49 58 LINE",
"49 0 LINE",
"492 0 LINE SMOOTH"
);
}
);
width = 580;
}
);
leftKerningGroup = Z;
note = Z;
rightKerningGroup = Z;
unicode = 005A;
},
{
glyphname = bracketleft;
lastChange = "2016-07-31 02:28:38 +0000";
layers = (
{
layerId = "54C0795B-BA9F-4804-AEEC-86C9BCD12C1B";
paths = (
{
closed = 1;
nodes = (
"220 626 LINE",
"220 688 LINE",
"80 688 LINE",
"80 -52 LINE",
"220 -52 LINE",
"220 10 LINE",
"142 10 LINE",
"142 626 LINE"
);
}
);
width = 267;
}
);
note = bracketleft;
rightKerningGroup = bracketleft;
unicode = 005B;
},
{
glyphname = backslash;
lastChange = "2016-07-31 02:28:38 +0000";
layers = (
{
layerId = "54C0795B-BA9F-4804-AEEC-86C9BCD12C1B";
paths = (
{
closed = 1;
nodes = (
"270 -9 OFFCURVE",
"280 -18 OFFCURVE",
"294 -18 CURVE SMOOTH",
"307 -18 OFFCURVE",
"325 -8 OFFCURVE",
"325 7 CURVE SMOOTH",
"325 14 OFFCURVE",
"324 22 OFFCURVE",
"322 30 CURVE",
"104 629 LINE",
"97 646 OFFCURVE",
"87 655 OFFCURVE",
"74 655 CURVE SMOOTH",
"59 655 OFFCURVE",
"42 644 OFFCURVE",
"42 631 CURVE SMOOTH",
"42 624 OFFCURVE",
"43 616 OFFCURVE",
"45 606 CURVE",
"263 8 LINE"
);
}
);
width = 367;
}
);
leftKerningGroup = backslash;
note = backslash;
rightKerningGroup = backslash;
unicode = 005C;
},
{
glyphname = bracketright;
lastChange = "2016-07-31 02:28:38 +0000";
layers = (
{
layerId = "54C0795B-BA9F-4804-AEEC-86C9BCD12C1B";
paths = (
{
closed = 1;
nodes = (
"47 -52 LINE",
"187 -52 LINE",
"187 688 LINE",
"47 688 LINE",
"47 626 LINE",
"125 626 LINE",
"125 10 LINE",
"47 10 LINE"
);
}
);
width = 267;
}
);
leftKerningGroup = bracketright;
note = bracketright;
rightKerningGroup = numbersign;
unicode = 005D;
},
{
glyphname = asciicircum;
lastChange = "2016-07-31 02:28:38 +0000";
layers = (
{
layerId = "54C0795B-BA9F-4804-AEEC-86C9BCD12C1B";
paths = (
{
closed = 1;
nodes = (
"306 379 LINE",
"314 363 OFFCURVE",
"325 355 OFFCURVE",
"340 355 CURVE SMOOTH",
"359 355 OFFCURVE",
"368 364 OFFCURVE",
"368 383 CURVE SMOOTH",
"368 389 OFFCURVE",
"367 394 OFFCURVE",
"366 397 CURVE",
"255 646 LINE",
"189 646 LINE",
"77 397 LINE",
"76 394 OFFCURVE",
"75 389 OFFCURVE",
"75 382 CURVE SMOOTH",
"75 369 OFFCURVE",
"87 355 OFFCURVE",
"103 355 CURVE SMOOTH",
"118 355 OFFCURVE",
"129 363 OFFCURVE",
"136 379 CURVE SMOOTH",
"222 569 LINE"
);
}
);
width = 443;
}
);
note = asciicircum;
rightKerningGroup = numbersign;
unicode = 005E;
},
{
glyphname = underscore;
lastChange = "2016-07-31 02:28:38 +0000";
layers = (
{
layerId = "54C0795B-BA9F-4804-AEEC-86C9BCD12C1B";
paths = (
{
closed = 1;
nodes = (
"3 10 OFFCURVE",
"-10 0 OFFCURVE",
"-10 -21 CURVE SMOOTH",
"-10 -42 OFFCURVE",
"3 -52 OFFCURVE",
"28 -52 CURVE SMOOTH",
"447 -52 LINE SMOOTH",
"472 -52 OFFCURVE",
"485 -42 OFFCURVE",
"485 -21 CURVE SMOOTH",
"485 0 OFFCURVE",
"472 10 OFFCURVE",
"447 10 CURVE SMOOTH",
"28 10 LINE SMOOTH"
);
}
);
width = 475;
}
);
note = underscore;
rightKerningGroup = numbersign;
unicode = 005F;
},
{
glyphname = grave;
lastChange = "2016-07-31 02:28:38 +0000";
layers = (
{
layerId = "54C0795B-BA9F-4804-AEEC-86C9BCD12C1B";
paths = (
{
closed = 1;
nodes = (
"73 682 OFFCURVE",
"64 688 OFFCURVE",
"56 688 CURVE SMOOTH",
"40 688 OFFCURVE",
"24 677 OFFCURVE",
"24 657 CURVE SMOOTH",
"24 648 OFFCURVE",
"27 639 OFFCURVE",
"34 632 CURVE",
"130 517 LINE",
"141 506 OFFCURVE",
"150 500 OFFCURVE",
"158 500 CURVE SMOOTH",
"174 500 OFFCURVE",
"189 511 OFFCURVE",
"189 530 CURVE SMOOTH",
"189 539 OFFCURVE",
"186 548 OFFCURVE",
"179 556 CURVE SMOOTH",
"83 671 LINE"
);
}
);
width = 212;
}
);
note = grave;
rightKerningGroup = numbersign;
unicode = 0060;
},
{
glyphname = a;
lastChange = "2016-07-31 02:28:38 +0000";
layers = (
{
layerId = "54C0795B-BA9F-4804-AEEC-86C9BCD12C1B";
paths = (
{
closed = 1;
nodes = (
"440 228 LINE SMOOTH",
"440 117 OFFCURVE",
"382 62 OFFCURVE",
"265 62 CURVE SMOOTH",
"172 62 LINE SMOOTH",
"148 62 OFFCURVE",
"122 90 OFFCURVE",
"122 121 CURVE SMOOTH",
"122 222 OFFCURVE",
"157 238 OFFCURVE",
"298 238 CURVE SMOOTH",
"440 238 LINE"
);
},
{
closed = 1;
nodes = (
"134 300 OFFCURVE",
"60 262 OFFCURVE",
"60 126 CURVE SMOOTH",
"60 50 OFFCURVE",
"107 0 OFFCURVE",
"172 0 CURVE SMOOTH",
"265 0 LINE SMOOTH",
"342 0 OFFCURVE",
"401 19 OFFCURVE",
"440 56 CURVE",
"440 33 LINE SMOOTH",
"440 6 OFFCURVE",
"450 -7 OFFCURVE",
"471 -7 CURVE SMOOTH",
"492 -7 OFFCURVE",
"502 6 OFFCURVE",
"502 31 CURVE SMOOTH",
"502 333 LINE SMOOTH",
"502 426 OFFCURVE",
"478 461 OFFCURVE",
"397 461 CURVE SMOOTH",
"242 461 LINE SMOOTH",
"121 461 OFFCURVE",
"60 422 OFFCURVE",
"60 344 CURVE SMOOTH",
"60 317 OFFCURVE",
"70 304 OFFCURVE",
"91 304 CURVE SMOOTH",
"112 304 OFFCURVE",
"122 317 OFFCURVE",
"122 344 CURVE SMOOTH",
"122 381 OFFCURVE",
"164 399 OFFCURVE",
"249 399 CURVE SMOOTH",
"390 399 LINE SMOOTH",
"429 399 OFFCURVE",
"440 387 OFFCURVE",
"440 350 CURVE SMOOTH",
"440 300 LINE",
"298 300 LINE SMOOTH"
);
}
);
width = 573;
}
);
leftKerningGroup = a;
note = a;
rightKerningGroup = a;
unicode = 0061;
},
{
glyphname = b;
lastChange = "2016-07-31 02:28:38 +0000";
layers = (
{
layerId = "54C0795B-BA9F-4804-AEEC-86C9BCD12C1B";
paths = (
{
closed = 1;
nodes = (
"137 629 OFFCURVE",
"126 643 OFFCURVE",
"104 643 CURVE SMOOTH",
"85 643 OFFCURVE",
"75 629 OFFCURVE",
"75 602 CURVE SMOOTH",
"75 31 LINE SMOOTH",
"75 6 OFFCURVE",
"85 -7 OFFCURVE",
"106 -7 CURVE SMOOTH",
"127 -7 OFFCURVE",
"137 6 OFFCURVE",
"137 33 CURVE SMOOTH",
"137 56 LINE",
"177 19 OFFCURVE",
"236 0 OFFCURVE",
"313 0 CURVE SMOOTH",
"342 0 LINE SMOOTH",
"507 0 OFFCURVE",
"579 37 OFFCURVE",
"579 177 CURVE SMOOTH",
"579 284 LINE SMOOTH",
"579 424 OFFCURVE",
"507 461 OFFCURVE",
"342 461 CURVE SMOOTH",
"313 461 LINE SMOOTH",
"236 461 OFFCURVE",
"177 442 OFFCURVE",
"137 405 CURVE",
"137 602 LINE SMOOTH"
);
},
{
closed = 1;
nodes = (
"481 399 OFFCURVE",
"517 385 OFFCURVE",
"517 282 CURVE SMOOTH",
"517 179 LINE SMOOTH",
"517 76 OFFCURVE",
"481 62 OFFCURVE",
"342 62 CURVE SMOOTH",
"313 62 LINE SMOOTH",
"196 62 OFFCURVE",
"137 117 OFFCURVE",
"137 228 CURVE SMOOTH",
"137 232 LINE SMOOTH",
"137 343 OFFCURVE",
"196 399 OFFCURVE",
"313 399 CURVE SMOOTH",
"342 399 LINE SMOOTH"
);
}
);
width = 641;
}
);
leftKerningGroup = b;
note = b;
rightKerningGroup = b;
unicode = 0062;
},
{
glyphname = c;
lastChange = "2016-07-31 02:28:38 +0000";
layers = (
{
layerId = "54C0795B-BA9F-4804-AEEC-86C9BCD12C1B";
paths = (
{
closed = 1;
nodes = (
"525 0 OFFCURVE",
"546 49 OFFCURVE",
"546 111 CURVE SMOOTH",
"546 142 OFFCURVE",
"536 157 OFFCURVE",
"515 157 CURVE SMOOTH",
"494 157 OFFCURVE",
"484 145 OFFCURVE",
"484 122 CURVE SMOOTH",
"484 75 OFFCURVE",
"473 62 OFFCURVE",
"434 62 CURVE SMOOTH",
"300 62 LINE SMOOTH",
"159 62 OFFCURVE",
"124 78 OFFCURVE",
"124 179 CURVE SMOOTH",
"124 282 LINE SMOOTH",
"124 383 OFFCURVE",
"159 399 OFFCURVE",
"300 399 CURVE SMOOTH",
"434 399 LINE SMOOTH",
"473 399 OFFCURVE",
"484 387 OFFCURVE",
"484 340 CURVE SMOOTH",
"484 316 OFFCURVE",
"494 304 OFFCURVE",
"515 304 CURVE SMOOTH",
"536 304 OFFCURVE",
"546 319 OFFCURVE",
"546 348 CURVE SMOOTH",
"546 407 OFFCURVE",
"530 461 OFFCURVE",
"441 461 CURVE SMOOTH",
"300 461 LINE SMOOTH",
"133 461 OFFCURVE",
"62 424 OFFCURVE",
"62 284 CURVE SMOOTH",
"62 177 LINE SMOOTH",
"62 37 OFFCURVE",
"133 0 OFFCURVE",
"300 0 CURVE SMOOTH",
"441 0 LINE SMOOTH"
);
}
);
width = 604;
}
);
leftKerningGroup = c;
note = c;
rightKerningGroup = c;
unicode = 0063;
},
{
glyphname = d;
lastChange = "2016-07-31 02:28:38 +0000";
layers = (
{
layerId = "54C0795B-BA9F-4804-AEEC-86C9BCD12C1B";
paths = (
{
closed = 1;
nodes = (
"124 385 OFFCURVE",
"160 399 OFFCURVE",
"297 399 CURVE SMOOTH",
"504 399 LINE",
"504 229 LINE SMOOTH",
"504 118 OFFCURVE",
"445 62 OFFCURVE",
"328 62 CURVE SMOOTH",
"299 62 LINE SMOOTH",
"160 62 OFFCURVE",
"124 76 OFFCURVE",
"124 179 CURVE SMOOTH",
"124 282 LINE SMOOTH"
);
},
{
closed = 1;
nodes = (
"62 37 OFFCURVE",
"134 0 OFFCURVE",
"299 0 CURVE SMOOTH",
"328 0 LINE SMOOTH",
"405 0 OFFCURVE",
"464 19 OFFCURVE",
"504 56 CURVE",
"504 33 LINE SMOOTH",
"504 6 OFFCURVE",
"514 -7 OFFCURVE",
"535 -7 CURVE SMOOTH",
"556 -7 OFFCURVE",
"566 6 OFFCURVE",
"566 31 CURVE SMOOTH",
"566 603 LINE SMOOTH",
"566 630 OFFCURVE",
"556 643 OFFCURVE",
"537 643 CURVE SMOOTH",
"515 643 OFFCURVE",
"504 630 OFFCURVE",
"504 603 CURVE SMOOTH",
"504 461 LINE",
"297 461 LINE SMOOTH",
"133 461 OFFCURVE",
"62 424 OFFCURVE",
"62 284 CURVE SMOOTH",
"62 177 LINE SMOOTH"
);
}
);
width = 641;
}
);
leftKerningGroup = c;
note = d;
rightKerningGroup = d;
unicode = 0064;
},
{
glyphname = e;
lastChange = "2016-07-31 02:28:38 +0000";
layers = (
{
layerId = "54C0795B-BA9F-4804-AEEC-86C9BCD12C1B";
paths = (
{
closed = 1;
nodes = (
"566 424 OFFCURVE",
"494 461 OFFCURVE",
"329 461 CURVE SMOOTH",
"300 461 LINE SMOOTH",
"133 461 OFFCURVE",
"62 424 OFFCURVE",
"62 284 CURVE SMOOTH",
"62 177 LINE SMOOTH",
"62 37 OFFCURVE",
"133 0 OFFCURVE",
"300 0 CURVE SMOOTH",
"461 0 LINE SMOOTH",
"545 0 OFFCURVE",
"566 49 OFFCURVE",
"566 110 CURVE SMOOTH",
"566 171 OFFCURVE",
"504 169 OFFCURVE",
"504 122 CURVE SMOOTH",
"504 75 OFFCURVE",
"493 62 OFFCURVE",
"454 62 CURVE SMOOTH",
"300 62 LINE SMOOTH",
"159 62 OFFCURVE",
"124 78 OFFCURVE",
"124 179 CURVE SMOOTH",
"124 240 LINE",
"566 240 LINE",
"566 284 LINE SMOOTH"
);
},
{
closed = 1;
nodes = (
"464 399 OFFCURVE",
"501 385 OFFCURVE",
"504 302 CURVE",
"124 302 LINE",
"127 385 OFFCURVE",
"164 399 OFFCURVE",
"300 399 CURVE SMOOTH",
"329 399 LINE SMOOTH"
);
}
);
width = 626;
}
);
leftKerningGroup = c;
note = e;
rightKerningGroup = e;
unicode = 0065;
},
{
glyphname = f;
lastChange = "2016-07-31 02:28:38 +0000";
layers = (
{
layerId = "54C0795B-BA9F-4804-AEEC-86C9BCD12C1B";
paths = (
{
closed = 1;
nodes = (
"325 574 OFFCURVE",
"339 584 OFFCURVE",
"339 603 CURVE SMOOTH",
"339 625 OFFCURVE",
"325 636 OFFCURVE",
"298 636 CURVE SMOOTH",
"227 636 OFFCURVE",
"184 629 OFFCURVE",
"143 605 CURVE SMOOTH",
"102 582 OFFCURVE",
"81 534 OFFCURVE",
"80 461 CURVE",
"59 458 OFFCURVE",
"49 449 OFFCURVE",
"49 433 CURVE SMOOTH",
"49 415 OFFCURVE",
"59 405 OFFCURVE",
"80 402 CURVE",
"80 32 LINE SMOOTH",
"80 6 OFFCURVE",
"90 -7 OFFCURVE",
"109 -7 CURVE SMOOTH",
"131 -7 OFFCURVE",
"142 6 OFFCURVE",
"142 32 CURVE SMOOTH",
"142 399 LINE",
"275 399 LINE SMOOTH",
"302 399 OFFCURVE",
"316 409 OFFCURVE",
"316 428 CURVE SMOOTH",
"316 450 OFFCURVE",
"302 461 OFFCURVE",
"275 461 CURVE SMOOTH",
"142 461 LINE",
"143 558 OFFCURVE",
"179 574 OFFCURVE",
"298 574 CURVE SMOOTH"
);
}
);
width = 334;
}
);
leftKerningGroup = f;
note = f;
rightKerningGroup = f;
unicode = 0066;
},
{
glyphname = g;
lastChange = "2016-07-31 02:28:38 +0000";
layers = (
{
layerId = "54C0795B-BA9F-4804-AEEC-86C9BCD12C1B";
paths = (
{
closed = 1;
nodes = (
"566 455 OFFCURVE",
"556 468 OFFCURVE",
"535 468 CURVE SMOOTH",
"514 468 OFFCURVE",
"504 455 OFFCURVE",
"504 428 CURVE SMOOTH",
"504 405 LINE",
"464 442 OFFCURVE",
"405 461 OFFCURVE",
"328 461 CURVE SMOOTH",
"299 461 LINE SMOOTH",
"134 461 OFFCURVE",
"62 424 OFFCURVE",
"62 284 CURVE SMOOTH",
"62 177 LINE SMOOTH",
"62 37 OFFCURVE",
"133 0 OFFCURVE",
"298 0 CURVE SMOOTH",
"504 0 LINE",
"504 -98 LINE SMOOTH",
"504 -135 OFFCURVE",
"498 -143 OFFCURVE",
"463 -143 CURVE SMOOTH",
"174 -143 LINE SMOOTH",
"135 -143 OFFCURVE",
"124 -131 OFFCURVE",
"124 -83 CURVE SMOOTH",
"124 -60 OFFCURVE",
"114 -48 OFFCURVE",
"93 -48 CURVE SMOOTH",
"72 -48 OFFCURVE",
"62 -63 OFFCURVE",
"62 -92 CURVE SMOOTH",
"62 -151 OFFCURVE",
"78 -205 OFFCURVE",
"167 -205 CURVE SMOOTH",
"470 -205 LINE SMOOTH",
"545 -205 OFFCURVE",
"566 -171 OFFCURVE",
"566 -82 CURVE SMOOTH",
"566 430 LINE SMOOTH"
);
},
{
closed = 1;
nodes = (
"159 62 OFFCURVE",
"124 76 OFFCURVE",
"124 179 CURVE SMOOTH",
"124 282 LINE SMOOTH",
"124 385 OFFCURVE",
"160 399 OFFCURVE",
"299 399 CURVE SMOOTH",
"328 399 LINE SMOOTH",
"445 399 OFFCURVE",
"504 344 OFFCURVE",
"504 233 CURVE SMOOTH",
"504 62 LINE",
"298 62 LINE SMOOTH"
);
}
);
width = 641;
}
);
leftKerningGroup = c;
note = g;
rightKerningGroup = g;
unicode = 0067;
},
{
glyphname = h;
lastChange = "2016-07-31 02:28:38 +0000";
layers = (
{
layerId = "54C0795B-BA9F-4804-AEEC-86C9BCD12C1B";
paths = (
{
closed = 1;
nodes = (
"481 399 OFFCURVE",
"517 385 OFFCURVE",
"517 282 CURVE SMOOTH",
"517 31 LINE SMOOTH",
"517 6 OFFCURVE",
"527 -7 OFFCURVE",
"548 -7 CURVE SMOOTH",
"569 -7 OFFCURVE",
"579 6 OFFCURVE",
"579 31 CURVE SMOOTH",
"579 284 LINE SMOOTH",
"579 424 OFFCURVE",
"507 461 OFFCURVE",
"342 461 CURVE SMOOTH",
"313 461 LINE SMOOTH",
"236 461 OFFCURVE",
"177 442 OFFCURVE",
"137 405 CURVE",
"137 602 LINE SMOOTH",
"137 629 OFFCURVE",
"126 643 OFFCURVE",
"104 643 CURVE SMOOTH",
"85 643 OFFCURVE",
"75 629 OFFCURVE",
"75 602 CURVE SMOOTH",
"75 31 LINE SMOOTH",
"75 6 OFFCURVE",
"85 -7 OFFCURVE",
"106 -7 CURVE SMOOTH",
"127 -7 OFFCURVE",
"137 6 OFFCURVE",
"137 31 CURVE SMOOTH",
"137 230 LINE SMOOTH",
"137 343 OFFCURVE",
"196 399 OFFCURVE",
"313 399 CURVE SMOOTH",
"342 399 LINE SMOOTH"
);
}
);
width = 648;
}
);
leftKerningGroup = h;
note = h;
rightKerningGroup = h;
unicode = 0068;
},
{
glyphname = i;
lastChange = "2016-07-31 02:28:38 +0000";
layers = (
{
layerId = "54C0795B-BA9F-4804-AEEC-86C9BCD12C1B";
paths = (
{
closed = 1;
nodes = (
"73 -5 OFFCURVE",
"83 -17 OFFCURVE",
"104 -17 CURVE SMOOTH",
"125 -17 OFFCURVE",
"135 -5 OFFCURVE",
"135 20 CURVE SMOOTH",
"135 440 LINE SMOOTH",
"135 465 OFFCURVE",
"125 478 OFFCURVE",
"104 478 CURVE SMOOTH",
"83 478 OFFCURVE",
"73 465 OFFCURVE",
"73 440 CURVE SMOOTH",
"73 20 LINE SMOOTH"
);
},
{
closed = 1;
nodes = (
"130 643 OFFCURVE",
"117 647 OFFCURVE",
"104 647 CURVE SMOOTH",
"77 647 OFFCURVE",
"48 629 OFFCURVE",
"48 602 CURVE SMOOTH",
"48 575 OFFCURVE",
"80 555 OFFCURVE",
"104 555 CURVE SMOOTH",
"128 555 OFFCURVE",
"160 576 OFFCURVE",
"160 601 CURVE SMOOTH",
"160 614 OFFCURVE",
"154 625 OFFCURVE",
"142 634 CURVE SMOOTH"
);
}
);
width = 208;
}
);
note = i;
rightKerningGroup = numbersign;
unicode = 0069;
},
{
glyphname = j;
lastChange = "2016-07-31 02:28:38 +0000";
layers = (
{
layerId = "54C0795B-BA9F-4804-AEEC-86C9BCD12C1B";
paths = (
{
closed = 1;
nodes = (
"131 643 OFFCURVE",
"119 647 OFFCURVE",
"106 647 CURVE SMOOTH",
"80 647 OFFCURVE",
"50 628 OFFCURVE",
"50 602 CURVE SMOOTH",
"50 576 OFFCURVE",
"81 555 OFFCURVE",
"106 555 CURVE SMOOTH",
"130 555 OFFCURVE",
"162 576 OFFCURVE",
"162 601 CURVE SMOOTH",
"162 614 OFFCURVE",
"156 625 OFFCURVE",
"144 634 CURVE"
);
},
{
closed = 1;
nodes = (
"137 454 OFFCURVE",
"127 468 OFFCURVE",
"106 468 CURVE SMOOTH",
"85 468 OFFCURVE",
"75 454 OFFCURVE",
"75 427 CURVE SMOOTH",
"75 0 LINE SMOOTH",
"75 -97 OFFCURVE",
"40 -113 OFFCURVE",
"-81 -113 CURVE SMOOTH",
"-108 -113 OFFCURVE",
"-122 -123 OFFCURVE",
"-122 -144 CURVE SMOOTH",
"-122 -165 OFFCURVE",
"-108 -175 OFFCURVE",
"-81 -175 CURVE SMOOTH",
"-9 -175 OFFCURVE",
"35 -169 OFFCURVE",
"76 -145 CURVE SMOOTH",
"117 -122 OFFCURVE",
"137 -73 OFFCURVE",
"137 0 CURVE SMOOTH",
"137 427 LINE SMOOTH"
);
}
);
width = 212;
}
);
note = j;
rightKerningGroup = numbersign;
unicode = 006A;
},
{
glyphname = k;
lastChange = "2016-07-31 02:28:38 +0000";
layers = (
{
layerId = "54C0795B-BA9F-4804-AEEC-86C9BCD12C1B";
paths = (
{
closed = 1;
nodes = (
"376 410 LINE SMOOTH",
"385 418 OFFCURVE",
"390 427 OFFCURVE",
"390 436 CURVE SMOOTH",
"390 454 OFFCURVE",
"375 466 OFFCURVE",
"358 466 CURVE SMOOTH",
"349 466 OFFCURVE",
"341 462 OFFCURVE",
"332 453 CURVE",
"137 276 LINE",
"137 605 LINE SMOOTH",
"137 630 OFFCURVE",
"127 643 OFFCURVE",
"106 643 CURVE SMOOTH",
"85 643 OFFCURVE",
"75 630 OFFCURVE",
"75 605 CURVE SMOOTH",
"75 28 LINE SMOOTH",
"75 5 OFFCURVE",
"85 -7 OFFCURVE",
"106 -7 CURVE SMOOTH",
"127 -7 OFFCURVE",
"137 5 OFFCURVE",
"137 30 CURVE SMOOTH",
"137 209 LINE",
"161 233 LINE",
"405 7 LINE SMOOTH",
"415 -2 OFFCURVE",
"424 -6 OFFCURVE",
"433 -6 CURVE SMOOTH",
"449 -6 OFFCURVE",
"462 9 OFFCURVE",
"462 27 CURVE SMOOTH",
"462 36 OFFCURVE",
"458 43 OFFCURVE",
"450 50 CURVE SMOOTH",
"205 264 LINE"
);
}
);
width = 476;
}
);
leftKerningGroup = h;
note = k;
rightKerningGroup = k;
unicode = 006B;
},
{
glyphname = l;
lastChange = "2016-07-31 02:28:38 +0000";
layers = (
{
layerId = "54C0795B-BA9F-4804-AEEC-86C9BCD12C1B";
paths = (
{
closed = 1;
nodes = (
"230 0 OFFCURVE",
"243 10 OFFCURVE",
"243 31 CURVE SMOOTH",
"243 52 OFFCURVE",
"230 62 OFFCURVE",
"203 62 CURVE SMOOTH",
"164 62 OFFCURVE",
"153 74 OFFCURVE",
"153 114 CURVE SMOOTH",
"153 603 LINE SMOOTH",
"153 630 OFFCURVE",
"143 643 OFFCURVE",
"122 643 CURVE SMOOTH",
"101 643 OFFCURVE",
"91 630 OFFCURVE",
"91 603 CURVE SMOOTH",
"91 130 LINE SMOOTH",
"91 37 OFFCURVE",
"115 0 OFFCURVE",
"196 0 CURVE SMOOTH",
"203 0 LINE SMOOTH"
);
}
);
width = 283;
}
);
leftKerningGroup = l;
note = l;
rightKerningGroup = l;
unicode = 006C;
},
{
glyphname = m;
lastChange = "2016-07-31 02:28:38 +0000";
layers = (
{
layerId = "54C0795B-BA9F-4804-AEEC-86C9BCD12C1B";
paths = (
{
closed = 1;
nodes = (
"386 365 OFFCURVE",
"395 333 OFFCURVE",
"395 282 CURVE SMOOTH",
"395 31 LINE SMOOTH",
"395 6 OFFCURVE",
"405 -7 OFFCURVE",
"426 -7 CURVE SMOOTH",
"447 -7 OFFCURVE",
"457 6 OFFCURVE",
"457 31 CURVE SMOOTH",
"457 230 LINE SMOOTH",
"457 339 OFFCURVE",
"504 399 OFFCURVE",
"597 399 CURVE SMOOTH",
"689 399 OFFCURVE",
"717 385 OFFCURVE",
"717 282 CURVE SMOOTH",
"717 31 LINE SMOOTH",
"717 6 OFFCURVE",
"727 -7 OFFCURVE",
"748 -7 CURVE SMOOTH",
"769 -7 OFFCURVE",
"779 6 OFFCURVE",
"779 31 CURVE SMOOTH",
"779 284 LINE SMOOTH",
"779 423 OFFCURVE",
"716 461 OFFCURVE",
"589 461 CURVE SMOOTH",
"525 461 OFFCURVE",
"475 436 OFFCURVE",
"439 386 CURVE",
"411 445 OFFCURVE",
"349 461 OFFCURVE",
"275 461 CURVE SMOOTH",
"201 461 OFFCURVE",
"171 445 OFFCURVE",
"136 406 CURVE",
"136 427 LINE SMOOTH",
"136 454 OFFCURVE",
"125 468 OFFCURVE",
"103 468 CURVE SMOOTH",
"84 468 OFFCURVE",
"74 455 OFFCURVE",
"74 429 CURVE SMOOTH",
"74 31 LINE SMOOTH",
"74 6 OFFCURVE",
"84 -7 OFFCURVE",
"105 -7 CURVE SMOOTH",
"126 -7 OFFCURVE",
"136 6 OFFCURVE",
"136 31 CURVE SMOOTH",
"136 230 LINE SMOOTH",
"136 343 OFFCURVE",
"181 399 OFFCURVE",
"272 399 CURVE SMOOTH",
"319 398 OFFCURVE",
"351 391 OFFCURVE",
"368 378 CURVE SMOOTH"
);
}
);
width = 850;
}
);
leftKerningGroup = m;
note = m;
rightKerningGroup = h;
unicode = 006D;
},
{
glyphname = n;
lastChange = "2016-07-31 02:28:38 +0000";
layers = (
{
layerId = "54C0795B-BA9F-4804-AEEC-86C9BCD12C1B";
paths = (
{
closed = 1;
nodes = (
"480 399 OFFCURVE",
"516 385 OFFCURVE",
"516 282 CURVE SMOOTH",
"516 31 LINE SMOOTH",
"516 6 OFFCURVE",
"526 -7 OFFCURVE",
"547 -7 CURVE SMOOTH",
"568 -7 OFFCURVE",
"578 6 OFFCURVE",
"578 31 CURVE SMOOTH",
"578 284 LINE SMOOTH",
"578 424 OFFCURVE",
"506 461 OFFCURVE",
"341 461 CURVE SMOOTH",
"312 461 LINE SMOOTH",
"235 461 OFFCURVE",
"176 442 OFFCURVE",
"136 405 CURVE",
"136 427 LINE SMOOTH",
"136 454 OFFCURVE",
"125 468 OFFCURVE",
"103 468 CURVE SMOOTH",
"84 468 OFFCURVE",
"74 455 OFFCURVE",
"74 429 CURVE SMOOTH",
"74 31 LINE SMOOTH",
"74 6 OFFCURVE",
"84 -7 OFFCURVE",
"105 -7 CURVE SMOOTH",
"126 -7 OFFCURVE",
"136 6 OFFCURVE",
"136 31 CURVE SMOOTH",
"136 230 LINE SMOOTH",
"136 343 OFFCURVE",
"195 399 OFFCURVE",
"312 399 CURVE SMOOTH",
"341 399 LINE SMOOTH"
);
}
);
width = 647;
}
);
leftKerningGroup = m;
note = n;
rightKerningGroup = h;
unicode = 006E;
},
{
glyphname = o;
lastChange = "2016-07-31 02:28:38 +0000";
layers = (
{
layerId = "54C0795B-BA9F-4804-AEEC-86C9BCD12C1B";
paths = (
{
closed = 1;
nodes = (
"494 0 OFFCURVE",
"566 37 OFFCURVE",
"566 177 CURVE SMOOTH",
"566 284 LINE SMOOTH",
"566 424 OFFCURVE",
"494 461 OFFCURVE",
"329 461 CURVE SMOOTH",
"300 461 LINE SMOOTH",
"133 461 OFFCURVE",
"62 424 OFFCURVE",
"62 284 CURVE SMOOTH",
"62 177 LINE SMOOTH",
"62 37 OFFCURVE",
"133 0 OFFCURVE",
"300 0 CURVE SMOOTH",
"329 0 LINE SMOOTH"
);
},
{
closed = 1;
nodes = (
"159 62 OFFCURVE",
"124 78 OFFCURVE",
"124 179 CURVE SMOOTH",
"124 282 LINE SMOOTH",
"124 383 OFFCURVE",
"159 399 OFFCURVE",
"300 399 CURVE SMOOTH",
"329 399 LINE SMOOTH",
"468 399 OFFCURVE",
"504 385 OFFCURVE",
"504 282 CURVE SMOOTH",
"504 179 LINE SMOOTH",
"504 76 OFFCURVE",
"468 62 OFFCURVE",
"329 62 CURVE SMOOTH",
"300 62 LINE SMOOTH"
);
}
);
width = 628;
}
);
leftKerningGroup = c;
note = o;
rightKerningGroup = b;
unicode = 006F;
},
{
glyphname = p;
lastChange = "2016-07-31 02:28:38 +0000";
layers = (
{
layerId = "54C0795B-BA9F-4804-AEEC-86C9BCD12C1B";
paths = (
{
closed = 1;
nodes = (
"517 76 OFFCURVE",
"481 62 OFFCURVE",
"344 62 CURVE SMOOTH",
"137 62 LINE",
"137 232 LINE SMOOTH",
"137 343 OFFCURVE",
"196 399 OFFCURVE",
"313 399 CURVE SMOOTH",
"342 399 LINE SMOOTH",
"481 399 OFFCURVE",
"517 385 OFFCURVE",
"517 282 CURVE SMOOTH",
"517 179 LINE SMOOTH"
);
},
{
closed = 1;
nodes = (
"579 424 OFFCURVE",
"507 461 OFFCURVE",
"342 461 CURVE SMOOTH",
"313 461 LINE SMOOTH",
"236 461 OFFCURVE",
"177 442 OFFCURVE",
"137 405 CURVE",
"137 428 LINE SMOOTH",
"137 455 OFFCURVE",
"127 468 OFFCURVE",
"106 468 CURVE SMOOTH",
"85 468 OFFCURVE",
"75 455 OFFCURVE",
"75 430 CURVE SMOOTH",
"75 -142 LINE SMOOTH",
"75 -169 OFFCURVE",
"85 -182 OFFCURVE",
"104 -182 CURVE SMOOTH",
"126 -182 OFFCURVE",
"137 -169 OFFCURVE",
"137 -142 CURVE SMOOTH",
"137 0 LINE",
"344 0 LINE SMOOTH",
"508 0 OFFCURVE",
"579 37 OFFCURVE",
"579 177 CURVE SMOOTH",
"579 284 LINE SMOOTH"
);
}
);
width = 641;
}
);
leftKerningGroup = m;
note = p;
rightKerningGroup = b;
unicode = 0070;
},
{
glyphname = q;
lastChange = "2016-07-31 02:28:38 +0000";
layers = (
{
layerId = "54C0795B-BA9F-4804-AEEC-86C9BCD12C1B";
paths = (
{
closed = 1;
nodes = (
"124 383 OFFCURVE",
"159 399 OFFCURVE",
"300 399 CURVE SMOOTH",
"329 399 LINE SMOOTH",
"446 399 OFFCURVE",
"504 343 OFFCURVE",
"504 232 CURVE SMOOTH",
"504 62 LINE",
"298 62 LINE SMOOTH",
"159 62 OFFCURVE",
"124 76 OFFCURVE",
"124 179 CURVE SMOOTH",
"124 282 LINE SMOOTH"
);
},
{
closed = 1;
nodes = (
"62 37 OFFCURVE",
"133 0 OFFCURVE",
"298 0 CURVE SMOOTH",
"504 0 LINE",
"504 -142 LINE SMOOTH",
"504 -169 OFFCURVE",
"515 -182 OFFCURVE",
"537 -182 CURVE SMOOTH",
"556 -182 OFFCURVE",
"566 -169 OFFCURVE",
"566 -142 CURVE SMOOTH",
"566 430 LINE SMOOTH",
"566 455 OFFCURVE",
"556 468 OFFCURVE",
"535 468 CURVE SMOOTH",
"514 468 OFFCURVE",
"504 455 OFFCURVE",
"504 428 CURVE SMOOTH",
"504 405 LINE",
"465 442 OFFCURVE",
"406 461 OFFCURVE",
"329 461 CURVE SMOOTH",
"300 461 LINE SMOOTH",
"133 461 OFFCURVE",
"62 424 OFFCURVE",
"62 284 CURVE SMOOTH",
"62 177 LINE SMOOTH"
);
}
);
width = 641;
}
);
leftKerningGroup = c;
note = q;
rightKerningGroup = g;
unicode = 0071;
},
{
glyphname = r;
lastChange = "2016-07-31 02:28:38 +0000";
layers = (
{
layerId = "54C0795B-BA9F-4804-AEEC-86C9BCD12C1B";
paths = (
{
closed = 1;
nodes = (
"365 399 OFFCURVE",
"378 409 OFFCURVE",
"378 430 CURVE SMOOTH",
"378 451 OFFCURVE",
"365 461 OFFCURVE",
"338 461 CURVE SMOOTH",
"292 461 LINE SMOOTH",
"228 461 OFFCURVE",
"176 442 OFFCURVE",
"136 405 CURVE",
"136 427 LINE SMOOTH",
"136 454 OFFCURVE",
"125 468 OFFCURVE",
"103 468 CURVE SMOOTH",
"84 468 OFFCURVE",
"74 455 OFFCURVE",
"74 429 CURVE SMOOTH",
"74 31 LINE SMOOTH",
"74 6 OFFCURVE",
"84 -7 OFFCURVE",
"105 -7 CURVE SMOOTH",
"126 -7 OFFCURVE",
"136 6 OFFCURVE",
"136 31 CURVE SMOOTH",
"136 230 LINE SMOOTH",
"136 339 OFFCURVE",
"191 399 OFFCURVE",
"292 399 CURVE SMOOTH",
"338 399 LINE SMOOTH"
);
}
);
width = 395;
}
);
leftKerningGroup = m;
note = r;
rightKerningGroup = r;
unicode = 0072;
},
{
glyphname = s;
lastChange = "2016-07-31 02:28:38 +0000";
layers = (
{
layerId = "54C0795B-BA9F-4804-AEEC-86C9BCD12C1B";
paths = (
{
closed = 1;
nodes = (
"506 0 OFFCURVE",
"546 46 OFFCURVE",
"546 127 CURVE SMOOTH",
"546 208 OFFCURVE",
"509 267 OFFCURVE",
"413 267 CURVE SMOOTH",
"176 267 LINE SMOOTH",
"144 267 OFFCURVE",
"122 292 OFFCURVE",
"122 337 CURVE SMOOTH",
"122 378 OFFCURVE",
"140 399 OFFCURVE",
"176 399 CURVE SMOOTH",
"432 399 LINE SMOOTH",
"471 399 OFFCURVE",
"482 387 OFFCURVE",
"482 340 CURVE SMOOTH",
"482 316 OFFCURVE",
"492 304 OFFCURVE",
"513 304 CURVE SMOOTH",
"534 304 OFFCURVE",
"544 319 OFFCURVE",
"544 348 CURVE SMOOTH",
"544 407 OFFCURVE",
"528 461 OFFCURVE",
"439 461 CURVE SMOOTH",
"214 461 LINE SMOOTH",
"99 461 OFFCURVE",
"60 418 OFFCURVE",
"60 338 CURVE SMOOTH",
"60 257 OFFCURVE",
"101 205 OFFCURVE",
"194 205 CURVE SMOOTH",
"430 205 LINE SMOOTH",
"462 205 OFFCURVE",
"484 174 OFFCURVE",
"484 129 CURVE SMOOTH",
"484 84 OFFCURVE",
"466 62 OFFCURVE",
"430 62 CURVE SMOOTH",
"172 62 LINE SMOOTH",
"133 62 OFFCURVE",
"122 75 OFFCURVE",
"122 122 CURVE SMOOTH",
"122 145 OFFCURVE",
"112 157 OFFCURVE",
"91 157 CURVE SMOOTH",
"70 157 OFFCURVE",
"60 142 OFFCURVE",
"60 111 CURVE SMOOTH",
"60 49 OFFCURVE",
"81 0 OFFCURVE",
"165 0 CURVE SMOOTH",
"393 0 LINE SMOOTH"
);
}
);
width = 606;
}
);
leftKerningGroup = s;
note = s;
rightKerningGroup = s;
unicode = 0073;
},
{
glyphname = t;
lastChange = "2016-07-31 02:28:38 +0000";
layers = (
{
layerId = "54C0795B-BA9F-4804-AEEC-86C9BCD12C1B";
paths = (
{
closed = 1;
nodes = (
"273 399 LINE SMOOTH",
"300 399 OFFCURVE",
"314 409 OFFCURVE",
"314 428 CURVE SMOOTH",
"314 450 OFFCURVE",
"300 461 OFFCURVE",
"273 461 CURVE SMOOTH",
"140 461 LINE",
"140 560 LINE SMOOTH",
"140 587 OFFCURVE",
"129 601 OFFCURVE",
"107 601 CURVE SMOOTH",
"88 601 OFFCURVE",
"78 587 OFFCURVE",
"78 560 CURVE SMOOTH",
"78 461 LINE",
"57 458 OFFCURVE",
"47 449 OFFCURVE",
"47 433 CURVE SMOOTH",
"47 414 OFFCURVE",
"57 403 OFFCURVE",
"78 402 CURVE",
"78 177 LINE SMOOTH",
"78 38 OFFCURVE",
"149 0 OFFCURVE",
"296 0 CURVE SMOOTH",
"323 0 OFFCURVE",
"336 11 OFFCURVE",
"336 33 CURVE SMOOTH",
"336 52 OFFCURVE",
"323 62 OFFCURVE",
"296 62 CURVE SMOOTH",
"176 62 OFFCURVE",
"140 78 OFFCURVE",
"140 179 CURVE SMOOTH",
"140 399 LINE"
);
}
);
width = 358;
}
);
leftKerningGroup = t;
note = t;
rightKerningGroup = t;
unicode = 0074;
},
{
glyphname = u;
lastChange = "2016-07-31 02:28:38 +0000";
layers = (
{
layerId = "54C0795B-BA9F-4804-AEEC-86C9BCD12C1B";
paths = (
{
closed = 1;
nodes = (
"167 62 OFFCURVE",
"131 76 OFFCURVE",
"131 179 CURVE SMOOTH",
"131 430 LINE SMOOTH",
"131 455 OFFCURVE",
"121 468 OFFCURVE",
"100 468 CURVE SMOOTH",
"79 468 OFFCURVE",
"69 455 OFFCURVE",
"69 430 CURVE SMOOTH",
"69 177 LINE SMOOTH",
"69 37 OFFCURVE",
"141 0 OFFCURVE",
"306 0 CURVE SMOOTH",
"335 0 LINE SMOOTH",
"412 0 OFFCURVE",
"471 19 OFFCURVE",
"511 56 CURVE",
"511 34 LINE SMOOTH",
"511 7 OFFCURVE",
"522 -7 OFFCURVE",
"544 -7 CURVE SMOOTH",
"563 -7 OFFCURVE",
"573 6 OFFCURVE",
"573 32 CURVE SMOOTH",
"573 430 LINE SMOOTH",
"573 455 OFFCURVE",
"563 468 OFFCURVE",
"542 468 CURVE SMOOTH",
"521 468 OFFCURVE",
"511 455 OFFCURVE",
"511 430 CURVE SMOOTH",
"511 231 LINE SMOOTH",
"511 118 OFFCURVE",
"452 62 OFFCURVE",
"335 62 CURVE SMOOTH",
"306 62 LINE SMOOTH"
);
}
);
width = 647;
}
);
leftKerningGroup = u;
note = u;
rightKerningGroup = g;
unicode = 0075;
},
{
glyphname = v;
lastChange = "2016-07-31 02:28:38 +0000";
layers = (
{
layerId = "54C0795B-BA9F-4804-AEEC-86C9BCD12C1B";
paths = (
{
closed = 1;
nodes = (
"489 434 LINE",
"492 440 OFFCURVE",
"493 446 OFFCURVE",
"493 451 CURVE SMOOTH",
"493 469 OFFCURVE",
"483 478 OFFCURVE",
"464 478 CURVE SMOOTH",
"449 478 OFFCURVE",
"438 470 OFFCURVE",
"431 454 CURVE SMOOTH",
"258 63 LINE",
"91 453 LINE",
"82 470 OFFCURVE",
"71 478 OFFCURVE",
"58 478 CURVE SMOOTH",
"39 478 OFFCURVE",
"29 469 OFFCURVE",
"29 450 CURVE SMOOTH",
"29 446 OFFCURVE",
"30 441 OFFCURVE",
"33 434 CURVE SMOOTH",
"213 0 LINE",
"297 0 LINE"
);
}
);
width = 521;
}
);
leftKerningGroup = v;
note = v;
rightKerningGroup = v;
unicode = 0076;
},
{
glyphname = w;
lastChange = "2016-07-31 02:28:38 +0000";
layers = (
{
layerId = "54C0795B-BA9F-4804-AEEC-86C9BCD12C1B";
paths = (
{
closed = 1;
nodes = (
"782 438 OFFCURVE",
"783 444 OFFCURVE",
"783 448 CURVE",
"782 465 OFFCURVE",
"773 473 OFFCURVE",
"756 473 CURVE SMOOTH",
"739 473 OFFCURVE",
"727 465 OFFCURVE",
"721 448 CURVE SMOOTH",
"581 58 LINE",
"442 443 LINE",
"437 459 OFFCURVE",
"426 467 OFFCURVE",
"409 467 CURVE SMOOTH",
"392 467 OFFCURVE",
"381 459 OFFCURVE",
"374 443 CURVE",
"229 58 LINE",
"94 448 LINE",
"87 465 OFFCURVE",
"75 473 OFFCURVE",
"58 473 CURVE SMOOTH",
"41 473 OFFCURVE",
"32 465 OFFCURVE",
"32 448 CURVE SMOOTH",
"32 444 OFFCURVE",
"33 438 OFFCURVE",
"36 430 CURVE SMOOTH",
"183 0 LINE",
"269 0 LINE",
"408 364 LINE",
"536 0 LINE",
"623 0 LINE",
"779 430 LINE SMOOTH"
);
}
);
width = 814;
}
);
leftKerningGroup = w;
note = w;
rightKerningGroup = w;
unicode = 0077;
},
{
glyphname = x;
lastChange = "2016-07-31 02:28:38 +0000";
layers = (
{
layerId = "54C0795B-BA9F-4804-AEEC-86C9BCD12C1B";
paths = (
{
closed = 1;
nodes = (
"483 418 LINE",
"490 427 OFFCURVE",
"494 435 OFFCURVE",
"494 444 CURVE SMOOTH",
"494 460 OFFCURVE",
"480 472 OFFCURVE",
"462 472 CURVE SMOOTH",
"453 472 OFFCURVE",
"444 468 OFFCURVE",
"436 460 CURVE",
"269 271 LINE",
"101 460 LINE",
"93 468 OFFCURVE",
"84 472 OFFCURVE",
"75 472 CURVE SMOOTH",
"56 472 OFFCURVE",
"42 460 OFFCURVE",
"42 444 CURVE SMOOTH",
"42 435 OFFCURVE",
"46 427 OFFCURVE",
"53 418 CURVE",
"224 230 LINE",
"53 43 LINE",
"46 36 OFFCURVE",
"42 28 OFFCURVE",
"42 19 CURVE SMOOTH",
"42 1 OFFCURVE",
"56 -11 OFFCURVE",
"75 -11 CURVE SMOOTH",
"84 -11 OFFCURVE",
"93 -7 OFFCURVE",
"101 1 CURVE",
"269 190 LINE",
"436 1 LINE",
"444 -7 OFFCURVE",
"453 -11 OFFCURVE",
"462 -11 CURVE SMOOTH",
"480 -11 OFFCURVE",
"494 1 OFFCURVE",
"494 19 CURVE SMOOTH",
"494 28 OFFCURVE",
"490 36 OFFCURVE",
"483 43 CURVE",
"312 230 LINE"
);
}
);
width = 536;
}
);
leftKerningGroup = x;
note = x;
rightKerningGroup = x;
unicode = 0078;
},
{
glyphname = y;
lastChange = "2016-07-31 02:28:38 +0000";
layers = (
{
layerId = "54C0795B-BA9F-4804-AEEC-86C9BCD12C1B";
paths = (
{
closed = 1;
nodes = (
"573 455 OFFCURVE",
"563 468 OFFCURVE",
"542 468 CURVE SMOOTH",
"521 468 OFFCURVE",
"511 455 OFFCURVE",
"511 430 CURVE SMOOTH",
"511 231 LINE SMOOTH",
"511 118 OFFCURVE",
"452 62 OFFCURVE",
"335 62 CURVE SMOOTH",
"306 62 LINE SMOOTH",
"167 62 OFFCURVE",
"131 76 OFFCURVE",
"131 179 CURVE SMOOTH",
"131 430 LINE SMOOTH",
"131 455 OFFCURVE",
"121 468 OFFCURVE",
"100 468 CURVE SMOOTH",
"79 468 OFFCURVE",
"69 455 OFFCURVE",
"69 430 CURVE SMOOTH",
"69 177 LINE SMOOTH",
"69 37 OFFCURVE",
"141 0 OFFCURVE",
"306 0 CURVE SMOOTH",
"335 0 LINE SMOOTH",
"412 0 OFFCURVE",
"471 19 OFFCURVE",
"511 56 CURVE",
"511 -98 LINE SMOOTH",
"511 -135 OFFCURVE",
"505 -143 OFFCURVE",
"470 -143 CURVE SMOOTH",
"181 -143 LINE SMOOTH",
"142 -143 OFFCURVE",
"131 -131 OFFCURVE",
"131 -83 CURVE SMOOTH",
"131 -60 OFFCURVE",
"121 -48 OFFCURVE",
"100 -48 CURVE SMOOTH",
"79 -48 OFFCURVE",
"69 -63 OFFCURVE",
"69 -92 CURVE SMOOTH",
"69 -151 OFFCURVE",
"85 -205 OFFCURVE",
"174 -205 CURVE SMOOTH",
"477 -205 LINE SMOOTH",
"552 -205 OFFCURVE",
"573 -171 OFFCURVE",
"573 -82 CURVE SMOOTH",
"573 430 LINE SMOOTH"
);
}
);
width = 648;
}
);
leftKerningGroup = u;
note = y;
rightKerningGroup = g;
unicode = 0079;
},
{
glyphname = z;
lastChange = "2016-07-31 02:28:38 +0000";
layers = (
{
layerId = "54C0795B-BA9F-4804-AEEC-86C9BCD12C1B";
paths = (
{
closed = 1;
nodes = (
"500 461 LINE",
"164 461 LINE SMOOTH",
"83 461 OFFCURVE",
"59 424 OFFCURVE",
"59 327 CURVE SMOOTH",
"59 300 OFFCURVE",
"69 286 OFFCURVE",
"90 286 CURVE SMOOTH",
"111 286 OFFCURVE",
"121 299 OFFCURVE",
"121 326 CURVE SMOOTH",
"121 379 OFFCURVE",
"128 399 OFFCURVE",
"171 399 CURVE SMOOTH",
"419 399 LINE",
"59 69 LINE",
"59 0 LINE",
"416 0 LINE SMOOTH",
"497 0 OFFCURVE",
"521 38 OFFCURVE",
"521 134 CURVE SMOOTH",
"521 161 OFFCURVE",
"511 175 OFFCURVE",
"490 175 CURVE SMOOTH",
"469 175 OFFCURVE",
"459 162 OFFCURVE",
"459 135 CURVE SMOOTH",
"459 82 OFFCURVE",
"452 62 OFFCURVE",
"408 62 CURVE SMOOTH",
"143 62 LINE",
"500 389 LINE"
);
}
);
width = 573;
}
);
leftKerningGroup = z;
note = z;
rightKerningGroup = z;
unicode = 007A;
},
{
glyphname = braceleft;
lastChange = "2016-07-31 02:28:38 +0000";
layers = (
{
layerId = "54C0795B-BA9F-4804-AEEC-86C9BCD12C1B";
paths = (
{
closed = 1;
nodes = (
"71 293 OFFCURVE",
"112 262 OFFCURVE",
"112 238 CURVE SMOOTH",
"112 226 OFFCURVE",
"107 205 OFFCURVE",
"98 174 CURVE SMOOTH",
"89 143 OFFCURVE",
"84 121 OFFCURVE",
"84 108 CURVE SMOOTH",
"84 37 OFFCURVE",
"97 -9 OFFCURVE",
"124 -28 CURVE SMOOTH",
"152 -48 OFFCURVE",
"176 -52 OFFCURVE",
"224 -52 CURVE",
"224 10 LINE",
"152 10 OFFCURVE",
"146 15 OFFCURVE",
"146 108 CURVE SMOOTH",
"146 115 OFFCURVE",
"151 133 OFFCURVE",
"160 164 CURVE SMOOTH",
"169 194 OFFCURVE",
"174 218 OFFCURVE",
"174 236 CURVE SMOOTH",
"174 264 OFFCURVE",
"152 291 OFFCURVE",
"108 317 CURVE",
"152 346 OFFCURVE",
"174 373 OFFCURVE",
"174 400 CURVE SMOOTH",
"174 417 OFFCURVE",
"169 442 OFFCURVE",
"160 473 CURVE SMOOTH",
"151 504 OFFCURVE",
"146 523 OFFCURVE",
"146 528 CURVE SMOOTH",
"146 620 OFFCURVE",
"152 626 OFFCURVE",
"224 626 CURVE",
"224 688 LINE",
"176 688 OFFCURVE",
"152 684 OFFCURVE",
"124 664 CURVE SMOOTH",
"97 645 OFFCURVE",
"84 599 OFFCURVE",
"84 528 CURVE SMOOTH",
"84 515 OFFCURVE",
"89 494 OFFCURVE",
"98 463 CURVE SMOOTH",
"107 432 OFFCURVE",
"112 410 OFFCURVE",
"112 398 CURVE SMOOTH",
"112 374 OFFCURVE",
"67 339 OFFCURVE",
"39 324 CURVE",
"39 310 LINE"
);
}
);
width = 275;
}
);
note = braceleft;
rightKerningGroup = braceleft;
unicode = 007B;
},
{
glyphname = bar;
lastChange = "2016-07-31 02:28:38 +0000";
layers = (
{
layerId = "54C0795B-BA9F-4804-AEEC-86C9BCD12C1B";
paths = (
{
closed = 1;
nodes = (
"143 631 OFFCURVE",
"133 643 OFFCURVE",
"112 643 CURVE SMOOTH",
"91 643 OFFCURVE",
"81 631 OFFCURVE",
"81 606 CURVE SMOOTH",
"81 29 LINE SMOOTH",
"81 5 OFFCURVE",
"91 -7 OFFCURVE",
"112 -7 CURVE SMOOTH",
"133 -7 OFFCURVE",
"143 5 OFFCURVE",
"143 29 CURVE SMOOTH",
"143 606 LINE SMOOTH"
);
}
);
width = 224;
}
);
note = bar;
rightKerningGroup = numbersign;
unicode = 007C;
},
{
glyphname = braceright;
lastChange = "2016-07-31 02:28:38 +0000";
layers = (
{
layerId = "54C0795B-BA9F-4804-AEEC-86C9BCD12C1B";
paths = (
{
closed = 1;
nodes = (
"208 339 OFFCURVE",
"163 374 OFFCURVE",
"163 398 CURVE SMOOTH",
"163 410 OFFCURVE",
"168 432 OFFCURVE",
"177 463 CURVE SMOOTH",
"186 494 OFFCURVE",
"191 515 OFFCURVE",
"191 528 CURVE SMOOTH",
"191 599 OFFCURVE",
"178 645 OFFCURVE",
"151 664 CURVE SMOOTH",
"123 684 OFFCURVE",
"99 688 OFFCURVE",
"51 688 CURVE",
"51 626 LINE",
"123 626 OFFCURVE",
"129 620 OFFCURVE",
"129 528 CURVE SMOOTH",
"129 523 OFFCURVE",
"124 504 OFFCURVE",
"115 473 CURVE SMOOTH",
"106 442 OFFCURVE",
"101 417 OFFCURVE",
"101 400 CURVE SMOOTH",
"101 373 OFFCURVE",
"123 346 OFFCURVE",
"167 317 CURVE",
"123 291 OFFCURVE",
"101 264 OFFCURVE",
"101 236 CURVE SMOOTH",
"101 218 OFFCURVE",
"106 194 OFFCURVE",
"115 164 CURVE SMOOTH",
"124 133 OFFCURVE",
"129 115 OFFCURVE",
"129 108 CURVE SMOOTH",
"129 15 OFFCURVE",
"123 10 OFFCURVE",
"51 10 CURVE",
"51 -52 LINE",
"99 -52 OFFCURVE",
"123 -48 OFFCURVE",
"151 -28 CURVE SMOOTH",
"178 -9 OFFCURVE",
"191 37 OFFCURVE",
"191 108 CURVE SMOOTH",
"191 121 OFFCURVE",
"186 143 OFFCURVE",
"177 174 CURVE SMOOTH",
"168 205 OFFCURVE",
"163 226 OFFCURVE",
"163 238 CURVE SMOOTH",
"163 262 OFFCURVE",
"204 293 OFFCURVE",
"236 310 CURVE",
"236 324 LINE"
);
}
);
width = 275;
}
);
leftKerningGroup = braceright;
note = braceright;
rightKerningGroup = numbersign;
unicode = 007D;
},
{
glyphname = asciitilde;
lastChange = "2016-07-31 02:28:38 +0000";
layers = (
{
layerId = "54C0795B-BA9F-4804-AEEC-86C9BCD12C1B";
paths = (
{
closed = 1;
nodes = (
"165 278 OFFCURVE",
"161 279 OFFCURVE",
"154 279 CURVE SMOOTH",
"147 279 OFFCURVE",
"140 276 OFFCURVE",
"131 269 CURVE",
"86 231 LINE SMOOTH",
"75 222 OFFCURVE",
"70 213 OFFCURVE",
"70 203 CURVE SMOOTH",
"70 183 OFFCURVE",
"85 172 OFFCURVE",
"102 172 CURVE SMOOTH",
"111 172 OFFCURVE",
"118 175 OFFCURVE",
"125 182 CURVE",
"156 210 LINE",
"157 211 OFFCURVE",
"159 212 OFFCURVE",
"161 212 CURVE SMOOTH",
"163 212 OFFCURVE",
"166 211 OFFCURVE",
"169 210 CURVE",
"263 174 LINE",
"265 173 OFFCURVE",
"269 172 OFFCURVE",
"276 172 CURVE SMOOTH",
"283 172 OFFCURVE",
"291 175 OFFCURVE",
"300 182 CURVE",
"345 220 LINE SMOOTH",
"356 229 OFFCURVE",
"361 238 OFFCURVE",
"361 248 CURVE SMOOTH",
"361 268 OFFCURVE",
"346 279 OFFCURVE",
"329 279 CURVE SMOOTH",
"320 279 OFFCURVE",
"313 276 OFFCURVE",
"306 269 CURVE",
"275 241 LINE",
"274 240 OFFCURVE",
"272 239 OFFCURVE",
"270 239 CURVE SMOOTH",
"268 239 OFFCURVE",
"265 240 OFFCURVE",
"262 241 CURVE",
"168 277 LINE"
);
}
);
width = 431;
}
);
note = asciitilde;
rightKerningGroup = numbersign;
unicode = 007E;
},
{
glyphname = exclamdown;
lastChange = "2016-07-31 02:28:38 +0000";
layers = (
{
layerId = "54C0795B-BA9F-4804-AEEC-86C9BCD12C1B";
paths = (
{
closed = 1;
nodes = (
"87 -163 OFFCURVE",
"97 -175 OFFCURVE",
"118 -175 CURVE SMOOTH",
"139 -175 OFFCURVE",
"149 -163 OFFCURVE",
"149 -138 CURVE SMOOTH",
"149 282 LINE SMOOTH",
"149 307 OFFCURVE",
"139 320 OFFCURVE",
"118 320 CURVE SMOOTH",
"97 320 OFFCURVE",
"87 307 OFFCURVE",
"87 282 CURVE SMOOTH",
"87 -138 LINE SMOOTH"
);
},
{
closed = 1;
nodes = (
"92 496 OFFCURVE",
"61 475 OFFCURVE",
"61 450 CURVE SMOOTH",
"61 425 OFFCURVE",
"93 404 OFFCURVE",
"118 404 CURVE SMOOTH",
"142 404 OFFCURVE",
"174 425 OFFCURVE",
"174 451 CURVE SMOOTH",
"174 477 OFFCURVE",
"144 496 OFFCURVE",
"118 496 CURVE SMOOTH"
);
}
);
width = 236;
}
);
note = exclamdown;
rightKerningGroup = exclamdown;
unicode = 00A1;
},
{
glyphname = cent;
lastChange = "2016-07-31 02:28:38 +0000";
layers = (
{
layerId = "54C0795B-BA9F-4804-AEEC-86C9BCD12C1B";
paths = (
{
closed = 1;
nodes = (
"218 -5 OFFCURVE",
"228 -17 OFFCURVE",
"249 -17 CURVE SMOOTH",
"270 -17 OFFCURVE",
"280 -5 OFFCURVE",
"280 20 CURVE SMOOTH",
"280 113 LINE",
"325 113 LINE SMOOTH",
"409 113 OFFCURVE",
"431 162 OFFCURVE",
"431 224 CURVE SMOOTH",
"431 255 OFFCURVE",
"421 270 OFFCURVE",
"400 270 CURVE SMOOTH",
"379 270 OFFCURVE",
"369 258 OFFCURVE",
"369 235 CURVE SMOOTH",
"369 187 OFFCURVE",
"358 175 OFFCURVE",
"318 175 CURVE SMOOTH",
"280 175 LINE",
"280 463 LINE",
"320 463 LINE SMOOTH",
"359 463 OFFCURVE",
"369 452 OFFCURVE",
"369 404 CURVE SMOOTH",
"369 380 OFFCURVE",
"379 368 OFFCURVE",
"400 368 CURVE SMOOTH",
"421 368 OFFCURVE",
"431 383 OFFCURVE",
"431 413 CURVE SMOOTH",
"431 472 OFFCURVE",
"415 525 OFFCURVE",
"330 525 CURVE SMOOTH",
"329 525 OFFCURVE",
"328 525 OFFCURVE",
"327 525 CURVE SMOOTH",
"280 525 LINE",
"280 615 LINE SMOOTH",
"280 640 OFFCURVE",
"270 653 OFFCURVE",
"249 653 CURVE SMOOTH",
"228 653 OFFCURVE",
"218 640 OFFCURVE",
"218 615 CURVE SMOOTH",
"218 524 LINE",
"107 516 OFFCURVE",
"49 468 OFFCURVE",
"49 340 CURVE SMOOTH",
"49 298 LINE SMOOTH",
"49 169 OFFCURVE",
"105 121 OFFCURVE",
"218 113 CURVE",
"218 20 LINE SMOOTH"
);
},
{
closed = 1;
nodes = (
"138 181 OFFCURVE",
"111 206 OFFCURVE",
"111 298 CURVE SMOOTH",
"111 340 LINE SMOOTH",
"111 431 OFFCURVE",
"141 457 OFFCURVE",
"218 462 CURVE",
"218 176 LINE"
);
}
);
width = 488;
}
);
note = cent;
rightKerningGroup = numbersign;
unicode = 00A2;
},
{
glyphname = sterling;
lastChange = "2016-07-31 02:28:38 +0000";
layers = (
{
layerId = "54C0795B-BA9F-4804-AEEC-86C9BCD12C1B";
paths = (
{
closed = 1;
nodes = (
"66 31 OFFCURVE",
"66 28 OFFCURVE",
"66 24 CURVE SMOOTH",
"66 1 OFFCURVE",
"75 -10 OFFCURVE",
"93 -10 CURVE SMOOTH",
"416 -10 LINE SMOOTH",
"441 -10 OFFCURVE",
"454 0 OFFCURVE",
"454 21 CURVE SMOOTH",
"454 42 OFFCURVE",
"441 52 OFFCURVE",
"416 52 CURVE SMOOTH",
"130 52 LINE",
"154 312 LINE",
"187 312 LINE SMOOTH",
"212 312 OFFCURVE",
"224 322 OFFCURVE",
"224 343 CURVE SMOOTH",
"224 364 OFFCURVE",
"212 374 OFFCURVE",
"187 374 CURVE SMOOTH",
"158 374 LINE",
"167 468 LINE SMOOTH",
"176 569 OFFCURVE",
"213 591 OFFCURVE",
"288 591 CURVE SMOOTH",
"363 591 OFFCURVE",
"390 577 OFFCURVE",
"390 501 CURVE SMOOTH",
"390 476 OFFCURVE",
"400 463 OFFCURVE",
"421 463 CURVE SMOOTH",
"442 463 OFFCURVE",
"452 476 OFFCURVE",
"452 501 CURVE SMOOTH",
"452 618 OFFCURVE",
"392 653 OFFCURVE",
"295 653 CURVE SMOOTH",
"198 653 OFFCURVE",
"118 623 OFFCURVE",
"105 468 CURVE SMOOTH",
"67 33 LINE"
);
}
);
width = 512;
}
);
note = sterling;
rightKerningGroup = numbersign;
unicode = 00A3;
},
{
glyphname = currency;
lastChange = "2016-07-31 02:28:38 +0000";
layers = (
{
layerId = "54C0795B-BA9F-4804-AEEC-86C9BCD12C1B";
paths = (
{
closed = 1;
nodes = (
"204 320 OFFCURVE",
"228 330 OFFCURVE",
"255 330 CURVE SMOOTH",
"310 330 OFFCURVE",
"354 283 OFFCURVE",
"354 230 CURVE SMOOTH",
"354 177 OFFCURVE",
"310 131 OFFCURVE",
"255 131 CURVE SMOOTH",
"200 131 OFFCURVE",
"155 175 OFFCURVE",
"155 230 CURVE SMOOTH",
"155 257 OFFCURVE",
"165 281 OFFCURVE",
"185 301 CURVE SMOOTH"
);
},
{
closed = 1;
nodes = (
"109 290 OFFCURVE",
"101 262 OFFCURVE",
"101 230 CURVE SMOOTH",
"101 198 OFFCURVE",
"109 170 OFFCURVE",
"126 147 CURVE",
"83 104 LINE SMOOTH",
"74 95 OFFCURVE",
"70 85 OFFCURVE",
"70 76 CURVE SMOOTH",
"70 57 OFFCURVE",
"84 46 OFFCURVE",
"101 46 CURVE SMOOTH",
"110 46 OFFCURVE",
"119 51 OFFCURVE",
"128 62 CURVE",
"170 103 LINE",
"195 86 OFFCURVE",
"224 77 OFFCURVE",
"255 77 CURVE SMOOTH",
"286 77 OFFCURVE",
"314 85 OFFCURVE",
"339 102 CURVE",
"380 62 LINE",
"390 51 OFFCURVE",
"399 46 OFFCURVE",
"407 46 CURVE SMOOTH",
"423 46 OFFCURVE",
"439 62 OFFCURVE",
"439 78 CURVE SMOOTH",
"439 86 OFFCURVE",
"434 95 OFFCURVE",
"424 105 CURVE SMOOTH",
"383 146 LINE",
"400 171 OFFCURVE",
"408 200 OFFCURVE",
"408 231 CURVE SMOOTH",
"408 262 OFFCURVE",
"400 290 OFFCURVE",
"383 315 CURVE",
"423 356 LINE",
"434 365 OFFCURVE",
"439 375 OFFCURVE",
"439 384 CURVE SMOOTH",
"439 403 OFFCURVE",
"422 414 OFFCURVE",
"406 414 CURVE SMOOTH",
"398 414 OFFCURVE",
"390 410 OFFCURVE",
"381 401 CURVE SMOOTH",
"339 359 LINE",
"314 376 OFFCURVE",
"286 384 OFFCURVE",
"255 384 CURVE SMOOTH",
"224 384 OFFCURVE",
"195 375 OFFCURVE",
"170 358 CURVE",
"127 401 LINE",
"116 410 OFFCURVE",
"107 414 OFFCURVE",
"100 414 CURVE SMOOTH",
"87 414 OFFCURVE",
"70 399 OFFCURVE",
"70 384 CURVE SMOOTH",
"70 377 OFFCURVE",
"74 368 OFFCURVE",
"83 357 CURVE",
"126 314 LINE"
);
}
);
width = 509;
}
);
note = currency;
rightKerningGroup = numbersign;
unicode = 00A4;
},
{
glyphname = yen;
lastChange = "2016-07-31 02:28:38 +0000";
layers = (
{
layerId = "54C0795B-BA9F-4804-AEEC-86C9BCD12C1B";
paths = (
{
closed = 1;
nodes = (
"245 282 LINE",
"150 282 LINE SMOOTH",
"125 282 OFFCURVE",
"113 272 OFFCURVE",
"113 251 CURVE SMOOTH",
"113 230 OFFCURVE",
"125 220 OFFCURVE",
"150 220 CURVE SMOOTH",
"245 220 LINE",
"245 193 LINE",
"150 193 LINE SMOOTH",
"125 193 OFFCURVE",
"113 183 OFFCURVE",
"113 162 CURVE SMOOTH",
"113 141 OFFCURVE",
"125 131 OFFCURVE",
"150 131 CURVE SMOOTH",
"245 131 LINE",
"245 20 LINE SMOOTH",
"245 -5 OFFCURVE",
"255 -17 OFFCURVE",
"276 -17 CURVE SMOOTH",
"296 -17 OFFCURVE",
"306 -5 OFFCURVE",
"306 20 CURVE SMOOTH",
"306 131 LINE",
"395 131 LINE SMOOTH",
"420 131 OFFCURVE",
"433 141 OFFCURVE",
"433 162 CURVE SMOOTH",
"433 183 OFFCURVE",
"420 193 OFFCURVE",
"395 193 CURVE SMOOTH",
"306 193 LINE",
"306 220 LINE",
"395 220 LINE SMOOTH",
"420 220 OFFCURVE",
"433 230 OFFCURVE",
"433 251 CURVE SMOOTH",
"433 272 OFFCURVE",
"420 282 OFFCURVE",
"395 282 CURVE SMOOTH",
"306 282 LINE",
"306 306 LINE",
"509 598 LINE SMOOTH",
"515 607 OFFCURVE",
"518 616 OFFCURVE",
"518 624 CURVE SMOOTH",
"518 640 OFFCURVE",
"503 653 OFFCURVE",
"485 653 CURVE SMOOTH",
"476 653 OFFCURVE",
"467 646 OFFCURVE",
"458 633 CURVE SMOOTH",
"275 372 LINE",
"91 633 LINE",
"81 646 OFFCURVE",
"72 653 OFFCURVE",
"64 653 CURVE SMOOTH",
"47 653 OFFCURVE",
"32 640 OFFCURVE",
"32 625 CURVE SMOOTH",
"32 618 OFFCURVE",
"35 609 OFFCURVE",
"41 598 CURVE",
"245 306 LINE"
);
}
);
width = 549;
}
);
note = yen;
rightKerningGroup = numbersign;
unicode = 00A5;
},
{
glyphname = brokenbar;
lastChange = "2016-07-31 02:28:38 +0000";
layers = (
{
layerId = "54C0795B-BA9F-4804-AEEC-86C9BCD12C1B";
paths = (
{
closed = 1;
nodes = (
"140 641 OFFCURVE",
"130 653 OFFCURVE",
"110 653 CURVE SMOOTH",
"90 653 OFFCURVE",
"80 641 OFFCURVE",
"80 616 CURVE SMOOTH",
"80 401 LINE SMOOTH",
"80 376 OFFCURVE",
"90 363 OFFCURVE",
"109 363 CURVE SMOOTH",
"130 363 OFFCURVE",
"141 376 OFFCURVE",
"141 401 CURVE SMOOTH",
"141 616 LINE"
);
},
{
closed = 1;
nodes = (
"140 261 OFFCURVE",
"130 273 OFFCURVE",
"110 273 CURVE SMOOTH",
"90 273 OFFCURVE",
"80 261 OFFCURVE",
"80 237 CURVE SMOOTH",
"80 22 LINE SMOOTH",
"80 -4 OFFCURVE",
"90 -17 OFFCURVE",
"109 -17 CURVE SMOOTH",
"130 -17 OFFCURVE",
"141 -4 OFFCURVE",
"141 22 CURVE SMOOTH",
"141 237 LINE"
);
}
);
width = 221;
}
);
note = brokenbar;
rightKerningGroup = numbersign;
unicode = 00A6;
},
{
glyphname = section;
lastChange = "2016-07-31 02:28:38 +0000";
layers = (
{
layerId = "54C0795B-BA9F-4804-AEEC-86C9BCD12C1B";
paths = (
{
closed = 1;
nodes = (
"454 143 OFFCURVE",
"440 175 OFFCURVE",
"413 194 CURVE",
"440 211 OFFCURVE",
"454 242 OFFCURVE",
"454 289 CURVE SMOOTH",
"454 357 OFFCURVE",
"418 396 OFFCURVE",
"346 405 CURVE SMOOTH",
"171 430 LINE SMOOTH",
"148 433 OFFCURVE",
"136 454 OFFCURVE",
"136 495 CURVE SMOOTH",
"136 530 OFFCURVE",
"144 542 OFFCURVE",
"173 542 CURVE SMOOTH",
"357 542 LINE SMOOTH",
"389 542 OFFCURVE",
"392 536 OFFCURVE",
"392 511 CURVE SMOOTH",
"392 486 OFFCURVE",
"404 473 OFFCURVE",
"423 473 CURVE SMOOTH",
"444 473 OFFCURVE",
"454 486 OFFCURVE",
"454 513 CURVE SMOOTH",
"454 565 OFFCURVE",
"437 604 OFFCURVE",
"369 604 CURVE SMOOTH",
"184 604 LINE SMOOTH",
"111 604 OFFCURVE",
"74 568 OFFCURVE",
"74 495 CURVE SMOOTH",
"74 451 OFFCURVE",
"88 419 OFFCURVE",
"115 400 CURVE",
"88 383 OFFCURVE",
"74 351 OFFCURVE",
"74 306 CURVE SMOOTH",
"74 237 OFFCURVE",
"110 198 OFFCURVE",
"182 189 CURVE SMOOTH",
"357 164 LINE SMOOTH",
"380 161 OFFCURVE",
"392 140 OFFCURVE",
"392 99 CURVE SMOOTH",
"392 64 OFFCURVE",
"384 52 OFFCURVE",
"355 52 CURVE SMOOTH",
"171 52 LINE SMOOTH",
"139 52 OFFCURVE",
"136 58 OFFCURVE",
"136 83 CURVE SMOOTH",
"136 108 OFFCURVE",
"124 121 OFFCURVE",
"106 121 CURVE SMOOTH",
"88 121 OFFCURVE",
"74 107 OFFCURVE",
"74 86 CURVE SMOOTH",
"74 27 OFFCURVE",
"92 -10 OFFCURVE",
"160 -10 CURVE SMOOTH",
"344 -10 LINE SMOOTH",
"417 -10 OFFCURVE",
"454 26 OFFCURVE",
"454 99 CURVE SMOOTH"
);
},
{
closed = 1;
nodes = (
"157 360 OFFCURVE",
"178 363 OFFCURVE",
"212 363 CURVE",
"214 362 OFFCURVE",
"216 362 OFFCURVE",
"218 362 CURVE SMOOTH",
"255 362 OFFCURVE",
"292 357 OFFCURVE",
"328 348 CURVE",
"365 337 OFFCURVE",
"392 317 OFFCURVE",
"392 289 CURVE SMOOTH",
"392 236 OFFCURVE",
"386 231 OFFCURVE",
"301 231 CURVE SMOOTH",
"216 231 OFFCURVE",
"136 258 OFFCURVE",
"136 308 CURVE SMOOTH",
"136 333 OFFCURVE",
"140 348 OFFCURVE",
"149 354 CURVE"
);
}
);
width = 529;
}
);
note = section;
rightKerningGroup = numbersign;
unicode = 00A7;
},
{
glyphname = dieresis;
lastChange = "2016-07-31 02:28:38 +0000";
layers = (
{
layerId = "54C0795B-BA9F-4804-AEEC-86C9BCD12C1B";
paths = (
{
closed = 1;
nodes = (
"115 672 OFFCURVE",
"102 676 OFFCURVE",
"90 676 CURVE SMOOTH",
"66 676 OFFCURVE",
"35 657 OFFCURVE",
"35 630 CURVE SMOOTH",
"35 603 OFFCURVE",
"63 584 OFFCURVE",
"90 584 CURVE SMOOTH",
"117 584 OFFCURVE",
"147 605 OFFCURVE",
"147 630 CURVE SMOOTH",
"147 643 OFFCURVE",
"141 654 OFFCURVE",
"128 663 CURVE SMOOTH"
);
},
{
closed = 1;
nodes = (
"301 672 OFFCURVE",
"288 676 OFFCURVE",
"276 676 CURVE SMOOTH",
"252 676 OFFCURVE",
"221 657 OFFCURVE",
"221 630 CURVE SMOOTH",
"221 603 OFFCURVE",
"249 584 OFFCURVE",
"276 584 CURVE SMOOTH",
"303 584 OFFCURVE",
"333 605 OFFCURVE",
"333 630 CURVE SMOOTH",
"333 643 OFFCURVE",
"327 654 OFFCURVE",
"314 663 CURVE SMOOTH"
);
}
);
width = 367;
}
);
note = dieresis;
rightKerningGroup = numbersign;
unicode = 00A8;
},
{
glyphname = copyright;
lastChange = "2016-07-31 02:28:38 +0000";
layers = (
{
layerId = "54C0795B-BA9F-4804-AEEC-86C9BCD12C1B";
paths = (
{
closed = 1;
nodes = (
"364 261 OFFCURVE",
"360 260 OFFCURVE",
"354 260 CURVE SMOOTH",
"306 260 LINE SMOOTH",
"275 260 OFFCURVE",
"256 275 OFFCURVE",
"256 298 CURVE SMOOTH",
"256 337 LINE SMOOTH",
"256 360 OFFCURVE",
"275 375 OFFCURVE",
"306 375 CURVE SMOOTH",
"354 375 LINE SMOOTH",
"358 375 OFFCURVE",
"361 374 OFFCURVE",
"364 373 CURVE",
"368 357 LINE SMOOTH",
"371 346 OFFCURVE",
"378 341 OFFCURVE",
"390 341 CURVE SMOOTH",
"407 341 OFFCURVE",
"416 351 OFFCURVE",
"416 370 CURVE SMOOTH",
"416 393 OFFCURVE",
"399 426 OFFCURVE",
"356 426 CURVE SMOOTH",
"306 426 LINE SMOOTH",
"250 426 OFFCURVE",
"206 394 OFFCURVE",
"206 337 CURVE SMOOTH",
"206 298 LINE SMOOTH",
"206 241 OFFCURVE",
"250 209 OFFCURVE",
"306 209 CURVE SMOOTH",
"356 209 LINE SMOOTH",
"401 209 OFFCURVE",
"416 244 OFFCURVE",
"416 266 CURVE SMOOTH",
"416 288 OFFCURVE",
"403 294 OFFCURVE",
"390 294 CURVE SMOOTH",
"374 294 OFFCURVE",
"366 284 OFFCURVE",
"366 264 CURVE"
);
},
{
closed = 1;
nodes = (
"80 186 OFFCURVE",
"100 135 OFFCURVE",
"140 110 CURVE",
"180 83 OFFCURVE",
"224 77 OFFCURVE",
"297 77 CURVE SMOOTH",
"326 77 LINE SMOOTH",
"398 77 OFFCURVE",
"442 83 OFFCURVE",
"483 110 CURVE SMOOTH",
"523 135 OFFCURVE",
"543 186 OFFCURVE",
"543 262 CURVE SMOOTH",
"543 373 LINE SMOOTH",
"543 448 OFFCURVE",
"523 499 OFFCURVE",
"483 524 CURVE SMOOTH",
"442 551 OFFCURVE",
"398 558 OFFCURVE",
"326 558 CURVE SMOOTH",
"297 558 LINE SMOOTH",
"225 558 OFFCURVE",
"180 551 OFFCURVE",
"140 524 CURVE",
"100 499 OFFCURVE",
"80 448 OFFCURVE",
"79 373 CURVE SMOOTH",
"79 262 LINE SMOOTH"
);
},
{
closed = 1;
nodes = (
"177 139 OFFCURVE",
"141 157 OFFCURVE",
"141 262 CURVE SMOOTH",
"141 373 LINE SMOOTH",
"141 478 OFFCURVE",
"177 496 OFFCURVE",
"297 496 CURVE SMOOTH",
"326 496 LINE SMOOTH",
"445 496 OFFCURVE",
"481 478 OFFCURVE",
"481 373 CURVE SMOOTH",
"481 262 LINE SMOOTH",
"481 157 OFFCURVE",
"445 139 OFFCURVE",
"326 139 CURVE SMOOTH",
"297 139 LINE SMOOTH"
);
}
);
width = 622;
}
);
note = copyright;
rightKerningGroup = numbersign;
unicode = 00A9;
},
{
glyphname = ordfeminine;
lastChange = "2016-07-31 02:28:38 +0000";
layers = (
{
layerId = "54C0795B-BA9F-4804-AEEC-86C9BCD12C1B";
paths = (
{
closed = 1;
nodes = (
"243 308 OFFCURVE",
"224 290 OFFCURVE",
"190 290 CURVE SMOOTH",
"153 290 LINE SMOOTH",
"134 290 OFFCURVE",
"137 327 OFFCURVE",
"150 338 CURVE",
"157 342 OFFCURVE",
"172 344 OFFCURVE",
"195 344 CURVE SMOOTH",
"247 344 LINE"
);
},
{
closed = 1;
nodes = (
"73 209 OFFCURVE",
"63 196 OFFCURVE",
"63 182 CURVE SMOOTH",
"63 168 OFFCURVE",
"73 154 OFFCURVE",
"94 154 CURVE SMOOTH",
"290 154 LINE SMOOTH",
"312 154 OFFCURVE",
"323 163 OFFCURVE",
"323 180 CURVE SMOOTH",
"323 197 OFFCURVE",
"310 209 OFFCURVE",
"290 209 CURVE SMOOTH",
"94 209 LINE SMOOTH"
);
},
{
closed = 1;
nodes = (
"298 446 OFFCURVE",
"277 471 OFFCURVE",
"235 471 CURVE SMOOTH",
"150 471 LINE SMOOTH",
"114 471 OFFCURVE",
"88 441 OFFCURVE",
"88 404 CURVE SMOOTH",
"88 391 OFFCURVE",
"99 382 OFFCURVE",
"115 382 CURVE SMOOTH",
"131 382 OFFCURVE",
"139 395 OFFCURVE",
"139 404 CURVE SMOOTH",
"139 413 OFFCURVE",
"140 420 OFFCURVE",
"153 420 CURVE SMOOTH",
"232 420 LINE SMOOTH",
"244 420 OFFCURVE",
"247 417 OFFCURVE",
"247 404 CURVE SMOOTH",
"247 395 LINE",
"195 395 LINE SMOOTH",
"124 395 OFFCURVE",
"88 374 OFFCURVE",
"88 311 CURVE SMOOTH",
"88 274 OFFCURVE",
"114 239 OFFCURVE",
"153 239 CURVE SMOOTH",
"190 239 LINE SMOOTH",
"215 239 OFFCURVE",
"234 245 OFFCURVE",
"247 257 CURVE",
"248 243 OFFCURVE",
"257 236 OFFCURVE",
"273 236 CURVE SMOOTH",
"284 236 OFFCURVE",
"298 243 OFFCURVE",
"298 258 CURVE SMOOTH",
"298 397 LINE SMOOTH"
);
}
);
width = 386;
}
);
note = ordfeminine;
rightKerningGroup = numbersign;
unicode = 00AA;
},
{
glyphname = logicalnot;
lastChange = "2016-07-31 02:28:38 +0000";
layers = (
{
layerId = "54C0795B-BA9F-4804-AEEC-86C9BCD12C1B";
paths = (
{
closed = 1;
nodes = (
"441 103 OFFCURVE",
"452 116 OFFCURVE",
"452 141 CURVE SMOOTH",
"452 225 LINE SMOOTH",
"452 250 OFFCURVE",
"439 262 OFFCURVE",
"413 262 CURVE SMOOTH",
"115 262 LINE SMOOTH",
"90 262 OFFCURVE",
"79 247 OFFCURVE",
"79 231 CURVE SMOOTH",
"79 210 OFFCURVE",
"91 199 OFFCURVE",
"115 199 CURVE SMOOTH",
"389 199 LINE",
"389 141 LINE SMOOTH",
"389 118 OFFCURVE",
"400 103 OFFCURVE",
"419 103 CURVE SMOOTH"
);
}
);
width = 531;
}
);
note = logicalnot;
rightKerningGroup = numbersign;
unicode = 00AC;
},
{
glyphname = registered;
lastChange = "2016-07-31 02:28:38 +0000";
layers = (
{
layerId = "54C0795B-BA9F-4804-AEEC-86C9BCD12C1B";
paths = (
{
closed = 1;
nodes = (
"177 139 OFFCURVE",
"141 157 OFFCURVE",
"141 262 CURVE SMOOTH",
"141 373 LINE SMOOTH",
"141 478 OFFCURVE",
"177 496 OFFCURVE",
"297 496 CURVE SMOOTH",
"326 496 LINE SMOOTH",
"445 496 OFFCURVE",
"481 478 OFFCURVE",
"481 373 CURVE SMOOTH",
"481 262 LINE SMOOTH",
"481 157 OFFCURVE",
"445 139 OFFCURVE",
"326 139 CURVE SMOOTH",
"297 139 LINE SMOOTH"
);
},
{
closed = 1;
nodes = (
"80 186 OFFCURVE",
"100 135 OFFCURVE",
"140 110 CURVE",
"180 83 OFFCURVE",
"224 77 OFFCURVE",
"297 77 CURVE SMOOTH",
"326 77 LINE SMOOTH",
"398 77 OFFCURVE",
"442 83 OFFCURVE",
"483 110 CURVE SMOOTH",
"523 135 OFFCURVE",
"543 186 OFFCURVE",
"543 262 CURVE SMOOTH",
"543 373 LINE SMOOTH",
"543 448 OFFCURVE",
"523 499 OFFCURVE",
"483 524 CURVE SMOOTH",
"442 551 OFFCURVE",
"398 558 OFFCURVE",
"326 558 CURVE SMOOTH",
"297 558 LINE SMOOTH",
"225 558 OFFCURVE",
"180 551 OFFCURVE",
"140 524 CURVE",
"100 499 OFFCURVE",
"80 448 OFFCURVE",
"79 373 CURVE SMOOTH",
"79 262 LINE SMOOTH"
);
},
{
closed = 1;
nodes = (
"408 310 OFFCURVE",
"424 334 OFFCURVE",
"424 361 CURVE SMOOTH",
"424 408 OFFCURVE",
"386 431 OFFCURVE",
"310 431 CURVE SMOOTH",
"226 431 LINE SMOOTH",
"217 431 OFFCURVE",
"202 423 OFFCURVE",
"202 411 CURVE SMOOTH",
"202 217 LINE SMOOTH",
"202 208 OFFCURVE",
"211 198 OFFCURVE",
"228 198 CURVE SMOOTH",
"245 198 OFFCURVE",
"253 204 OFFCURVE",
"253 217 CURVE SMOOTH",
"253 293 LINE",
"318 293 LINE",
"346 274 OFFCURVE",
"373 231 OFFCURVE",
"377 212 CURVE SMOOTH",
"379 203 OFFCURVE",
"388 198 OFFCURVE",
"403 198 CURVE SMOOTH",
"414 198 OFFCURVE",
"427 204 OFFCURVE",
"427 219 CURVE SMOOTH",
"427 234 OFFCURVE",
"401 276 OFFCURVE",
"380 299 CURVE"
);
},
{
closed = 1;
nodes = (
"253 380 LINE",
"310 380 LINE SMOOTH",
"336 380 OFFCURVE",
"353 379 OFFCURVE",
"361 377 CURVE",
"369 374 OFFCURVE",
"373 369 OFFCURVE",
"373 362 CURVE SMOOTH",
"373 355 OFFCURVE",
"369 350 OFFCURVE",
"361 348 CURVE",
"352 345 OFFCURVE",
"335 344 OFFCURVE",
"310 344 CURVE SMOOTH",
"253 344 LINE"
);
}
);
width = 622;
}
);
leftKerningGroup = registered;
note = registered;
rightKerningGroup = registered;
unicode = 00AE;
},
{
glyphname = macron;
lastChange = "2016-07-31 02:28:38 +0000";
layers = (
{
layerId = "54C0795B-BA9F-4804-AEEC-86C9BCD12C1B";
paths = (
{
closed = 1;
nodes = (
"66 731 OFFCURVE",
"55 716 OFFCURVE",
"55 700 CURVE SMOOTH",
"55 679 OFFCURVE",
"67 668 OFFCURVE",
"91 668 CURVE SMOOTH",
"336 668 LINE SMOOTH",
"357 668 OFFCURVE",
"375 679 OFFCURVE",
"375 698 CURVE SMOOTH",
"375 720 OFFCURVE",
"362 731 OFFCURVE",
"336 731 CURVE SMOOTH",
"91 731 LINE SMOOTH"
);
}
);
width = 429;
}
);
note = macron;
rightKerningGroup = numbersign;
unicode = 00AF;
},
{
glyphname = degree;
lastChange = "2016-07-31 02:28:38 +0000";
layers = (
{
layerId = "54C0795B-BA9F-4804-AEEC-86C9BCD12C1B";
paths = (
{
closed = 1;
nodes = (
"257 627 OFFCURVE",
"299 586 OFFCURVE",
"299 535 CURVE SMOOTH",
"299 484 OFFCURVE",
"257 442 OFFCURVE",
"206 442 CURVE SMOOTH",
"155 442 OFFCURVE",
"114 485 OFFCURVE",
"114 535 CURVE SMOOTH",
"114 585 OFFCURVE",
"155 627 OFFCURVE",
"206 627 CURVE SMOOTH"
);
},
{
closed = 1;
nodes = (
"122 688 OFFCURVE",
"53 619 OFFCURVE",
"53 535 CURVE SMOOTH",
"53 450 OFFCURVE",
"122 381 OFFCURVE",
"207 381 CURVE SMOOTH",
"291 381 OFFCURVE",
"360 450 OFFCURVE",
"360 535 CURVE SMOOTH",
"360 619 OFFCURVE",
"291 688 OFFCURVE",
"207 688 CURVE SMOOTH"
);
}
);
width = 413;
}
);
note = degree;
rightKerningGroup = numbersign;
unicode = 00B0;
},
{
glyphname = plusminus;
lastChange = "2016-07-31 02:28:38 +0000";
layers = (
{
layerId = "54C0795B-BA9F-4804-AEEC-86C9BCD12C1B";
paths = (
{
closed = 1;
nodes = (
"500 -5 OFFCURVE",
"518 6 OFFCURVE",
"518 25 CURVE SMOOTH",
"518 47 OFFCURVE",
"505 58 OFFCURVE",
"479 58 CURVE SMOOTH",
"101 58 LINE SMOOTH",
"77 58 OFFCURVE",
"65 48 OFFCURVE",
"65 28 CURVE SMOOTH",
"65 6 OFFCURVE",
"77 -5 OFFCURVE",
"101 -5 CURVE SMOOTH",
"479 -5 LINE SMOOTH"
);
},
{
closed = 1;
nodes = (
"260 118 OFFCURVE",
"270 106 OFFCURVE",
"291 106 CURVE SMOOTH",
"312 106 OFFCURVE",
"322 118 OFFCURVE",
"322 143 CURVE SMOOTH",
"322 260 LINE",
"479 260 LINE SMOOTH",
"502 260 OFFCURVE",
"518 272 OFFCURVE",
"518 291 CURVE SMOOTH",
"518 312 OFFCURVE",
"505 323 OFFCURVE",
"479 323 CURVE SMOOTH",
"322 323 LINE",
"322 440 LINE SMOOTH",
"322 465 OFFCURVE",
"312 478 OFFCURVE",
"291 478 CURVE SMOOTH",
"270 478 OFFCURVE",
"260 465 OFFCURVE",
"260 440 CURVE SMOOTH",
"260 323 LINE",
"101 323 LINE SMOOTH",
"77 323 OFFCURVE",
"65 313 OFFCURVE",
"65 293 CURVE SMOOTH",
"65 271 OFFCURVE",
"77 260 OFFCURVE",
"101 260 CURVE SMOOTH",
"260 260 LINE",
"260 143 LINE SMOOTH"
);
}
);
width = 583;
}
);
note = plusminus;
rightKerningGroup = numbersign;
unicode = 00B1;
},
{
glyphname = twosuperior;
lastChange = "2016-07-31 02:28:38 +0000";
layers = (
{
layerId = "54C0795B-BA9F-4804-AEEC-86C9BCD12C1B";
paths = (
{
closed = 1;
nodes = (
"110 531 OFFCURVE",
"143 558 OFFCURVE",
"204 586 CURVE SMOOTH",
"249 607 OFFCURVE",
"292 643 OFFCURVE",
"292 682 CURVE SMOOTH",
"292 761 OFFCURVE",
"247 777 OFFCURVE",
"162 777 CURVE SMOOTH",
"132 777 LINE SMOOTH",
"87 777 OFFCURVE",
"47 746 OFFCURVE",
"47 703 CURVE SMOOTH",
"47 687 OFFCURVE",
"63 675 OFFCURVE",
"76 675 CURVE SMOOTH",
"89 675 OFFCURVE",
"103 687 OFFCURVE",
"103 703 CURVE SMOOTH",
"103 717 OFFCURVE",
"114 724 OFFCURVE",
"136 724 CURVE SMOOTH",
"162 724 LINE SMOOTH",
"227 724 OFFCURVE",
"239 721 OFFCURVE",
"239 682 CURVE SMOOTH",
"239 665 OFFCURVE",
"207 641 OFFCURVE",
"143 612 CURVE SMOOTH",
"95 591 OFFCURVE",
"47 543 OFFCURVE",
"47 483 CURVE SMOOTH",
"47 451 LINE",
"260 451 LINE SMOOTH",
"276 451 OFFCURVE",
"292 465 OFFCURVE",
"292 478 CURVE SMOOTH",
"292 491 OFFCURVE",
"276 503 OFFCURVE",
"260 504 CURVE",
"105 504 LINE"
);
}
);
width = 340;
}
);
note = twosuperior;
rightKerningGroup = numbersign;
unicode = 00B2;
},
{
glyphname = threesuperior;
lastChange = "2016-07-31 02:28:38 +0000";
layers = (
{
layerId = "54C0795B-BA9F-4804-AEEC-86C9BCD12C1B";
paths = (
{
closed = 1;
nodes = (
"91 714 OFFCURVE",
"120 724 OFFCURVE",
"149 724 CURVE SMOOTH",
"164 724 OFFCURVE",
"175 724 OFFCURVE",
"184 723 CURVE SMOOTH",
"200 721 OFFCURVE",
"216 710 OFFCURVE",
"216 687 CURVE SMOOTH",
"216 663 OFFCURVE",
"169 644 OFFCURVE",
"142 644 CURVE SMOOTH",
"115 644 OFFCURVE",
"106 632 OFFCURVE",
"106 619 CURVE SMOOTH",
"106 606 OFFCURVE",
"112 591 OFFCURVE",
"140 591 CURVE SMOOTH",
"168 591 OFFCURVE",
"216 567 OFFCURVE",
"216 538 CURVE SMOOTH",
"216 509 OFFCURVE",
"194 504 OFFCURVE",
"156 504 CURVE SMOOTH",
"137 504 OFFCURVE",
"121 506 OFFCURVE",
"109 511 CURVE",
"97 515 OFFCURVE",
"91 520 OFFCURVE",
"91 527 CURVE SMOOTH",
"91 542 OFFCURVE",
"81 550 OFFCURVE",
"62 550 CURVE SMOOTH",
"47 550 OFFCURVE",
"35 540 OFFCURVE",
"35 525 CURVE SMOOTH",
"35 490 OFFCURVE",
"79 451 OFFCURVE",
"147 451 CURVE SMOOTH",
"214 451 OFFCURVE",
"268 459 OFFCURVE",
"268 540 CURVE SMOOTH",
"268 572 OFFCURVE",
"251 598 OFFCURVE",
"216 618 CURVE",
"251 635 OFFCURVE",
"268 659 OFFCURVE",
"268 688 CURVE SMOOTH",
"268 746 OFFCURVE",
"243 776 OFFCURVE",
"142 777 CURVE SMOOTH",
"81 777 OFFCURVE",
"35 738 OFFCURVE",
"35 703 CURVE SMOOTH",
"35 688 OFFCURVE",
"47 678 OFFCURVE",
"62 678 CURVE SMOOTH",
"81 678 OFFCURVE",
"91 686 OFFCURVE",
"91 701 CURVE SMOOTH"
);
}
);
width = 310;
}
);
note = threesuperior;
rightKerningGroup = numbersign;
unicode = 00B3;
},
{
glyphname = acute;
lastChange = "2016-07-31 02:28:38 +0000";
layers = (
{
layerId = "54C0795B-BA9F-4804-AEEC-86C9BCD12C1B";
paths = (
{
closed = 1;
nodes = (
"186 639 OFFCURVE",
"189 648 OFFCURVE",
"189 657 CURVE SMOOTH",
"189 676 OFFCURVE",
"174 688 OFFCURVE",
"158 688 CURVE SMOOTH",
"150 688 OFFCURVE",
"141 682 OFFCURVE",
"130 671 CURVE",
"34 556 LINE SMOOTH",
"27 548 OFFCURVE",
"24 539 OFFCURVE",
"24 530 CURVE SMOOTH",
"24 511 OFFCURVE",
"40 500 OFFCURVE",
"56 500 CURVE SMOOTH",
"64 500 OFFCURVE",
"73 506 OFFCURVE",
"83 517 CURVE",
"179 632 LINE"
);
}
);
width = 212;
}
);
note = acute;
rightKerningGroup = numbersign;
unicode = 00B4;
},
{
glyphname = paragraph;
lastChange = "2016-07-31 02:28:38 +0000";
layers = (
{
layerId = "54C0795B-BA9F-4804-AEEC-86C9BCD12C1B";
paths = (
{
closed = 1;
nodes = (
"335 -5 OFFCURVE",
"345 -17 OFFCURVE",
"366 -17 CURVE SMOOTH",
"387 -17 OFFCURVE",
"397 -5 OFFCURVE",
"397 20 CURVE SMOOTH",
"397 646 LINE",
"252 646 LINE SMOOTH",
"109 646 OFFCURVE",
"35 606 OFFCURVE",
"35 494 CURVE SMOOTH",
"35 382 OFFCURVE",
"101 327 OFFCURVE",
"210 327 CURVE SMOOTH",
"242 327 LINE",
"242 20 LINE SMOOTH",
"242 -5 OFFCURVE",
"252 -17 OFFCURVE",
"273 -17 CURVE SMOOTH",
"294 -17 OFFCURVE",
"304 -5 OFFCURVE",
"304 20 CURVE SMOOTH",
"304 584 LINE",
"335 584 LINE",
"335 20 LINE SMOOTH"
);
}
);
width = 487;
}
);
note = paragraph;
rightKerningGroup = numbersign;
unicode = 00B6;
},
{
glyphname = periodcentered;
lastChange = "2016-07-31 02:28:38 +0000";
layers = (
{
layerId = "54C0795B-BA9F-4804-AEEC-86C9BCD12C1B";
paths = (
{
closed = 1;
nodes = (
"146 429 OFFCURVE",
"133 433 OFFCURVE",
"121 433 CURVE SMOOTH",
"97 433 OFFCURVE",
"66 414 OFFCURVE",
"66 387 CURVE SMOOTH",
"66 360 OFFCURVE",
"94 341 OFFCURVE",
"121 341 CURVE SMOOTH",
"148 341 OFFCURVE",
"178 363 OFFCURVE",
"178 388 CURVE SMOOTH",
"178 401 OFFCURVE",
"172 411 OFFCURVE",
"159 420 CURVE SMOOTH"
);
}
);
width = 245;
}
);
note = periodcentered;
rightKerningGroup = numbersign;
unicode = 00B7;
},
{
glyphname = cedilla;
lastChange = "2016-07-31 02:28:38 +0000";
layers = (
{
layerId = "54C0795B-BA9F-4804-AEEC-86C9BCD12C1B";
paths = (
{
closed = 1;
nodes = (
"86 -22 OFFCURVE",
"104 -50 OFFCURVE",
"121 -62 CURVE",
"137 -75 OFFCURVE",
"155 -88 OFFCURVE",
"155 -100 CURVE SMOOTH",
"155 -113 OFFCURVE",
"145 -120 OFFCURVE",
"124 -120 CURVE SMOOTH",
"112 -120 OFFCURVE",
"99 -117 OFFCURVE",
"84 -111 CURVE SMOOTH",
"69 -105 OFFCURVE",
"59 -102 OFFCURVE",
"53 -102 CURVE SMOOTH",
"41 -102 OFFCURVE",
"32 -110 OFFCURVE",
"32 -125 CURVE SMOOTH",
"32 -164 OFFCURVE",
"78 -180 OFFCURVE",
"123 -180 CURVE SMOOTH",
"168 -180 OFFCURVE",
"217 -144 OFFCURVE",
"217 -100 CURVE SMOOTH",
"217 -56 OFFCURVE",
"188 -38 OFFCURVE",
"165 -21 CURVE",
"154 -12 OFFCURVE",
"148 -2 OFFCURVE",
"148 10 CURVE",
"86 10 LINE"
);
}
);
width = 242;
}
);
note = cedilla;
rightKerningGroup = numbersign;
unicode = 00B8;
},
{
glyphname = onesuperior;
lastChange = "2016-07-31 02:28:38 +0000";
layers = (
{
layerId = "54C0795B-BA9F-4804-AEEC-86C9BCD12C1B";
paths = (
{
closed = 1;
nodes = (
"57 480 LINE SMOOTH",
"57 459 OFFCURVE",
"66 448 OFFCURVE",
"84 448 CURVE SMOOTH",
"102 448 OFFCURVE",
"111 459 OFFCURVE",
"111 480 CURVE SMOOTH",
"111 751 LINE SMOOTH",
"111 771 OFFCURVE",
"96 780 OFFCURVE",
"82 780 CURVE SMOOTH",
"75 780 OFFCURVE",
"66 776 OFFCURVE",
"57 768 CURVE",
"9 718 LINE SMOOTH",
"0 709 OFFCURVE",
"-5 701 OFFCURVE",
"-5 694 CURVE SMOOTH",
"-5 680 OFFCURVE",
"5 668 OFFCURVE",
"22 668 CURVE SMOOTH",
"30 668 OFFCURVE",
"39 673 OFFCURVE",
"48 682 CURVE SMOOTH",
"57 691 LINE"
);
}
);
width = 168;
}
);
note = onesuperior;
rightKerningGroup = numbersign;
unicode = 00B9;
},
{
glyphname = ordmasculine;
lastChange = "2016-07-31 02:28:38 +0000";
layers = (
{
layerId = "54C0795B-BA9F-4804-AEEC-86C9BCD12C1B";
paths = (
{
closed = 1;
nodes = (
"145 290 OFFCURVE",
"139 293 OFFCURVE",
"139 333 CURVE SMOOTH",
"139 377 LINE SMOOTH",
"139 417 OFFCURVE",
"145 420 OFFCURVE",
"188 420 CURVE SMOOTH",
"197 420 LINE SMOOTH",
"241 420 OFFCURVE",
"247 416 OFFCURVE",
"247 377 CURVE SMOOTH",
"247 333 LINE SMOOTH",
"247 294 OFFCURVE",
"241 290 OFFCURVE",
"197 290 CURVE SMOOTH",
"188 290 LINE SMOOTH"
);
},
{
closed = 1;
nodes = (
"88 260 OFFCURVE",
"115 239 OFFCURVE",
"188 239 CURVE SMOOTH",
"197 239 LINE SMOOTH",
"272 239 OFFCURVE",
"298 260 OFFCURVE",
"298 333 CURVE SMOOTH",
"298 377 LINE SMOOTH",
"298 450 OFFCURVE",
"270 471 OFFCURVE",
"197 471 CURVE SMOOTH",
"188 471 LINE SMOOTH",
"115 471 OFFCURVE",
"88 450 OFFCURVE",
"88 377 CURVE SMOOTH",
"88 333 LINE SMOOTH"
);
},
{
closed = 1;
nodes = (
"73 208 OFFCURVE",
"62 196 OFFCURVE",
"62 181 CURVE SMOOTH",
"62 168 OFFCURVE",
"73 154 OFFCURVE",
"94 154 CURVE SMOOTH",
"290 154 LINE SMOOTH",
"312 154 OFFCURVE",
"323 163 OFFCURVE",
"323 180 CURVE SMOOTH",
"323 197 OFFCURVE",
"310 209 OFFCURVE",
"290 209 CURVE SMOOTH",
"94 209 LINE"
);
}
);
width = 386;
}
);
note = ordmasculine;
rightKerningGroup = numbersign;
unicode = 00BA;
},
{
glyphname = onequarter;
lastChange = "2016-07-31 02:28:46 +0000";
layers = (
{
layerId = "54C0795B-BA9F-4804-AEEC-86C9BCD12C1B";
paths = (
{
closed = 1;
nodes = (
"519 90 LINE SMOOTH",
"540 90 OFFCURVE",
"550 99 OFFCURVE",
"550 116 CURVE SMOOTH",
"550 133 OFFCURVE",
"540 142 OFFCURVE",
"519 143 CURVE",
"480 143 LINE",
"480 315 LINE",
"418 315 LINE",
"294 149 LINE",
"294 90 LINE",
"426 90 LINE",
"426 18 LINE SMOOTH",
"426 -3 OFFCURVE",
"435 -14 OFFCURVE",
"453 -14 CURVE SMOOTH",
"471 -14 OFFCURVE",
"480 -3 OFFCURVE",
"480 18 CURVE SMOOTH",
"480 90 LINE"
);
},
{
closed = 1;
nodes = (
"426 241 LINE",
"426 143 LINE",
"353 143 LINE"
);
},
{
closed = 1;
nodes = (
"151 346 LINE SMOOTH",
"151 325 OFFCURVE",
"160 314 OFFCURVE",
"178 314 CURVE SMOOTH",
"196 314 OFFCURVE",
"205 325 OFFCURVE",
"205 346 CURVE SMOOTH",
"205 617 LINE SMOOTH",
"205 637 OFFCURVE",
"190 646 OFFCURVE",
"176 646 CURVE SMOOTH",
"169 646 OFFCURVE",
"160 642 OFFCURVE",
"151 634 CURVE",
"103 584 LINE SMOOTH",
"94 575 OFFCURVE",
"89 567 OFFCURVE",
"89 560 CURVE SMOOTH",
"89 546 OFFCURVE",
"99 534 OFFCURVE",
"116 534 CURVE SMOOTH",
"124 534 OFFCURVE",
"133 539 OFFCURVE",
"142 548 CURVE SMOOTH",
"151 557 LINE"
);
},
{
closed = 1;
nodes = (
"515 500 OFFCURVE",
"519 510 OFFCURVE",
"519 519 CURVE SMOOTH",
"519 536 OFFCURVE",
"511 544 OFFCURVE",
"494 544 CURVE SMOOTH",
"485 544 OFFCURVE",
"475 540 OFFCURVE",
"466 531 CURVE SMOOTH",
"56 121 LINE SMOOTH",
"47 112 OFFCURVE",
"43 102 OFFCURVE",
"43 93 CURVE SMOOTH",
"43 76 OFFCURVE",
"51 68 OFFCURVE",
"68 68 CURVE SMOOTH",
"77 68 OFFCURVE",
"87 72 OFFCURVE",
"96 81 CURVE SMOOTH",
"506 491 LINE SMOOTH"
);
}
);
width = 594;
}
);
note = onequarter;
rightKerningGroup = numbersign;
unicode = 00BC;
},
{
glyphname = onehalf;
lastChange = "2016-07-31 02:28:46 +0000";
layers = (
{
layerId = "54C0795B-BA9F-4804-AEEC-86C9BCD12C1B";
paths = (
{
closed = 1;
nodes = (
"387 69 OFFCURVE",
"420 96 OFFCURVE",
"481 124 CURVE SMOOTH",
"526 145 OFFCURVE",
"569 181 OFFCURVE",
"569 220 CURVE SMOOTH",
"569 299 OFFCURVE",
"524 315 OFFCURVE",
"439 315 CURVE SMOOTH",
"409 315 LINE SMOOTH",
"364 315 OFFCURVE",
"324 284 OFFCURVE",
"324 241 CURVE SMOOTH",
"324 225 OFFCURVE",
"340 213 OFFCURVE",
"353 213 CURVE SMOOTH",
"366 213 OFFCURVE",
"380 225 OFFCURVE",
"380 241 CURVE SMOOTH",
"380 255 OFFCURVE",
"391 262 OFFCURVE",
"413 262 CURVE SMOOTH",
"439 262 LINE SMOOTH",
"504 262 OFFCURVE",
"516 259 OFFCURVE",
"516 220 CURVE SMOOTH",
"516 203 OFFCURVE",
"484 179 OFFCURVE",
"420 150 CURVE SMOOTH",
"372 129 OFFCURVE",
"324 81 OFFCURVE",
"324 21 CURVE SMOOTH",
"324 -11 LINE",
"537 -11 LINE SMOOTH",
"553 -11 OFFCURVE",
"569 3 OFFCURVE",
"569 16 CURVE SMOOTH",
"569 29 OFFCURVE",
"553 41 OFFCURVE",
"537 42 CURVE",
"382 42 LINE"
);
},
{
closed = 1;
nodes = (
"159 346 LINE SMOOTH",
"159 325 OFFCURVE",
"168 314 OFFCURVE",
"186 314 CURVE SMOOTH",
"204 314 OFFCURVE",
"213 325 OFFCURVE",
"213 346 CURVE SMOOTH",
"213 617 LINE SMOOTH",
"213 637 OFFCURVE",
"198 646 OFFCURVE",
"184 646 CURVE SMOOTH",
"177 646 OFFCURVE",
"168 642 OFFCURVE",
"159 634 CURVE",
"111 584 LINE SMOOTH",
"102 575 OFFCURVE",
"97 567 OFFCURVE",
"97 560 CURVE SMOOTH",
"97 546 OFFCURVE",
"107 534 OFFCURVE",
"124 534 CURVE SMOOTH",
"132 534 OFFCURVE",
"141 539 OFFCURVE",
"150 548 CURVE SMOOTH",
"159 557 LINE"
);
},
{
closed = 1;
nodes = (
"512 500 OFFCURVE",
"516 510 OFFCURVE",
"516 519 CURVE SMOOTH",
"516 536 OFFCURVE",
"508 544 OFFCURVE",
"491 544 CURVE SMOOTH",
"482 544 OFFCURVE",
"472 540 OFFCURVE",
"463 531 CURVE SMOOTH",
"53 121 LINE SMOOTH",
"44 112 OFFCURVE",
"40 102 OFFCURVE",
"40 93 CURVE SMOOTH",
"40 76 OFFCURVE",
"48 68 OFFCURVE",
"65 68 CURVE SMOOTH",
"74 68 OFFCURVE",
"84 72 OFFCURVE",
"93 81 CURVE SMOOTH",
"503 491 LINE SMOOTH"
);
}
);
width = 622;
}
);
note = onehalf;
rightKerningGroup = numbersign;
unicode = 00BD;
},
{
glyphname = threequarters;
lastChange = "2016-07-31 02:28:46 +0000";
layers = (
{
layerId = "54C0795B-BA9F-4804-AEEC-86C9BCD12C1B";
paths = (
{
closed = 1;
nodes = (
"119 583 OFFCURVE",
"148 593 OFFCURVE",
"177 593 CURVE SMOOTH",
"192 593 OFFCURVE",
"203 593 OFFCURVE",
"212 592 CURVE SMOOTH",
"228 590 OFFCURVE",
"244 579 OFFCURVE",
"244 556 CURVE SMOOTH",
"244 532 OFFCURVE",
"197 513 OFFCURVE",
"170 513 CURVE SMOOTH",
"143 513 OFFCURVE",
"134 501 OFFCURVE",
"134 488 CURVE SMOOTH",
"134 475 OFFCURVE",
"140 460 OFFCURVE",
"168 460 CURVE SMOOTH",
"196 460 OFFCURVE",
"244 436 OFFCURVE",
"244 407 CURVE SMOOTH",
"244 378 OFFCURVE",
"222 373 OFFCURVE",
"184 373 CURVE SMOOTH",
"165 373 OFFCURVE",
"149 375 OFFCURVE",
"137 380 CURVE",
"125 384 OFFCURVE",
"119 389 OFFCURVE",
"119 396 CURVE SMOOTH",
"119 411 OFFCURVE",
"109 419 OFFCURVE",
"90 419 CURVE SMOOTH",
"75 419 OFFCURVE",
"63 409 OFFCURVE",
"63 394 CURVE SMOOTH",
"63 359 OFFCURVE",
"107 320 OFFCURVE",
"175 320 CURVE SMOOTH",
"242 320 OFFCURVE",
"296 328 OFFCURVE",
"296 409 CURVE SMOOTH",
"296 441 OFFCURVE",
"279 467 OFFCURVE",
"244 487 CURVE",
"279 504 OFFCURVE",
"296 528 OFFCURVE",
"296 557 CURVE SMOOTH",
"296 615 OFFCURVE",
"271 645 OFFCURVE",
"170 646 CURVE SMOOTH",
"109 646 OFFCURVE",
"63 607 OFFCURVE",
"63 572 CURVE SMOOTH",
"63 557 OFFCURVE",
"75 547 OFFCURVE",
"90 547 CURVE SMOOTH",
"109 547 OFFCURVE",
"119 555 OFFCURVE",
"119 570 CURVE SMOOTH"
);
},
{
closed = 1;
nodes = (
"565 90 LINE SMOOTH",
"586 90 OFFCURVE",
"596 99 OFFCURVE",
"596 116 CURVE SMOOTH",
"596 133 OFFCURVE",
"586 142 OFFCURVE",
"565 143 CURVE",
"526 143 LINE",
"526 315 LINE",
"464 315 LINE",
"340 149 LINE",
"340 90 LINE",
"472 90 LINE",
"472 18 LINE SMOOTH",
"472 -3 OFFCURVE",
"481 -14 OFFCURVE",
"499 -14 CURVE SMOOTH",
"517 -14 OFFCURVE",
"526 -3 OFFCURVE",
"526 18 CURVE SMOOTH",
"526 90 LINE"
);
},
{
closed = 1;
nodes = (
"472 241 LINE",
"472 143 LINE",
"399 143 LINE"
);
},
{
closed = 1;
nodes = (
"566 500 OFFCURVE",
"570 510 OFFCURVE",
"570 519 CURVE SMOOTH",
"570 536 OFFCURVE",
"562 544 OFFCURVE",
"545 544 CURVE SMOOTH",
"536 544 OFFCURVE",
"526 540 OFFCURVE",
"517 531 CURVE SMOOTH",
"107 121 LINE SMOOTH",
"98 112 OFFCURVE",
"94 102 OFFCURVE",
"94 93 CURVE SMOOTH",
"94 76 OFFCURVE",
"102 68 OFFCURVE",
"119 68 CURVE SMOOTH",
"128 68 OFFCURVE",
"138 72 OFFCURVE",
"147 81 CURVE SMOOTH",
"557 491 LINE SMOOTH"
);
}
);
width = 641;
}
);
note = threequarters;
rightKerningGroup = numbersign;
unicode = 00BE;
},
{
glyphname = questiondown;
lastChange = "2016-07-31 02:28:38 +0000";
layers = (
{
layerId = "54C0795B-BA9F-4804-AEEC-86C9BCD12C1B";
paths = (
{
closed = 1;
nodes = (
"310 404 OFFCURVE",
"342 425 OFFCURVE",
"342 450 CURVE SMOOTH",
"342 475 OFFCURVE",
"312 496 OFFCURVE",
"286 496 CURVE SMOOTH",
"260 496 OFFCURVE",
"229 477 OFFCURVE",
"229 451 CURVE SMOOTH",
"229 425 OFFCURVE",
"261 404 OFFCURVE",
"286 404 CURVE SMOOTH"
);
},
{
closed = 1;
nodes = (
"169 160 LINE SMOOTH",
"73 133 OFFCURVE",
"37 86 OFFCURVE",
"37 -6 CURVE SMOOTH",
"37 -98 OFFCURVE",
"88 -175 OFFCURVE",
"209 -175 CURVE SMOOTH",
"285 -175 LINE SMOOTH",
"357 -175 OFFCURVE",
"401 -168 OFFCURVE",
"442 -143 CURVE SMOOTH",
"483 -118 OFFCURVE",
"503 -68 OFFCURVE",
"503 8 CURVE SMOOTH",
"503 33 OFFCURVE",
"493 46 OFFCURVE",
"472 46 CURVE SMOOTH",
"451 46 OFFCURVE",
"440 29 OFFCURVE",
"440 -4 CURVE SMOOTH",
"440 -44 OFFCURVE",
"432 -78 OFFCURVE",
"404 -94 CURVE SMOOTH",
"375 -111 OFFCURVE",
"348 -113 OFFCURVE",
"285 -113 CURVE SMOOTH",
"191 -113 LINE SMOOTH",
"128 -113 OFFCURVE",
"99 -58 OFFCURVE",
"99 -6 CURVE SMOOTH",
"99 46 OFFCURVE",
"124 85 OFFCURVE",
"155 93 CURVE SMOOTH",
"316 137 LINE",
"316 285 LINE SMOOTH",
"316 310 OFFCURVE",
"306 323 OFFCURVE",
"285 323 CURVE SMOOTH",
"264 323 OFFCURVE",
"254 310 OFFCURVE",
"254 285 CURVE SMOOTH",
"254 184 LINE"
);
}
);
width = 537;
}
);
note = questiondown;
rightKerningGroup = questiondown;
unicode = 00BF;
},
{
glyphname = Agrave;
lastChange = "2016-07-31 02:28:46 +0000";
layers = (
{
layerId = "54C0795B-BA9F-4804-AEEC-86C9BCD12C1B";
paths = (
{
closed = 1;
nodes = (
"231 814 OFFCURVE",
"222 819 OFFCURVE",
"214 819 CURVE SMOOTH",
"198 819 OFFCURVE",
"182 803 OFFCURVE",
"182 788 CURVE SMOOTH",
"182 781 OFFCURVE",
"187 772 OFFCURVE",
"196 761 CURVE",
"265 693 LINE",
"274 683 OFFCURVE",
"283 678 OFFCURVE",
"292 678 CURVE SMOOTH",
"311 678 OFFCURVE",
"324 692 OFFCURVE",
"324 708 CURVE SMOOTH",
"324 716 OFFCURVE",
"320 725 OFFCURVE",
"311 735 CURVE",
"241 804 LINE SMOOTH"
);
},
{
closed = 1;
nodes = (
"27 31 LINE",
"25 25 OFFCURVE",
"24 18 OFFCURVE",
"24 10 CURVE SMOOTH",
"24 -6 OFFCURVE",
"43 -16 OFFCURVE",
"55 -16 CURVE SMOOTH",
"69 -16 OFFCURVE",
"80 -7 OFFCURVE",
"87 10 CURVE SMOOTH",
"157 194 LINE",
"433 194 LINE",
"503 10 LINE SMOOTH",
"510 -7 OFFCURVE",
"520 -16 OFFCURVE",
"535 -16 CURVE SMOOTH",
"547 -16 OFFCURVE",
"566 -6 OFFCURVE",
"566 10 CURVE SMOOTH",
"566 18 OFFCURVE",
"565 25 OFFCURVE",
"563 31 CURVE",
"331 636 LINE",
"259 636 LINE"
);
},
{
closed = 1;
nodes = (
"294 546 LINE",
"409 256 LINE",
"181 256 LINE"
);
}
);
width = 590;
}
);
leftKerningGroup = A;
note = Agrave;
rightKerningGroup = A;
unicode = 00C0;
},
{
glyphname = Aacute;
lastChange = "2016-07-31 02:28:46 +0000";
layers = (
{
layerId = "54C0795B-BA9F-4804-AEEC-86C9BCD12C1B";
paths = (
{
closed = 1;
nodes = (
"250 725 OFFCURVE",
"246 716 OFFCURVE",
"246 708 CURVE SMOOTH",
"246 692 OFFCURVE",
"259 678 OFFCURVE",
"278 678 CURVE SMOOTH",
"287 678 OFFCURVE",
"296 683 OFFCURVE",
"305 693 CURVE",
"374 761 LINE",
"383 772 OFFCURVE",
"388 781 OFFCURVE",
"388 788 CURVE SMOOTH",
"388 803 OFFCURVE",
"372 819 OFFCURVE",
"356 819 CURVE SMOOTH",
"348 819 OFFCURVE",
"339 814 OFFCURVE",
"329 804 CURVE SMOOTH",
"259 735 LINE"
);
},
{
closed = 1;
nodes = (
"27 31 LINE",
"25 25 OFFCURVE",
"24 18 OFFCURVE",
"24 10 CURVE SMOOTH",
"24 -6 OFFCURVE",
"43 -16 OFFCURVE",
"55 -16 CURVE SMOOTH",
"69 -16 OFFCURVE",
"80 -7 OFFCURVE",
"87 10 CURVE SMOOTH",
"157 194 LINE",
"433 194 LINE",
"503 10 LINE SMOOTH",
"510 -7 OFFCURVE",
"520 -16 OFFCURVE",
"535 -16 CURVE SMOOTH",
"547 -16 OFFCURVE",
"566 -6 OFFCURVE",
"566 10 CURVE SMOOTH",
"566 18 OFFCURVE",
"565 25 OFFCURVE",
"563 31 CURVE",
"331 636 LINE",
"259 636 LINE"
);
},
{
closed = 1;
nodes = (
"294 546 LINE",
"409 256 LINE",
"181 256 LINE"
);
}
);
width = 590;
}
);
leftKerningGroup = A;
note = Aacute;
rightKerningGroup = A;
unicode = 00C1;
},
{
glyphname = Acircumflex;
lastChange = "2016-07-31 02:28:46 +0000";
layers = (
{
layerId = "54C0795B-BA9F-4804-AEEC-86C9BCD12C1B";
paths = (
{
closed = 1;
nodes = (
"151 690 OFFCURVE",
"149 683 OFFCURVE",
"149 674 CURVE SMOOTH",
"149 655 OFFCURVE",
"158 646 OFFCURVE",
"177 646 CURVE SMOOTH",
"186 646 OFFCURVE",
"195 650 OFFCURVE",
"202 659 CURVE SMOOTH",
"209 668 LINE",
"295 750 LINE",
"382 668 LINE",
"389 659 LINE SMOOTH",
"396 650 OFFCURVE",
"405 646 OFFCURVE",
"414 646 CURVE SMOOTH",
"433 646 OFFCURVE",
"442 655 OFFCURVE",
"442 674 CURVE SMOOTH",
"442 683 OFFCURVE",
"440 690 OFFCURVE",
"435 695 CURVE",
"326 819 LINE",
"263 819 LINE",
"156 695 LINE"
);
},
{
closed = 1;
nodes = (
"27 31 LINE",
"25 25 OFFCURVE",
"24 18 OFFCURVE",
"24 10 CURVE SMOOTH",
"24 -6 OFFCURVE",
"43 -16 OFFCURVE",
"55 -16 CURVE SMOOTH",
"69 -16 OFFCURVE",
"80 -7 OFFCURVE",
"87 10 CURVE SMOOTH",
"157 194 LINE",
"433 194 LINE",
"503 10 LINE SMOOTH",
"510 -7 OFFCURVE",
"520 -16 OFFCURVE",
"535 -16 CURVE SMOOTH",
"547 -16 OFFCURVE",
"566 -6 OFFCURVE",
"566 10 CURVE SMOOTH",
"566 18 OFFCURVE",
"565 25 OFFCURVE",
"563 31 CURVE",
"331 636 LINE",
"259 636 LINE"
);
},
{
closed = 1;
nodes = (
"294 546 LINE",
"409 256 LINE",
"181 256 LINE"
);
}
);
width = 590;
}
);
leftKerningGroup = A;
note = Acircumflex;
rightKerningGroup = A;
unicode = 00C2;
},
{
glyphname = Atilde;
lastChange = "2016-07-31 02:28:46 +0000";
layers = (
{
layerId = "54C0795B-BA9F-4804-AEEC-86C9BCD12C1B";
paths = (
{
closed = 1;
nodes = (
"244 802 OFFCURVE",
"240 803 OFFCURVE",
"233 803 CURVE SMOOTH",
"226 803 OFFCURVE",
"219 800 OFFCURVE",
"210 793 CURVE",
"165 755 LINE SMOOTH",
"154 746 OFFCURVE",
"149 737 OFFCURVE",
"149 727 CURVE SMOOTH",
"149 707 OFFCURVE",
"164 696 OFFCURVE",
"181 696 CURVE SMOOTH",
"190 696 OFFCURVE",
"197 699 OFFCURVE",
"204 706 CURVE",
"235 734 LINE",
"236 735 OFFCURVE",
"238 736 OFFCURVE",
"240 736 CURVE SMOOTH",
"242 736 OFFCURVE",
"245 735 OFFCURVE",
"248 734 CURVE",
"342 698 LINE",
"344 697 OFFCURVE",
"348 696 OFFCURVE",
"355 696 CURVE SMOOTH",
"362 696 OFFCURVE",
"370 699 OFFCURVE",
"379 706 CURVE",
"424 744 LINE SMOOTH",
"435 753 OFFCURVE",
"440 762 OFFCURVE",
"440 772 CURVE SMOOTH",
"440 792 OFFCURVE",
"425 803 OFFCURVE",
"408 803 CURVE SMOOTH",
"399 803 OFFCURVE",
"392 800 OFFCURVE",
"385 793 CURVE",
"354 765 LINE",
"353 764 OFFCURVE",
"351 763 OFFCURVE",
"349 763 CURVE SMOOTH",
"347 763 OFFCURVE",
"344 764 OFFCURVE",
"341 765 CURVE",
"247 801 LINE"
);
},
{
closed = 1;
nodes = (
"27 31 LINE",
"25 25 OFFCURVE",
"24 18 OFFCURVE",
"24 10 CURVE SMOOTH",
"24 -6 OFFCURVE",
"43 -16 OFFCURVE",
"55 -16 CURVE SMOOTH",
"69 -16 OFFCURVE",
"80 -7 OFFCURVE",
"87 10 CURVE SMOOTH",
"157 194 LINE",
"433 194 LINE",
"503 10 LINE SMOOTH",
"510 -7 OFFCURVE",
"520 -16 OFFCURVE",
"535 -16 CURVE SMOOTH",
"547 -16 OFFCURVE",
"566 -6 OFFCURVE",
"566 10 CURVE SMOOTH",
"566 18 OFFCURVE",
"565 25 OFFCURVE",
"563 31 CURVE",
"331 636 LINE",
"259 636 LINE"
);
},
{
closed = 1;
nodes = (
"294 546 LINE",
"409 256 LINE",
"181 256 LINE"
);
}
);
width = 590;
}
);
leftKerningGroup = A;
note = Atilde;
rightKerningGroup = A;
unicode = 00C3;
},
{
glyphname = Adieresis;
lastChange = "2016-07-31 02:28:46 +0000";
layers = (
{
layerId = "54C0795B-BA9F-4804-AEEC-86C9BCD12C1B";
paths = (
{
closed = 1;
nodes = (
"226 785 OFFCURVE",
"213 789 OFFCURVE",
"201 789 CURVE SMOOTH",
"177 789 OFFCURVE",
"146 770 OFFCURVE",
"146 743 CURVE SMOOTH",
"146 716 OFFCURVE",
"174 697 OFFCURVE",
"201 697 CURVE SMOOTH",
"228 697 OFFCURVE",
"258 718 OFFCURVE",
"258 743 CURVE SMOOTH",
"258 756 OFFCURVE",
"252 767 OFFCURVE",
"239 776 CURVE SMOOTH"
);
},
{
closed = 1;
nodes = (
"412 785 OFFCURVE",
"399 789 OFFCURVE",
"387 789 CURVE SMOOTH",
"363 789 OFFCURVE",
"332 770 OFFCURVE",
"332 743 CURVE SMOOTH",
"332 716 OFFCURVE",
"360 697 OFFCURVE",
"387 697 CURVE SMOOTH",
"414 697 OFFCURVE",
"444 718 OFFCURVE",
"444 743 CURVE SMOOTH",
"444 756 OFFCURVE",
"438 767 OFFCURVE",
"425 776 CURVE SMOOTH"
);
},
{
closed = 1;
nodes = (
"27 31 LINE",
"25 25 OFFCURVE",
"24 18 OFFCURVE",
"24 10 CURVE SMOOTH",
"24 -6 OFFCURVE",
"43 -16 OFFCURVE",
"55 -16 CURVE SMOOTH",
"69 -16 OFFCURVE",
"80 -7 OFFCURVE",
"87 10 CURVE SMOOTH",
"157 194 LINE",
"433 194 LINE",
"503 10 LINE SMOOTH",
"510 -7 OFFCURVE",
"520 -16 OFFCURVE",
"535 -16 CURVE SMOOTH",
"547 -16 OFFCURVE",
"566 -6 OFFCURVE",
"566 10 CURVE SMOOTH",
"566 18 OFFCURVE",
"565 25 OFFCURVE",
"563 31 CURVE",
"331 636 LINE",
"259 636 LINE"
);
},
{
closed = 1;
nodes = (
"294 546 LINE",
"409 256 LINE",
"181 256 LINE"
);
}
);
width = 590;
}
);
leftKerningGroup = A;
note = Adieresis;
rightKerningGroup = A;
unicode = 00C4;
},
{
glyphname = Aring;
lastChange = "2016-07-31 02:28:46 +0000";
layers = (
{
layerId = "54C0795B-BA9F-4804-AEEC-86C9BCD12C1B";
paths = (
{
closed = 1;
nodes = (
"275 771 OFFCURVE",
"284 775 OFFCURVE",
"295 775 CURVE SMOOTH",
"316 775 OFFCURVE",
"333 758 OFFCURVE",
"333 737 CURVE SMOOTH",
"333 716 OFFCURVE",
"316 699 OFFCURVE",
"295 699 CURVE SMOOTH",
"274 699 OFFCURVE",
"257 716 OFFCURVE",
"257 737 CURVE SMOOTH",
"257 748 OFFCURVE",
"261 757 OFFCURVE",
"268 764 CURVE SMOOTH"
);
},
{
closed = 1;
nodes = (
"253 663 OFFCURVE",
"272 655 OFFCURVE",
"295 655 CURVE SMOOTH",
"340 655 OFFCURVE",
"377 692 OFFCURVE",
"377 737 CURVE SMOOTH",
"377 782 OFFCURVE",
"340 819 OFFCURVE",
"295 819 CURVE SMOOTH",
"250 819 OFFCURVE",
"213 782 OFFCURVE",
"213 737 CURVE SMOOTH",
"213 714 OFFCURVE",
"221 695 OFFCURVE",
"237 679 CURVE SMOOTH"
);
},
{
closed = 1;
nodes = (
"27 31 LINE",
"25 25 OFFCURVE",
"24 18 OFFCURVE",
"24 10 CURVE SMOOTH",
"24 -6 OFFCURVE",
"43 -16 OFFCURVE",
"55 -16 CURVE SMOOTH",
"69 -16 OFFCURVE",
"80 -7 OFFCURVE",
"87 10 CURVE SMOOTH",
"157 194 LINE",
"433 194 LINE",
"503 10 LINE SMOOTH",
"510 -7 OFFCURVE",
"520 -16 OFFCURVE",
"535 -16 CURVE SMOOTH",
"547 -16 OFFCURVE",
"566 -6 OFFCURVE",
"566 10 CURVE SMOOTH",
"566 18 OFFCURVE",
"565 25 OFFCURVE",
"563 31 CURVE",
"331 636 LINE",
"259 636 LINE"
);
},
{
closed = 1;
nodes = (
"294 546 LINE",
"409 256 LINE",
"181 256 LINE"
);
}
);
width = 590;
}
);
leftKerningGroup = A;
note = Aring;
rightKerningGroup = A;
unicode = 00C5;
},
{
glyphname = AE;
lastChange = "2016-07-31 02:28:38 +0000";
layers = (
{
layerId = "54C0795B-BA9F-4804-AEEC-86C9BCD12C1B";
paths = (
{
closed = 1;
nodes = (
"705 322 OFFCURVE",
"719 332 OFFCURVE",
"719 351 CURVE SMOOTH",
"719 373 OFFCURVE",
"705 384 OFFCURVE",
"677 384 CURVE SMOOTH",
"465 384 LINE",
"465 574 LINE",
"797 574 LINE SMOOTH",
"823 574 OFFCURVE",
"836 584 OFFCURVE",
"836 603 CURVE SMOOTH",
"836 625 OFFCURVE",
"823 636 OFFCURVE",
"797 636 CURVE SMOOTH",
"431 636 LINE SMOOTH",
"421 636 OFFCURVE",
"413 632 OFFCURVE",
"408 624 CURVE SMOOTH",
"18 32 LINE SMOOTH",
"12 23 OFFCURVE",
"9 14 OFFCURVE",
"9 7 CURVE SMOOTH",
"9 -2 OFFCURVE",
"12 -7 OFFCURVE",
"18 -10 CURVE",
"23 -14 OFFCURVE",
"29 -16 OFFCURVE",
"34 -16 CURVE SMOOTH",
"47 -16 OFFCURVE",
"60 -8 OFFCURVE",
"71 9 CURVE SMOOTH",
"191 189 LINE",
"402 189 LINE",
"402 40 LINE SMOOTH",
"402 13 OFFCURVE",
"412 0 OFFCURVE",
"431 0 CURVE SMOOTH",
"797 0 LINE SMOOTH",
"823 0 OFFCURVE",
"836 10 OFFCURVE",
"836 29 CURVE SMOOTH",
"836 51 OFFCURVE",
"823 62 OFFCURVE",
"797 62 CURVE SMOOTH",
"465 62 LINE",
"465 322 LINE",
"677 322 LINE SMOOTH"
);
},
{
closed = 1;
nodes = (
"402 251 LINE",
"232 251 LINE",
"402 511 LINE"
);
}
);
width = 884;
}
);
leftKerningGroup = AE;
note = AE;
rightKerningGroup = E;
unicode = 00C6;
},
{
glyphname = Ccedilla;
lastChange = "2016-07-31 02:28:38 +0000";
layers = (
{
layerId = "54C0795B-BA9F-4804-AEEC-86C9BCD12C1B";
paths = (
{
closed = 1;
nodes = (
"291 -29 OFFCURVE",
"309 -55 OFFCURVE",
"341 -78 CURVE SMOOTH",
"352 -86 OFFCURVE",
"357 -93 OFFCURVE",
"357 -100 CURVE SMOOTH",
"357 -113 OFFCURVE",
"347 -120 OFFCURVE",
"326 -120 CURVE SMOOTH",
"314 -120 OFFCURVE",
"301 -117 OFFCURVE",
"286 -111 CURVE SMOOTH",
"271 -105 OFFCURVE",
"261 -102 OFFCURVE",
"255 -102 CURVE SMOOTH",
"243 -102 OFFCURVE",
"234 -110 OFFCURVE",
"234 -125 CURVE SMOOTH",
"234 -164 OFFCURVE",
"280 -180 OFFCURVE",
"325 -180 CURVE SMOOTH",
"370 -180 OFFCURVE",
"419 -146 OFFCURVE",
"419 -94 CURVE SMOOTH",
"419 -67 OFFCURVE",
"404 -47 OFFCURVE",
"388 -38 CURVE",
"367 -25 OFFCURVE",
"354 -12 OFFCURVE",
"351 0 CURVE",
"450 0 LINE SMOOTH",
"534 0 OFFCURVE",
"555 49 OFFCURVE",
"555 111 CURVE SMOOTH",
"555 142 OFFCURVE",
"545 157 OFFCURVE",
"524 157 CURVE SMOOTH",
"503 157 OFFCURVE",
"493 145 OFFCURVE",
"493 122 CURVE SMOOTH",
"493 75 OFFCURVE",
"482 62 OFFCURVE",
"443 62 CURVE SMOOTH",
"309 62 LINE SMOOTH",
"169 62 OFFCURVE",
"133 78 OFFCURVE",
"133 183 CURVE SMOOTH",
"133 453 LINE SMOOTH",
"133 557 OFFCURVE",
"169 574 OFFCURVE",
"297 574 CURVE SMOOTH",
"443 574 LINE SMOOTH",
"482 574 OFFCURVE",
"493 562 OFFCURVE",
"493 515 CURVE SMOOTH",
"493 491 OFFCURVE",
"503 479 OFFCURVE",
"524 479 CURVE SMOOTH",
"545 479 OFFCURVE",
"555 492 OFFCURVE",
"555 519 CURVE SMOOTH",
"555 590 OFFCURVE",
"534 636 OFFCURVE",
"450 636 CURVE SMOOTH",
"297 636 LINE SMOOTH",
"141 636 OFFCURVE",
"71 598 OFFCURVE",
"71 454 CURVE SMOOTH",
"71 182 LINE SMOOTH",
"71 43 OFFCURVE",
"136 3 OFFCURVE",
"288 0 CURVE"
);
}
);
width = 610;
}
);
leftKerningGroup = C;
note = Ccedilla;
rightKerningGroup = C;
unicode = 00C7;
},
{
glyphname = Egrave;
lastChange = "2016-07-31 02:28:46 +0000";
layers = (
{
layerId = "54C0795B-BA9F-4804-AEEC-86C9BCD12C1B";
paths = (
{
closed = 1;
nodes = (
"258 814 OFFCURVE",
"249 819 OFFCURVE",
"241 819 CURVE SMOOTH",
"225 819 OFFCURVE",
"209 803 OFFCURVE",
"209 788 CURVE SMOOTH",
"209 781 OFFCURVE",
"214 772 OFFCURVE",
"223 761 CURVE",
"292 693 LINE",
"301 683 OFFCURVE",
"310 678 OFFCURVE",
"319 678 CURVE SMOOTH",
"338 678 OFFCURVE",
"351 692 OFFCURVE",
"351 708 CURVE SMOOTH",
"351 716 OFFCURVE",
"347 725 OFFCURVE",
"338 735 CURVE",
"268 804 LINE SMOOTH"
);
},
{
closed = 1;
nodes = (
"437 327 OFFCURVE",
"451 337 OFFCURVE",
"451 356 CURVE SMOOTH",
"451 378 OFFCURVE",
"437 389 OFFCURVE",
"408 389 CURVE SMOOTH",
"146 389 LINE",
"146 574 LINE",
"529 574 LINE SMOOTH",
"555 574 OFFCURVE",
"568 584 OFFCURVE",
"568 603 CURVE SMOOTH",
"568 625 OFFCURVE",
"555 636 OFFCURVE",
"529 636 CURVE SMOOTH",
"113 636 LINE SMOOTH",
"94 636 OFFCURVE",
"84 623 OFFCURVE",
"84 596 CURVE SMOOTH",
"84 40 LINE SMOOTH",
"84 13 OFFCURVE",
"94 0 OFFCURVE",
"113 0 CURVE SMOOTH",
"529 0 LINE SMOOTH",
"555 0 OFFCURVE",
"568 10 OFFCURVE",
"568 29 CURVE SMOOTH",
"568 51 OFFCURVE",
"555 62 OFFCURVE",
"529 62 CURVE SMOOTH",
"146 62 LINE",
"146 327 LINE",
"408 327 LINE SMOOTH"
);
}
);
width = 617;
}
);
leftKerningGroup = B;
note = Egrave;
rightKerningGroup = E;
unicode = 00C8;
},
{
glyphname = Eacute;
lastChange = "2016-07-31 02:28:46 +0000";
layers = (
{
layerId = "54C0795B-BA9F-4804-AEEC-86C9BCD12C1B";
paths = (
{
closed = 1;
nodes = (
"264 725 OFFCURVE",
"260 716 OFFCURVE",
"260 708 CURVE SMOOTH",
"260 692 OFFCURVE",
"273 678 OFFCURVE",
"292 678 CURVE SMOOTH",
"301 678 OFFCURVE",
"310 683 OFFCURVE",
"319 693 CURVE",
"388 761 LINE",
"397 772 OFFCURVE",
"402 781 OFFCURVE",
"402 788 CURVE SMOOTH",
"402 803 OFFCURVE",
"386 819 OFFCURVE",
"370 819 CURVE SMOOTH",
"362 819 OFFCURVE",
"353 814 OFFCURVE",
"343 804 CURVE SMOOTH",
"273 735 LINE"
);
},
{
closed = 1;
nodes = (
"437 327 OFFCURVE",
"451 337 OFFCURVE",
"451 356 CURVE SMOOTH",
"451 378 OFFCURVE",
"437 389 OFFCURVE",
"408 389 CURVE SMOOTH",
"146 389 LINE",
"146 574 LINE",
"529 574 LINE SMOOTH",
"555 574 OFFCURVE",
"568 584 OFFCURVE",
"568 603 CURVE SMOOTH",
"568 625 OFFCURVE",
"555 636 OFFCURVE",
"529 636 CURVE SMOOTH",
"113 636 LINE SMOOTH",
"94 636 OFFCURVE",
"84 623 OFFCURVE",
"84 596 CURVE SMOOTH",
"84 40 LINE SMOOTH",
"84 13 OFFCURVE",
"94 0 OFFCURVE",
"113 0 CURVE SMOOTH",
"529 0 LINE SMOOTH",
"555 0 OFFCURVE",
"568 10 OFFCURVE",
"568 29 CURVE SMOOTH",
"568 51 OFFCURVE",
"555 62 OFFCURVE",
"529 62 CURVE SMOOTH",
"146 62 LINE",
"146 327 LINE",
"408 327 LINE SMOOTH"
);
}
);
width = 617;
}
);
leftKerningGroup = B;
note = Eacute;
rightKerningGroup = E;
unicode = 00C9;
},
{
glyphname = Ecircumflex;
lastChange = "2016-07-31 02:28:46 +0000";
layers = (
{
layerId = "54C0795B-BA9F-4804-AEEC-86C9BCD12C1B";
paths = (
{
closed = 1;
nodes = (
"177 690 OFFCURVE",
"175 683 OFFCURVE",
"175 674 CURVE SMOOTH",
"175 655 OFFCURVE",
"184 646 OFFCURVE",
"203 646 CURVE SMOOTH",
"212 646 OFFCURVE",
"221 650 OFFCURVE",
"228 659 CURVE SMOOTH",
"235 668 LINE",
"321 750 LINE",
"408 668 LINE",
"415 659 LINE SMOOTH",
"422 650 OFFCURVE",
"431 646 OFFCURVE",
"440 646 CURVE SMOOTH",
"459 646 OFFCURVE",
"468 655 OFFCURVE",
"468 674 CURVE SMOOTH",
"468 683 OFFCURVE",
"466 690 OFFCURVE",
"461 695 CURVE",
"352 819 LINE",
"289 819 LINE",
"182 695 LINE"
);
},
{
closed = 1;
nodes = (
"437 327 OFFCURVE",
"451 337 OFFCURVE",
"451 356 CURVE SMOOTH",
"451 378 OFFCURVE",
"437 389 OFFCURVE",
"408 389 CURVE SMOOTH",
"146 389 LINE",
"146 574 LINE",
"529 574 LINE SMOOTH",
"555 574 OFFCURVE",
"568 584 OFFCURVE",
"568 603 CURVE SMOOTH",
"568 625 OFFCURVE",
"555 636 OFFCURVE",
"529 636 CURVE SMOOTH",
"113 636 LINE SMOOTH",
"94 636 OFFCURVE",
"84 623 OFFCURVE",
"84 596 CURVE SMOOTH",
"84 40 LINE SMOOTH",
"84 13 OFFCURVE",
"94 0 OFFCURVE",
"113 0 CURVE SMOOTH",
"529 0 LINE SMOOTH",
"555 0 OFFCURVE",
"568 10 OFFCURVE",
"568 29 CURVE SMOOTH",
"568 51 OFFCURVE",
"555 62 OFFCURVE",
"529 62 CURVE SMOOTH",
"146 62 LINE",
"146 327 LINE",
"408 327 LINE SMOOTH"
);
}
);
width = 617;
}
);
leftKerningGroup = B;
note = Ecircumflex;
rightKerningGroup = E;
unicode = 00CA;
},
{
glyphname = Edieresis;
lastChange = "2016-07-31 02:28:46 +0000";
layers = (
{
layerId = "54C0795B-BA9F-4804-AEEC-86C9BCD12C1B";
paths = (
{
closed = 1;
nodes = (
"253 785 OFFCURVE",
"240 789 OFFCURVE",
"228 789 CURVE SMOOTH",
"204 789 OFFCURVE",
"173 770 OFFCURVE",
"173 743 CURVE SMOOTH",
"173 716 OFFCURVE",
"201 697 OFFCURVE",
"228 697 CURVE SMOOTH",
"255 697 OFFCURVE",
"285 718 OFFCURVE",
"285 743 CURVE SMOOTH",
"285 756 OFFCURVE",
"279 767 OFFCURVE",
"266 776 CURVE SMOOTH"
);
},
{
closed = 1;
nodes = (
"439 785 OFFCURVE",
"426 789 OFFCURVE",
"414 789 CURVE SMOOTH",
"390 789 OFFCURVE",
"359 770 OFFCURVE",
"359 743 CURVE SMOOTH",
"359 716 OFFCURVE",
"387 697 OFFCURVE",
"414 697 CURVE SMOOTH",
"441 697 OFFCURVE",
"471 718 OFFCURVE",
"471 743 CURVE SMOOTH",
"471 756 OFFCURVE",
"465 767 OFFCURVE",
"452 776 CURVE SMOOTH"
);
},
{
closed = 1;
nodes = (
"437 327 OFFCURVE",
"451 337 OFFCURVE",
"451 356 CURVE SMOOTH",
"451 378 OFFCURVE",
"437 389 OFFCURVE",
"408 389 CURVE SMOOTH",
"146 389 LINE",
"146 574 LINE",
"529 574 LINE SMOOTH",
"555 574 OFFCURVE",
"568 584 OFFCURVE",
"568 603 CURVE SMOOTH",
"568 625 OFFCURVE",
"555 636 OFFCURVE",
"529 636 CURVE SMOOTH",
"113 636 LINE SMOOTH",
"94 636 OFFCURVE",
"84 623 OFFCURVE",
"84 596 CURVE SMOOTH",
"84 40 LINE SMOOTH",
"84 13 OFFCURVE",
"94 0 OFFCURVE",
"113 0 CURVE SMOOTH",
"529 0 LINE SMOOTH",
"555 0 OFFCURVE",
"568 10 OFFCURVE",
"568 29 CURVE SMOOTH",
"568 51 OFFCURVE",
"555 62 OFFCURVE",
"529 62 CURVE SMOOTH",
"146 62 LINE",
"146 327 LINE",
"408 327 LINE SMOOTH"
);
}
);
width = 617;
}
);
leftKerningGroup = B;
note = Edieresis;
rightKerningGroup = E;
unicode = 00CB;
},
{
glyphname = Igrave;
lastChange = "2016-07-31 02:28:46 +0000";
layers = (
{
layerId = "54C0795B-BA9F-4804-AEEC-86C9BCD12C1B";
paths = (
{
closed = 1;
nodes = (
"52 814 OFFCURVE",
"43 819 OFFCURVE",
"35 819 CURVE SMOOTH",
"19 819 OFFCURVE",
"3 803 OFFCURVE",
"3 788 CURVE SMOOTH",
"3 781 OFFCURVE",
"8 772 OFFCURVE",
"17 761 CURVE",
"86 693 LINE",
"95 683 OFFCURVE",
"104 678 OFFCURVE",
"113 678 CURVE SMOOTH",
"132 678 OFFCURVE",
"145 692 OFFCURVE",
"145 708 CURVE SMOOTH",
"145 716 OFFCURVE",
"141 725 OFFCURVE",
"132 735 CURVE",
"62 804 LINE SMOOTH"
);
},
{
closed = 1;
nodes = (
"146 631 OFFCURVE",
"136 643 OFFCURVE",
"115 643 CURVE SMOOTH",
"94 643 OFFCURVE",
"84 631 OFFCURVE",
"84 606 CURVE SMOOTH",
"84 29 LINE SMOOTH",
"84 5 OFFCURVE",
"94 -7 OFFCURVE",
"115 -7 CURVE SMOOTH",
"136 -7 OFFCURVE",
"146 5 OFFCURVE",
"146 29 CURVE SMOOTH",
"146 606 LINE SMOOTH"
);
}
);
width = 230;
}
);
leftKerningGroup = B;
note = Igrave;
rightKerningGroup = H;
unicode = 00CC;
},
{
glyphname = Iacute;
lastChange = "2016-07-31 02:28:46 +0000";
layers = (
{
layerId = "54C0795B-BA9F-4804-AEEC-86C9BCD12C1B";
paths = (
{
closed = 1;
nodes = (
"88 725 OFFCURVE",
"84 716 OFFCURVE",
"84 708 CURVE SMOOTH",
"84 692 OFFCURVE",
"97 678 OFFCURVE",
"116 678 CURVE SMOOTH",
"125 678 OFFCURVE",
"134 683 OFFCURVE",
"143 693 CURVE",
"212 761 LINE",
"221 772 OFFCURVE",
"226 781 OFFCURVE",
"226 788 CURVE SMOOTH",
"226 803 OFFCURVE",
"210 819 OFFCURVE",
"194 819 CURVE SMOOTH",
"186 819 OFFCURVE",
"177 814 OFFCURVE",
"167 804 CURVE SMOOTH",
"97 735 LINE"
);
},
{
closed = 1;
nodes = (
"146 631 OFFCURVE",
"136 643 OFFCURVE",
"115 643 CURVE SMOOTH",
"94 643 OFFCURVE",
"84 631 OFFCURVE",
"84 606 CURVE SMOOTH",
"84 29 LINE SMOOTH",
"84 5 OFFCURVE",
"94 -7 OFFCURVE",
"115 -7 CURVE SMOOTH",
"136 -7 OFFCURVE",
"146 5 OFFCURVE",
"146 29 CURVE SMOOTH",
"146 606 LINE SMOOTH"
);
}
);
width = 230;
}
);
leftKerningGroup = B;
note = Iacute;
rightKerningGroup = H;
unicode = 00CD;
},
{
glyphname = Icircumflex;
lastChange = "2016-07-31 02:28:46 +0000";
layers = (
{
layerId = "54C0795B-BA9F-4804-AEEC-86C9BCD12C1B";
paths = (
{
closed = 1;
nodes = (
"-28 690 OFFCURVE",
"-30 683 OFFCURVE",
"-30 674 CURVE SMOOTH",
"-30 655 OFFCURVE",
"-21 646 OFFCURVE",
"-2 646 CURVE SMOOTH",
"7 646 OFFCURVE",
"16 650 OFFCURVE",
"23 659 CURVE SMOOTH",
"30 668 LINE",
"116 750 LINE",
"203 668 LINE",
"210 659 LINE SMOOTH",
"217 650 OFFCURVE",
"226 646 OFFCURVE",
"235 646 CURVE SMOOTH",
"254 646 OFFCURVE",
"263 655 OFFCURVE",
"263 674 CURVE SMOOTH",
"263 683 OFFCURVE",
"261 690 OFFCURVE",
"256 695 CURVE",
"147 819 LINE",
"84 819 LINE",
"-23 695 LINE"
);
},
{
closed = 1;
nodes = (
"146 631 OFFCURVE",
"136 643 OFFCURVE",
"115 643 CURVE SMOOTH",
"94 643 OFFCURVE",
"84 631 OFFCURVE",
"84 606 CURVE SMOOTH",
"84 29 LINE SMOOTH",
"84 5 OFFCURVE",
"94 -7 OFFCURVE",
"115 -7 CURVE SMOOTH",
"136 -7 OFFCURVE",
"146 5 OFFCURVE",
"146 29 CURVE SMOOTH",
"146 606 LINE SMOOTH"
);
}
);
width = 230;
}
);
leftKerningGroup = B;
note = Icircumflex;
rightKerningGroup = H;
unicode = 00CE;
},
{
glyphname = Idieresis;
lastChange = "2016-07-31 02:28:46 +0000";
layers = (
{
layerId = "54C0795B-BA9F-4804-AEEC-86C9BCD12C1B";
paths = (
{
closed = 1;
nodes = (
"47 785 OFFCURVE",
"34 789 OFFCURVE",
"22 789 CURVE SMOOTH",
"-2 789 OFFCURVE",
"-33 770 OFFCURVE",
"-33 743 CURVE SMOOTH",
"-33 716 OFFCURVE",
"-5 697 OFFCURVE",
"22 697 CURVE SMOOTH",
"49 697 OFFCURVE",
"79 718 OFFCURVE",
"79 743 CURVE SMOOTH",
"79 756 OFFCURVE",
"73 767 OFFCURVE",
"60 776 CURVE SMOOTH"
);
},
{
closed = 1;
nodes = (
"233 785 OFFCURVE",
"220 789 OFFCURVE",
"208 789 CURVE SMOOTH",
"184 789 OFFCURVE",
"153 770 OFFCURVE",
"153 743 CURVE SMOOTH",
"153 716 OFFCURVE",
"181 697 OFFCURVE",
"208 697 CURVE SMOOTH",
"235 697 OFFCURVE",
"265 718 OFFCURVE",
"265 743 CURVE SMOOTH",
"265 756 OFFCURVE",
"259 767 OFFCURVE",
"246 776 CURVE SMOOTH"
);
},
{
closed = 1;
nodes = (
"146 631 OFFCURVE",
"136 643 OFFCURVE",
"115 643 CURVE SMOOTH",
"94 643 OFFCURVE",
"84 631 OFFCURVE",
"84 606 CURVE SMOOTH",
"84 29 LINE SMOOTH",
"84 5 OFFCURVE",
"94 -7 OFFCURVE",
"115 -7 CURVE SMOOTH",
"136 -7 OFFCURVE",
"146 5 OFFCURVE",
"146 29 CURVE SMOOTH",
"146 606 LINE SMOOTH"
);
}
);
width = 230;
}
);
leftKerningGroup = B;
note = Idieresis;
rightKerningGroup = H;
unicode = 00CF;
},
{
glyphname = Eth;
lastChange = "2016-07-31 02:28:38 +0000";
layers = (
{
layerId = "54C0795B-BA9F-4804-AEEC-86C9BCD12C1B";
paths = (
{
closed = 1;
nodes = (
"506 78 OFFCURVE",
"470 62 OFFCURVE",
"331 62 CURVE SMOOTH",
"146 62 LINE",
"146 293 LINE",
"240 293 LINE SMOOTH",
"241 293 OFFCURVE",
"241 293 OFFCURVE",
"242 293 CURVE SMOOTH",
"267 293 OFFCURVE",
"279 303 OFFCURVE",
"279 324 CURVE SMOOTH",
"279 345 OFFCURVE",
"266 356 OFFCURVE",
"240 356 CURVE SMOOTH",
"146 356 LINE",
"146 574 LINE",
"343 574 LINE SMOOTH",
"470 574 OFFCURVE",
"506 558 OFFCURVE",
"506 453 CURVE SMOOTH",
"506 183 LINE SMOOTH"
);
},
{
closed = 1;
nodes = (
"568 598 OFFCURVE",
"498 636 OFFCURVE",
"343 636 CURVE SMOOTH",
"113 636 LINE SMOOTH",
"94 636 OFFCURVE",
"84 623 OFFCURVE",
"84 596 CURVE SMOOTH",
"84 356 LINE",
"59 356 OFFCURVE",
"47 346 OFFCURVE",
"47 326 CURVE SMOOTH",
"47 304 OFFCURVE",
"59 293 OFFCURVE",
"84 293 CURVE",
"84 40 LINE SMOOTH",
"84 13 OFFCURVE",
"94 0 OFFCURVE",
"113 0 CURVE SMOOTH",
"331 0 LINE SMOOTH",
"498 0 OFFCURVE",
"568 37 OFFCURVE",
"568 182 CURVE SMOOTH",
"568 454 LINE SMOOTH"
);
}
);
width = 639;
}
);
leftKerningGroup = B;
note = Eth;
rightKerningGroup = D;
unicode = 00D0;
},
{
glyphname = Ntilde;
lastChange = "2016-07-31 02:28:46 +0000";
layers = (
{
layerId = "54C0795B-BA9F-4804-AEEC-86C9BCD12C1B";
paths = (
{
closed = 1;
nodes = (
"274 802 OFFCURVE",
"270 803 OFFCURVE",
"263 803 CURVE SMOOTH",
"256 803 OFFCURVE",
"249 800 OFFCURVE",
"240 793 CURVE",
"195 755 LINE SMOOTH",
"184 746 OFFCURVE",
"179 737 OFFCURVE",
"179 727 CURVE SMOOTH",
"179 707 OFFCURVE",
"194 696 OFFCURVE",
"211 696 CURVE SMOOTH",
"220 696 OFFCURVE",
"227 699 OFFCURVE",
"234 706 CURVE",
"265 734 LINE",
"266 735 OFFCURVE",
"268 736 OFFCURVE",
"270 736 CURVE SMOOTH",
"272 736 OFFCURVE",
"275 735 OFFCURVE",
"278 734 CURVE",
"372 698 LINE",
"374 697 OFFCURVE",
"378 696 OFFCURVE",
"385 696 CURVE SMOOTH",
"392 696 OFFCURVE",
"400 699 OFFCURVE",
"409 706 CURVE",
"454 744 LINE SMOOTH",
"465 753 OFFCURVE",
"470 762 OFFCURVE",
"470 772 CURVE SMOOTH",
"470 792 OFFCURVE",
"455 803 OFFCURVE",
"438 803 CURVE SMOOTH",
"429 803 OFFCURVE",
"422 800 OFFCURVE",
"415 793 CURVE",
"384 765 LINE",
"383 764 OFFCURVE",
"381 763 OFFCURVE",
"379 763 CURVE SMOOTH",
"377 763 OFFCURVE",
"374 764 OFFCURVE",
"371 765 CURVE",
"277 801 LINE"
);
},
{
closed = 1;
nodes = (
"558 -7 OFFCURVE",
"568 6 OFFCURVE",
"568 31 CURVE SMOOTH",
"568 604 LINE SMOOTH",
"568 630 OFFCURVE",
"558 643 OFFCURVE",
"537 643 CURVE SMOOTH",
"516 643 OFFCURVE",
"506 629 OFFCURVE",
"506 602 CURVE SMOOTH",
"506 107 LINE",
"147 622 LINE",
"138 636 OFFCURVE",
"126 643 OFFCURVE",
"113 643 CURVE SMOOTH",
"94 643 OFFCURVE",
"84 630 OFFCURVE",
"84 604 CURVE SMOOTH",
"84 31 LINE SMOOTH",
"84 6 OFFCURVE",
"94 -7 OFFCURVE",
"115 -7 CURVE SMOOTH",
"136 -7 OFFCURVE",
"146 5 OFFCURVE",
"146 29 CURVE SMOOTH",
"146 530 LINE",
"514 0 LINE",
"519 -5 OFFCURVE",
"527 -7 OFFCURVE",
"538 -7 CURVE SMOOTH"
);
}
);
width = 652;
}
);
leftKerningGroup = B;
note = Ntilde;
rightKerningGroup = H;
unicode = 00D1;
},
{
glyphname = Ograve;
lastChange = "2016-07-31 02:28:46 +0000";
layers = (
{
layerId = "54C0795B-BA9F-4804-AEEC-86C9BCD12C1B";
paths = (
{
closed = 1;
nodes = (
"244 814 OFFCURVE",
"235 819 OFFCURVE",
"227 819 CURVE SMOOTH",
"211 819 OFFCURVE",
"195 803 OFFCURVE",
"195 788 CURVE SMOOTH",
"195 781 OFFCURVE",
"200 772 OFFCURVE",
"209 761 CURVE",
"278 693 LINE",
"287 683 OFFCURVE",
"296 678 OFFCURVE",
"305 678 CURVE SMOOTH",
"324 678 OFFCURVE",
"337 692 OFFCURVE",
"337 708 CURVE SMOOTH",
"337 716 OFFCURVE",
"333 725 OFFCURVE",
"324 735 CURVE",
"254 804 LINE SMOOTH"
);
},
{
closed = 1;
nodes = (
"549 555 OFFCURVE",
"450 645 OFFCURVE",
"307 645 CURVE SMOOTH",
"163 645 OFFCURVE",
"65 555 OFFCURVE",
"65 407 CURVE SMOOTH",
"65 229 LINE SMOOTH",
"65 81 OFFCURVE",
"163 -9 OFFCURVE",
"307 -9 CURVE SMOOTH",
"450 -9 OFFCURVE",
"549 81 OFFCURVE",
"549 229 CURVE SMOOTH",
"549 407 LINE SMOOTH"
);
},
{
closed = 1;
nodes = (
"472 505 OFFCURVE",
"487 461 OFFCURVE",
"487 405 CURVE SMOOTH",
"487 231 LINE SMOOTH",
"487 118 OFFCURVE",
"424 53 OFFCURVE",
"307 53 CURVE SMOOTH",
"190 53 OFFCURVE",
"127 118 OFFCURVE",
"127 231 CURVE SMOOTH",
"127 405 LINE SMOOTH",
"127 517 OFFCURVE",
"191 583 OFFCURVE",
"307 583 CURVE SMOOTH",
"365 583 OFFCURVE",
"410 567 OFFCURVE",
"441 536 CURVE SMOOTH"
);
}
);
width = 614;
}
);
leftKerningGroup = O;
note = Ograve;
rightKerningGroup = O;
unicode = 00D2;
},
{
glyphname = Oacute;
lastChange = "2016-07-31 02:28:46 +0000";
layers = (
{
layerId = "54C0795B-BA9F-4804-AEEC-86C9BCD12C1B";
paths = (
{
closed = 1;
nodes = (
"280 725 OFFCURVE",
"276 716 OFFCURVE",
"276 708 CURVE SMOOTH",
"276 692 OFFCURVE",
"289 678 OFFCURVE",
"308 678 CURVE SMOOTH",
"317 678 OFFCURVE",
"326 683 OFFCURVE",
"335 693 CURVE",
"404 761 LINE",
"413 772 OFFCURVE",
"418 781 OFFCURVE",
"418 788 CURVE SMOOTH",
"418 803 OFFCURVE",
"402 819 OFFCURVE",
"386 819 CURVE SMOOTH",
"378 819 OFFCURVE",
"369 814 OFFCURVE",
"359 804 CURVE SMOOTH",
"289 735 LINE"
);
},
{
closed = 1;
nodes = (
"549 555 OFFCURVE",
"450 645 OFFCURVE",
"307 645 CURVE SMOOTH",
"163 645 OFFCURVE",
"65 555 OFFCURVE",
"65 407 CURVE SMOOTH",
"65 229 LINE SMOOTH",
"65 81 OFFCURVE",
"163 -9 OFFCURVE",
"307 -9 CURVE SMOOTH",
"450 -9 OFFCURVE",
"549 81 OFFCURVE",
"549 229 CURVE SMOOTH",
"549 407 LINE SMOOTH"
);
},
{
closed = 1;
nodes = (
"472 505 OFFCURVE",
"487 461 OFFCURVE",
"487 405 CURVE SMOOTH",
"487 231 LINE SMOOTH",
"487 118 OFFCURVE",
"424 53 OFFCURVE",
"307 53 CURVE SMOOTH",
"190 53 OFFCURVE",
"127 118 OFFCURVE",
"127 231 CURVE SMOOTH",
"127 405 LINE SMOOTH",
"127 517 OFFCURVE",
"191 583 OFFCURVE",
"307 583 CURVE SMOOTH",
"365 583 OFFCURVE",
"410 567 OFFCURVE",
"441 536 CURVE SMOOTH"
);
}
);
width = 614;
}
);
leftKerningGroup = O;
note = Oacute;
rightKerningGroup = O;
unicode = 00D3;
},
{
glyphname = Ocircumflex;
lastChange = "2016-07-31 02:28:46 +0000";
layers = (
{
layerId = "54C0795B-BA9F-4804-AEEC-86C9BCD12C1B";
paths = (
{
closed = 1;
nodes = (
"163 690 OFFCURVE",
"161 683 OFFCURVE",
"161 674 CURVE SMOOTH",
"161 655 OFFCURVE",
"170 646 OFFCURVE",
"189 646 CURVE SMOOTH",
"198 646 OFFCURVE",
"207 650 OFFCURVE",
"214 659 CURVE SMOOTH",
"221 668 LINE",
"307 750 LINE",
"394 668 LINE",
"401 659 LINE SMOOTH",
"408 650 OFFCURVE",
"417 646 OFFCURVE",
"426 646 CURVE SMOOTH",
"445 646 OFFCURVE",
"454 655 OFFCURVE",
"454 674 CURVE SMOOTH",
"454 683 OFFCURVE",
"452 690 OFFCURVE",
"447 695 CURVE",
"338 819 LINE",
"275 819 LINE",
"168 695 LINE"
);
},
{
closed = 1;
nodes = (
"549 555 OFFCURVE",
"450 645 OFFCURVE",
"307 645 CURVE SMOOTH",
"163 645 OFFCURVE",
"65 555 OFFCURVE",
"65 407 CURVE SMOOTH",
"65 229 LINE SMOOTH",
"65 81 OFFCURVE",
"163 -9 OFFCURVE",
"307 -9 CURVE SMOOTH",
"450 -9 OFFCURVE",
"549 81 OFFCURVE",
"549 229 CURVE SMOOTH",
"549 407 LINE SMOOTH"
);
},
{
closed = 1;
nodes = (
"472 505 OFFCURVE",
"487 461 OFFCURVE",
"487 405 CURVE SMOOTH",
"487 231 LINE SMOOTH",
"487 118 OFFCURVE",
"424 53 OFFCURVE",
"307 53 CURVE SMOOTH",
"190 53 OFFCURVE",
"127 118 OFFCURVE",
"127 231 CURVE SMOOTH",
"127 405 LINE SMOOTH",
"127 517 OFFCURVE",
"191 583 OFFCURVE",
"307 583 CURVE SMOOTH",
"365 583 OFFCURVE",
"410 567 OFFCURVE",
"441 536 CURVE SMOOTH"
);
}
);
width = 614;
}
);
leftKerningGroup = O;
note = Ocircumflex;
rightKerningGroup = O;
unicode = 00D4;
},
{
glyphname = Otilde;
lastChange = "2016-07-31 02:28:46 +0000";
layers = (
{
layerId = "54C0795B-BA9F-4804-AEEC-86C9BCD12C1B";
paths = (
{
closed = 1;
nodes = (
"256 802 OFFCURVE",
"252 803 OFFCURVE",
"245 803 CURVE SMOOTH",
"238 803 OFFCURVE",
"231 800 OFFCURVE",
"222 793 CURVE",
"177 755 LINE SMOOTH",
"166 746 OFFCURVE",
"161 737 OFFCURVE",
"161 727 CURVE SMOOTH",
"161 707 OFFCURVE",
"176 696 OFFCURVE",
"193 696 CURVE SMOOTH",
"202 696 OFFCURVE",
"209 699 OFFCURVE",
"216 706 CURVE",
"247 734 LINE",
"248 735 OFFCURVE",
"250 736 OFFCURVE",
"252 736 CURVE SMOOTH",
"254 736 OFFCURVE",
"257 735 OFFCURVE",
"260 734 CURVE",
"354 698 LINE",
"356 697 OFFCURVE",
"360 696 OFFCURVE",
"367 696 CURVE SMOOTH",
"374 696 OFFCURVE",
"382 699 OFFCURVE",
"391 706 CURVE",
"436 744 LINE SMOOTH",
"447 753 OFFCURVE",
"452 762 OFFCURVE",
"452 772 CURVE SMOOTH",
"452 792 OFFCURVE",
"437 803 OFFCURVE",
"420 803 CURVE SMOOTH",
"411 803 OFFCURVE",
"404 800 OFFCURVE",
"397 793 CURVE",
"366 765 LINE",
"365 764 OFFCURVE",
"363 763 OFFCURVE",
"361 763 CURVE SMOOTH",
"359 763 OFFCURVE",
"356 764 OFFCURVE",
"353 765 CURVE",
"259 801 LINE"
);
},
{
closed = 1;
nodes = (
"549 555 OFFCURVE",
"450 645 OFFCURVE",
"307 645 CURVE SMOOTH",
"163 645 OFFCURVE",
"65 555 OFFCURVE",
"65 407 CURVE SMOOTH",
"65 229 LINE SMOOTH",
"65 81 OFFCURVE",
"163 -9 OFFCURVE",
"307 -9 CURVE SMOOTH",
"450 -9 OFFCURVE",
"549 81 OFFCURVE",
"549 229 CURVE SMOOTH",
"549 407 LINE SMOOTH"
);
},
{
closed = 1;
nodes = (
"472 505 OFFCURVE",
"487 461 OFFCURVE",
"487 405 CURVE SMOOTH",
"487 231 LINE SMOOTH",
"487 118 OFFCURVE",
"424 53 OFFCURVE",
"307 53 CURVE SMOOTH",
"190 53 OFFCURVE",
"127 118 OFFCURVE",
"127 231 CURVE SMOOTH",
"127 405 LINE SMOOTH",
"127 517 OFFCURVE",
"191 583 OFFCURVE",
"307 583 CURVE SMOOTH",
"365 583 OFFCURVE",
"410 567 OFFCURVE",
"441 536 CURVE SMOOTH"
);
}
);
width = 614;
}
);
leftKerningGroup = O;
note = Otilde;
rightKerningGroup = O;
unicode = 00D5;
},
{
glyphname = Odieresis;
lastChange = "2016-07-31 02:28:46 +0000";
layers = (
{
layerId = "54C0795B-BA9F-4804-AEEC-86C9BCD12C1B";
paths = (
{
closed = 1;
nodes = (
"239 785 OFFCURVE",
"226 789 OFFCURVE",
"214 789 CURVE SMOOTH",
"190 789 OFFCURVE",
"159 770 OFFCURVE",
"159 743 CURVE SMOOTH",
"159 716 OFFCURVE",
"187 697 OFFCURVE",
"214 697 CURVE SMOOTH",
"241 697 OFFCURVE",
"271 718 OFFCURVE",
"271 743 CURVE SMOOTH",
"271 756 OFFCURVE",
"265 767 OFFCURVE",
"252 776 CURVE SMOOTH"
);
},
{
closed = 1;
nodes = (
"425 785 OFFCURVE",
"412 789 OFFCURVE",
"400 789 CURVE SMOOTH",
"376 789 OFFCURVE",
"345 770 OFFCURVE",
"345 743 CURVE SMOOTH",
"345 716 OFFCURVE",
"373 697 OFFCURVE",
"400 697 CURVE SMOOTH",
"427 697 OFFCURVE",
"457 718 OFFCURVE",
"457 743 CURVE SMOOTH",
"457 756 OFFCURVE",
"451 767 OFFCURVE",
"438 776 CURVE SMOOTH"
);
},
{
closed = 1;
nodes = (
"549 555 OFFCURVE",
"450 645 OFFCURVE",
"307 645 CURVE SMOOTH",
"163 645 OFFCURVE",
"65 555 OFFCURVE",
"65 407 CURVE SMOOTH",
"65 229 LINE SMOOTH",
"65 81 OFFCURVE",
"163 -9 OFFCURVE",
"307 -9 CURVE SMOOTH",
"450 -9 OFFCURVE",
"549 81 OFFCURVE",
"549 229 CURVE SMOOTH",
"549 407 LINE SMOOTH"
);
},
{
closed = 1;
nodes = (
"472 505 OFFCURVE",
"487 461 OFFCURVE",
"487 405 CURVE SMOOTH",
"487 231 LINE SMOOTH",
"487 118 OFFCURVE",
"424 53 OFFCURVE",
"307 53 CURVE SMOOTH",
"190 53 OFFCURVE",
"127 118 OFFCURVE",
"127 231 CURVE SMOOTH",
"127 405 LINE SMOOTH",
"127 517 OFFCURVE",
"191 583 OFFCURVE",
"307 583 CURVE SMOOTH",
"365 583 OFFCURVE",
"410 567 OFFCURVE",
"441 536 CURVE SMOOTH"
);
}
);
width = 614;
}
);
leftKerningGroup = O;
note = Odieresis;
rightKerningGroup = O;
unicode = 00D6;
},
{
glyphname = multiply;
lastChange = "2016-07-31 02:28:38 +0000";
layers = (
{
layerId = "54C0795B-BA9F-4804-AEEC-86C9BCD12C1B";
paths = (
{
closed = 1;
nodes = (
"421 358 LINE SMOOTH",
"430 367 OFFCURVE",
"435 376 OFFCURVE",
"435 384 CURVE SMOOTH",
"435 400 OFFCURVE",
"423 414 OFFCURVE",
"405 414 CURVE SMOOTH",
"396 414 OFFCURVE",
"387 409 OFFCURVE",
"379 400 CURVE",
"252 273 LINE",
"130 395 LINE SMOOTH",
"121 404 OFFCURVE",
"113 408 OFFCURVE",
"105 408 CURVE SMOOTH",
"88 408 OFFCURVE",
"74 393 OFFCURVE",
"74 376 CURVE SMOOTH",
"74 367 OFFCURVE",
"78 359 OFFCURVE",
"86 351 CURVE SMOOTH",
"208 229 LINE",
"81 102 LINE",
"71 93 OFFCURVE",
"66 85 OFFCURVE",
"66 76 CURVE SMOOTH",
"66 59 OFFCURVE",
"80 47 OFFCURVE",
"98 47 CURVE SMOOTH",
"107 47 OFFCURVE",
"115 51 OFFCURVE",
"123 60 CURVE",
"250 187 LINE",
"372 65 LINE SMOOTH",
"381 56 OFFCURVE",
"389 52 OFFCURVE",
"397 52 CURVE SMOOTH",
"413 52 OFFCURVE",
"429 67 OFFCURVE",
"429 84 CURVE SMOOTH",
"429 92 OFFCURVE",
"425 100 OFFCURVE",
"416 109 CURVE SMOOTH",
"294 231 LINE"
);
}
);
width = 502;
}
);
note = multiply;
rightKerningGroup = numbersign;
unicode = 00D7;
},
{
glyphname = Oslash;
lastChange = "2016-07-31 02:28:38 +0000";
layers = (
{
layerId = "54C0795B-BA9F-4804-AEEC-86C9BCD12C1B";
paths = (
{
closed = 1;
nodes = (
"132 173 OFFCURVE",
"127 200 OFFCURVE",
"127 231 CURVE SMOOTH",
"127 405 LINE SMOOTH",
"127 517 OFFCURVE",
"192 583 OFFCURVE",
"305 583 CURVE SMOOTH",
"361 583 OFFCURVE",
"405 569 OFFCURVE",
"437 540 CURVE",
"141 148 LINE"
);
},
{
closed = 1;
nodes = (
"430 626 OFFCURVE",
"374 645 OFFCURVE",
"304 645 CURVE SMOOTH",
"164 645 OFFCURVE",
"65 555 OFFCURVE",
"65 407 CURVE SMOOTH",
"65 229 LINE SMOOTH",
"65 177 OFFCURVE",
"77 132 OFFCURVE",
"100 94 CURVE",
"73 58 LINE SMOOTH",
"66 49 OFFCURVE",
"63 40 OFFCURVE",
"63 33 CURVE SMOOTH",
"63 17 OFFCURVE",
"80 4 OFFCURVE",
"97 4 CURVE SMOOTH",
"106 4 OFFCURVE",
"114 10 OFFCURVE",
"123 21 CURVE",
"142 46 LINE",
"185 9 OFFCURVE",
"241 -9 OFFCURVE",
"310 -9 CURVE SMOOTH",
"449 -9 OFFCURVE",
"549 81 OFFCURVE",
"549 229 CURVE SMOOTH",
"549 407 LINE SMOOTH",
"549 458 OFFCURVE",
"538 503 OFFCURVE",
"515 541 CURVE",
"542 577 LINE SMOOTH",
"549 586 OFFCURVE",
"552 595 OFFCURVE",
"552 603 CURVE SMOOTH",
"552 618 OFFCURVE",
"538 632 OFFCURVE",
"520 632 CURVE SMOOTH",
"511 632 OFFCURVE",
"502 626 OFFCURVE",
"493 615 CURVE SMOOTH",
"473 589 LINE"
);
},
{
closed = 1;
nodes = (
"482 461 OFFCURVE",
"487 434 OFFCURVE",
"487 405 CURVE SMOOTH",
"487 231 LINE SMOOTH",
"487 118 OFFCURVE",
"423 53 OFFCURVE",
"311 53 CURVE SMOOTH",
"254 53 OFFCURVE",
"210 67 OFFCURVE",
"178 95 CURVE",
"473 486 LINE"
);
}
);
width = 614;
}
);
leftKerningGroup = O;
note = Oslash;
rightKerningGroup = O;
unicode = 00D8;
},
{
glyphname = Ugrave;
lastChange = "2016-07-31 02:28:46 +0000";
layers = (
{
layerId = "54C0795B-BA9F-4804-AEEC-86C9BCD12C1B";
paths = (
{
closed = 1;
nodes = (
"258 808 OFFCURVE",
"249 814 OFFCURVE",
"241 814 CURVE SMOOTH",
"225 814 OFFCURVE",
"209 803 OFFCURVE",
"209 783 CURVE SMOOTH",
"209 774 OFFCURVE",
"212 765 OFFCURVE",
"219 758 CURVE",
"315 643 LINE",
"326 632 OFFCURVE",
"335 626 OFFCURVE",
"343 626 CURVE SMOOTH",
"359 626 OFFCURVE",
"374 637 OFFCURVE",
"374 656 CURVE SMOOTH",
"374 665 OFFCURVE",
"371 674 OFFCURVE",
"364 682 CURVE SMOOTH",
"268 797 LINE"
);
},
{
closed = 1;
nodes = (
"500 118 OFFCURVE",
"437 53 OFFCURVE",
"320 53 CURVE SMOOTH",
"203 53 OFFCURVE",
"140 118 OFFCURVE",
"140 231 CURVE SMOOTH",
"140 607 LINE SMOOTH",
"140 631 OFFCURVE",
"130 643 OFFCURVE",
"109 643 CURVE SMOOTH",
"88 643 OFFCURVE",
"78 631 OFFCURVE",
"78 606 CURVE SMOOTH",
"78 229 LINE SMOOTH",
"78 81 OFFCURVE",
"176 -10 OFFCURVE",
"320 -10 CURVE SMOOTH",
"321 -10 OFFCURVE",
"321 -10 OFFCURVE",
"322 -10 CURVE SMOOTH",
"393 -10 OFFCURVE",
"451 11 OFFCURVE",
"494 54 CURVE SMOOTH",
"539 97 OFFCURVE",
"562 155 OFFCURVE",
"562 229 CURVE SMOOTH",
"562 606 LINE SMOOTH",
"562 631 OFFCURVE",
"552 643 OFFCURVE",
"531 643 CURVE SMOOTH",
"510 643 OFFCURVE",
"500 631 OFFCURVE",
"500 607 CURVE SMOOTH",
"500 231 LINE SMOOTH"
);
}
);
width = 640;
}
);
leftKerningGroup = U;
note = Ugrave;
rightKerningGroup = U;
unicode = 00D9;
},
{
glyphname = Uacute;
lastChange = "2016-07-31 02:28:46 +0000";
layers = (
{
layerId = "54C0795B-BA9F-4804-AEEC-86C9BCD12C1B";
paths = (
{
closed = 1;
nodes = (
"452 765 OFFCURVE",
"455 774 OFFCURVE",
"455 783 CURVE SMOOTH",
"455 802 OFFCURVE",
"440 814 OFFCURVE",
"424 814 CURVE SMOOTH",
"416 814 OFFCURVE",
"407 808 OFFCURVE",
"396 797 CURVE",
"300 682 LINE SMOOTH",
"293 674 OFFCURVE",
"290 665 OFFCURVE",
"290 656 CURVE SMOOTH",
"290 637 OFFCURVE",
"306 626 OFFCURVE",
"322 626 CURVE SMOOTH",
"330 626 OFFCURVE",
"339 632 OFFCURVE",
"349 643 CURVE",
"445 758 LINE"
);
},
{
closed = 1;
nodes = (
"500 118 OFFCURVE",
"437 53 OFFCURVE",
"320 53 CURVE SMOOTH",
"203 53 OFFCURVE",
"140 118 OFFCURVE",
"140 231 CURVE SMOOTH",
"140 607 LINE SMOOTH",
"140 631 OFFCURVE",
"130 643 OFFCURVE",
"109 643 CURVE SMOOTH",
"88 643 OFFCURVE",
"78 631 OFFCURVE",
"78 606 CURVE SMOOTH",
"78 229 LINE SMOOTH",
"78 81 OFFCURVE",
"176 -10 OFFCURVE",
"320 -10 CURVE SMOOTH",
"321 -10 OFFCURVE",
"321 -10 OFFCURVE",
"322 -10 CURVE SMOOTH",
"393 -10 OFFCURVE",
"451 11 OFFCURVE",
"494 54 CURVE SMOOTH",
"539 97 OFFCURVE",
"562 155 OFFCURVE",
"562 229 CURVE SMOOTH",
"562 606 LINE SMOOTH",
"562 631 OFFCURVE",
"552 643 OFFCURVE",
"531 643 CURVE SMOOTH",
"510 643 OFFCURVE",
"500 631 OFFCURVE",
"500 607 CURVE SMOOTH",
"500 231 LINE SMOOTH"
);
}
);
width = 640;
}
);
leftKerningGroup = U;
note = Uacute;
rightKerningGroup = U;
unicode = 00DA;
},
{
glyphname = Ucircumflex;
lastChange = "2016-07-31 02:28:46 +0000";
layers = (
{
layerId = "54C0795B-BA9F-4804-AEEC-86C9BCD12C1B";
paths = (
{
closed = 1;
nodes = (
"176 690 OFFCURVE",
"174 683 OFFCURVE",
"174 674 CURVE SMOOTH",
"174 655 OFFCURVE",
"183 646 OFFCURVE",
"202 646 CURVE SMOOTH",
"211 646 OFFCURVE",
"220 650 OFFCURVE",
"227 659 CURVE SMOOTH",
"234 668 LINE",
"320 750 LINE",
"407 668 LINE",
"414 659 LINE SMOOTH",
"421 650 OFFCURVE",
"430 646 OFFCURVE",
"439 646 CURVE SMOOTH",
"458 646 OFFCURVE",
"467 655 OFFCURVE",
"467 674 CURVE SMOOTH",
"467 683 OFFCURVE",
"465 690 OFFCURVE",
"460 695 CURVE",
"351 819 LINE",
"288 819 LINE",
"181 695 LINE"
);
},
{
closed = 1;
nodes = (
"500 118 OFFCURVE",
"437 53 OFFCURVE",
"320 53 CURVE SMOOTH",
"203 53 OFFCURVE",
"140 118 OFFCURVE",
"140 231 CURVE SMOOTH",
"140 607 LINE SMOOTH",
"140 631 OFFCURVE",
"130 643 OFFCURVE",
"109 643 CURVE SMOOTH",
"88 643 OFFCURVE",
"78 631 OFFCURVE",
"78 606 CURVE SMOOTH",
"78 229 LINE SMOOTH",
"78 81 OFFCURVE",
"176 -10 OFFCURVE",
"320 -10 CURVE SMOOTH",
"321 -10 OFFCURVE",
"321 -10 OFFCURVE",
"322 -10 CURVE SMOOTH",
"393 -10 OFFCURVE",
"451 11 OFFCURVE",
"494 54 CURVE SMOOTH",
"539 97 OFFCURVE",
"562 155 OFFCURVE",
"562 229 CURVE SMOOTH",
"562 606 LINE SMOOTH",
"562 631 OFFCURVE",
"552 643 OFFCURVE",
"531 643 CURVE SMOOTH",
"510 643 OFFCURVE",
"500 631 OFFCURVE",
"500 607 CURVE SMOOTH",
"500 231 LINE SMOOTH"
);
}
);
width = 640;
}
);
leftKerningGroup = U;
note = Ucircumflex;
rightKerningGroup = U;
unicode = 00DB;
},
{
glyphname = Udieresis;
lastChange = "2016-07-31 02:28:46 +0000";
layers = (
{
layerId = "54C0795B-BA9F-4804-AEEC-86C9BCD12C1B";
paths = (
{
closed = 1;
nodes = (
"252 785 OFFCURVE",
"239 789 OFFCURVE",
"227 789 CURVE SMOOTH",
"203 789 OFFCURVE",
"172 770 OFFCURVE",
"172 743 CURVE SMOOTH",
"172 716 OFFCURVE",
"200 697 OFFCURVE",
"227 697 CURVE SMOOTH",
"254 697 OFFCURVE",
"284 718 OFFCURVE",
"284 743 CURVE SMOOTH",
"284 756 OFFCURVE",
"278 767 OFFCURVE",
"265 776 CURVE SMOOTH"
);
},
{
closed = 1;
nodes = (
"438 785 OFFCURVE",
"425 789 OFFCURVE",
"413 789 CURVE SMOOTH",
"389 789 OFFCURVE",
"358 770 OFFCURVE",
"358 743 CURVE SMOOTH",
"358 716 OFFCURVE",
"386 697 OFFCURVE",
"413 697 CURVE SMOOTH",
"440 697 OFFCURVE",
"470 718 OFFCURVE",
"470 743 CURVE SMOOTH",
"470 756 OFFCURVE",
"464 767 OFFCURVE",
"451 776 CURVE SMOOTH"
);
},
{
closed = 1;
nodes = (
"500 118 OFFCURVE",
"437 53 OFFCURVE",
"320 53 CURVE SMOOTH",
"203 53 OFFCURVE",
"140 118 OFFCURVE",
"140 231 CURVE SMOOTH",
"140 607 LINE SMOOTH",
"140 631 OFFCURVE",
"130 643 OFFCURVE",
"109 643 CURVE SMOOTH",
"88 643 OFFCURVE",
"78 631 OFFCURVE",
"78 606 CURVE SMOOTH",
"78 229 LINE SMOOTH",
"78 81 OFFCURVE",
"176 -10 OFFCURVE",
"320 -10 CURVE SMOOTH",
"321 -10 OFFCURVE",
"321 -10 OFFCURVE",
"322 -10 CURVE SMOOTH",
"393 -10 OFFCURVE",
"451 11 OFFCURVE",
"494 54 CURVE SMOOTH",
"539 97 OFFCURVE",
"562 155 OFFCURVE",
"562 229 CURVE SMOOTH",
"562 606 LINE SMOOTH",
"562 631 OFFCURVE",
"552 643 OFFCURVE",
"531 643 CURVE SMOOTH",
"510 643 OFFCURVE",
"500 631 OFFCURVE",
"500 607 CURVE SMOOTH",
"500 231 LINE SMOOTH"
);
}
);
width = 640;
}
);
leftKerningGroup = U;
note = Udieresis;
rightKerningGroup = U;
unicode = 00DC;
},
{
glyphname = Yacute;
lastChange = "2016-07-31 02:28:46 +0000";
layers = (
{
layerId = "54C0795B-BA9F-4804-AEEC-86C9BCD12C1B";
paths = (
{
closed = 1;
nodes = (
"402 765 OFFCURVE",
"405 774 OFFCURVE",
"405 783 CURVE SMOOTH",
"405 802 OFFCURVE",
"390 814 OFFCURVE",
"374 814 CURVE SMOOTH",
"366 814 OFFCURVE",
"357 808 OFFCURVE",
"346 797 CURVE",
"250 682 LINE SMOOTH",
"243 674 OFFCURVE",
"240 665 OFFCURVE",
"240 656 CURVE SMOOTH",
"240 637 OFFCURVE",
"256 626 OFFCURVE",
"272 626 CURVE SMOOTH",
"280 626 OFFCURVE",
"289 632 OFFCURVE",
"299 643 CURVE",
"395 758 LINE"
);
},
{
closed = 1;
nodes = (
"238 5 OFFCURVE",
"249 -7 OFFCURVE",
"270 -7 CURVE SMOOTH",
"291 -7 OFFCURVE",
"302 5 OFFCURVE",
"303 28 CURVE",
"303 307 LINE",
"514 590 LINE",
"520 599 OFFCURVE",
"523 608 OFFCURVE",
"523 615 CURVE SMOOTH",
"523 630 OFFCURVE",
"507 643 OFFCURVE",
"491 643 CURVE SMOOTH",
"483 643 OFFCURVE",
"474 636 OFFCURVE",
"463 623 CURVE",
"270 362 LINE",
"76 623 LINE",
"65 636 OFFCURVE",
"56 643 OFFCURVE",
"48 643 CURVE SMOOTH",
"32 643 OFFCURVE",
"17 630 OFFCURVE",
"17 615 CURVE SMOOTH",
"17 608 OFFCURVE",
"20 599 OFFCURVE",
"26 590 CURVE",
"238 307 LINE",
"238 28 LINE SMOOTH"
);
}
);
width = 541;
}
);
leftKerningGroup = Y;
note = Yacute;
rightKerningGroup = Y;
unicode = 00DD;
},
{
glyphname = Thorn;
lastChange = "2016-07-31 02:28:38 +0000";
layers = (
{
layerId = "54C0795B-BA9F-4804-AEEC-86C9BCD12C1B";
paths = (
{
closed = 1;
nodes = (
"146 598 OFFCURVE",
"136 611 OFFCURVE",
"115 611 CURVE SMOOTH",
"94 611 OFFCURVE",
"84 598 OFFCURVE",
"84 573 CURVE SMOOTH",
"84 30 LINE SMOOTH",
"84 5 OFFCURVE",
"94 -7 OFFCURVE",
"115 -7 CURVE SMOOTH",
"136 -7 OFFCURVE",
"146 5 OFFCURVE",
"146 30 CURVE SMOOTH",
"146 157 LINE",
"322 157 LINE SMOOTH",
"438 157 OFFCURVE",
"505 213 OFFCURVE",
"505 314 CURVE SMOOTH",
"505 415 OFFCURVE",
"438 471 OFFCURVE",
"323 471 CURVE SMOOTH",
"146 471 LINE",
"146 573 LINE SMOOTH"
);
},
{
closed = 1;
nodes = (
"402 409 OFFCURVE",
"442 390 OFFCURVE",
"442 310 CURVE SMOOTH",
"442 230 OFFCURVE",
"405 213 OFFCURVE",
"274 213 CURVE SMOOTH",
"146 213 LINE",
"146 409 LINE",
"275 409 LINE SMOOTH"
);
}
);
width = 540;
}
);
leftKerningGroup = B;
note = Thorn;
rightKerningGroup = Thorn;
unicode = 00DE;
},
{
glyphname = germandbls;
lastChange = "2016-07-31 02:28:38 +0000";
layers = (
{
layerId = "54C0795B-BA9F-4804-AEEC-86C9BCD12C1B";
paths = (
{
closed = 1;
nodes = (
"303 347 OFFCURVE",
"384 298 OFFCURVE",
"384 199 CURVE SMOOTH",
"384 94 OFFCURVE",
"355 42 OFFCURVE",
"297 42 CURVE SMOOTH",
"257 42 OFFCURVE",
"222 58 OFFCURVE",
"222 98 CURVE SMOOTH",
"222 124 OFFCURVE",
"210 137 OFFCURVE",
"187 137 CURVE SMOOTH",
"164 137 OFFCURVE",
"152 123 OFFCURVE",
"152 96 CURVE SMOOTH",
"152 23 OFFCURVE",
"222 -20 OFFCURVE",
"291 -20 CURVE SMOOTH",
"326 -20 OFFCURVE",
"359 -7 OFFCURVE",
"390 20 CURVE SMOOTH",
"427 51 OFFCURVE",
"446 110 OFFCURVE",
"446 197 CURVE SMOOTH",
"446 292 OFFCURVE",
"401 353 OFFCURVE",
"310 382 CURVE",
"355 415 OFFCURVE",
"378 459 OFFCURVE",
"378 515 CURVE SMOOTH",
"378 580 OFFCURVE",
"328 636 OFFCURVE",
"236 636 CURVE SMOOTH",
"143 636 OFFCURVE",
"70 604 OFFCURVE",
"63 461 CURVE",
"42 458 OFFCURVE",
"32 449 OFFCURVE",
"32 433 CURVE SMOOTH",
"32 414 OFFCURVE",
"42 403 OFFCURVE",
"63 402 CURVE",
"63 33 LINE SMOOTH",
"63 6 OFFCURVE",
"73 -7 OFFCURVE",
"92 -7 CURVE SMOOTH",
"114 -7 OFFCURVE",
"125 7 OFFCURVE",
"125 34 CURVE SMOOTH",
"125 461 LINE SMOOTH",
"125 557 OFFCURVE",
"159 574 OFFCURVE",
"224 574 CURVE SMOOTH",
"289 574 OFFCURVE",
"316 552 OFFCURVE",
"316 517 CURVE SMOOTH",
"316 443 OFFCURVE",
"265 406 OFFCURVE",
"164 406 CURVE",
"164 347 LINE"
);
}
);
width = 485;
}
);
leftKerningGroup = f;
note = germandbls;
rightKerningGroup = germandbls;
unicode = 00DF;
},
{
glyphname = agrave;
lastChange = "2016-07-31 02:28:46 +0000";
layers = (
{
layerId = "54C0795B-BA9F-4804-AEEC-86C9BCD12C1B";
paths = (
{
closed = 1;
nodes = (
"219 679 OFFCURVE",
"210 685 OFFCURVE",
"202 685 CURVE SMOOTH",
"186 685 OFFCURVE",
"170 674 OFFCURVE",
"170 654 CURVE SMOOTH",
"170 645 OFFCURVE",
"173 636 OFFCURVE",
"180 629 CURVE",
"276 514 LINE",
"287 503 OFFCURVE",
"296 497 OFFCURVE",
"304 497 CURVE SMOOTH",
"320 497 OFFCURVE",
"335 508 OFFCURVE",
"335 527 CURVE SMOOTH",
"335 536 OFFCURVE",
"332 545 OFFCURVE",
"325 553 CURVE SMOOTH",
"229 668 LINE"
);
},
{
closed = 1;
nodes = (
"440 228 LINE SMOOTH",
"440 117 OFFCURVE",
"382 62 OFFCURVE",
"265 62 CURVE SMOOTH",
"172 62 LINE SMOOTH",
"148 62 OFFCURVE",
"122 90 OFFCURVE",
"122 121 CURVE SMOOTH",
"122 222 OFFCURVE",
"157 238 OFFCURVE",
"298 238 CURVE SMOOTH",
"440 238 LINE"
);
},
{
closed = 1;
nodes = (
"134 300 OFFCURVE",
"60 262 OFFCURVE",
"60 126 CURVE SMOOTH",
"60 50 OFFCURVE",
"107 0 OFFCURVE",
"172 0 CURVE SMOOTH",
"265 0 LINE SMOOTH",
"342 0 OFFCURVE",
"401 19 OFFCURVE",
"440 56 CURVE",
"440 33 LINE SMOOTH",
"440 6 OFFCURVE",
"450 -7 OFFCURVE",
"471 -7 CURVE SMOOTH",
"492 -7 OFFCURVE",
"502 6 OFFCURVE",
"502 31 CURVE SMOOTH",
"502 333 LINE SMOOTH",
"502 426 OFFCURVE",
"478 461 OFFCURVE",
"397 461 CURVE SMOOTH",
"242 461 LINE SMOOTH",
"121 461 OFFCURVE",
"60 422 OFFCURVE",
"60 344 CURVE SMOOTH",
"60 317 OFFCURVE",
"70 304 OFFCURVE",
"91 304 CURVE SMOOTH",
"112 304 OFFCURVE",
"122 317 OFFCURVE",
"122 344 CURVE SMOOTH",
"122 381 OFFCURVE",
"164 399 OFFCURVE",
"249 399 CURVE SMOOTH",
"390 399 LINE SMOOTH",
"429 399 OFFCURVE",
"440 387 OFFCURVE",
"440 350 CURVE SMOOTH",
"440 300 LINE",
"298 300 LINE SMOOTH"
);
}
);
width = 573;
}
);
leftKerningGroup = a;
note = agrave;
rightKerningGroup = a;
unicode = 00E0;
},
{
glyphname = aacute;
lastChange = "2016-07-31 02:28:46 +0000";
layers = (
{
layerId = "54C0795B-BA9F-4804-AEEC-86C9BCD12C1B";
paths = (
{
closed = 1;
nodes = (
"413 639 OFFCURVE",
"416 648 OFFCURVE",
"416 657 CURVE SMOOTH",
"416 676 OFFCURVE",
"401 688 OFFCURVE",
"385 688 CURVE SMOOTH",
"377 688 OFFCURVE",
"368 682 OFFCURVE",
"357 671 CURVE",
"261 556 LINE SMOOTH",
"254 548 OFFCURVE",
"251 539 OFFCURVE",
"251 530 CURVE SMOOTH",
"251 511 OFFCURVE",
"267 500 OFFCURVE",
"283 500 CURVE SMOOTH",
"291 500 OFFCURVE",
"300 506 OFFCURVE",
"310 517 CURVE",
"406 632 LINE"
);
},
{
closed = 1;
nodes = (
"440 228 LINE SMOOTH",
"440 117 OFFCURVE",
"382 62 OFFCURVE",
"265 62 CURVE SMOOTH",
"172 62 LINE SMOOTH",
"148 62 OFFCURVE",
"122 90 OFFCURVE",
"122 121 CURVE SMOOTH",
"122 222 OFFCURVE",
"157 238 OFFCURVE",
"298 238 CURVE SMOOTH",
"440 238 LINE"
);
},
{
closed = 1;
nodes = (
"134 300 OFFCURVE",
"60 262 OFFCURVE",
"60 126 CURVE SMOOTH",
"60 50 OFFCURVE",
"107 0 OFFCURVE",
"172 0 CURVE SMOOTH",
"265 0 LINE SMOOTH",
"342 0 OFFCURVE",
"401 19 OFFCURVE",
"440 56 CURVE",
"440 33 LINE SMOOTH",
"440 6 OFFCURVE",
"450 -7 OFFCURVE",
"471 -7 CURVE SMOOTH",
"492 -7 OFFCURVE",
"502 6 OFFCURVE",
"502 31 CURVE SMOOTH",
"502 333 LINE SMOOTH",
"502 426 OFFCURVE",
"478 461 OFFCURVE",
"397 461 CURVE SMOOTH",
"242 461 LINE SMOOTH",
"121 461 OFFCURVE",
"60 422 OFFCURVE",
"60 344 CURVE SMOOTH",
"60 317 OFFCURVE",
"70 304 OFFCURVE",
"91 304 CURVE SMOOTH",
"112 304 OFFCURVE",
"122 317 OFFCURVE",
"122 344 CURVE SMOOTH",
"122 381 OFFCURVE",
"164 399 OFFCURVE",
"249 399 CURVE SMOOTH",
"390 399 LINE SMOOTH",
"429 399 OFFCURVE",
"440 387 OFFCURVE",
"440 350 CURVE SMOOTH",
"440 300 LINE",
"298 300 LINE SMOOTH"
);
}
);
width = 573;
}
);
leftKerningGroup = a;
note = aacute;
rightKerningGroup = a;
unicode = 00E1;
},
{
glyphname = acircumflex;
lastChange = "2016-07-31 02:28:46 +0000";
layers = (
{
layerId = "54C0795B-BA9F-4804-AEEC-86C9BCD12C1B";
paths = (
{
closed = 1;
nodes = (
"137 561 OFFCURVE",
"135 554 OFFCURVE",
"135 545 CURVE SMOOTH",
"135 526 OFFCURVE",
"144 517 OFFCURVE",
"163 517 CURVE SMOOTH",
"172 517 OFFCURVE",
"181 521 OFFCURVE",
"188 530 CURVE SMOOTH",
"195 539 LINE",
"281 621 LINE",
"368 539 LINE",
"375 530 LINE SMOOTH",
"382 521 OFFCURVE",
"391 517 OFFCURVE",
"400 517 CURVE SMOOTH",
"419 517 OFFCURVE",
"428 526 OFFCURVE",
"428 545 CURVE SMOOTH",
"428 554 OFFCURVE",
"426 561 OFFCURVE",
"421 566 CURVE",
"312 690 LINE",
"249 690 LINE",
"142 566 LINE"
);
},
{
closed = 1;
nodes = (
"440 228 LINE SMOOTH",
"440 117 OFFCURVE",
"382 62 OFFCURVE",
"265 62 CURVE SMOOTH",
"172 62 LINE SMOOTH",
"148 62 OFFCURVE",
"122 90 OFFCURVE",
"122 121 CURVE SMOOTH",
"122 222 OFFCURVE",
"157 238 OFFCURVE",
"298 238 CURVE SMOOTH",
"440 238 LINE"
);
},
{
closed = 1;
nodes = (
"134 300 OFFCURVE",
"60 262 OFFCURVE",
"60 126 CURVE SMOOTH",
"60 50 OFFCURVE",
"107 0 OFFCURVE",
"172 0 CURVE SMOOTH",
"265 0 LINE SMOOTH",
"342 0 OFFCURVE",
"401 19 OFFCURVE",
"440 56 CURVE",
"440 33 LINE SMOOTH",
"440 6 OFFCURVE",
"450 -7 OFFCURVE",
"471 -7 CURVE SMOOTH",
"492 -7 OFFCURVE",
"502 6 OFFCURVE",
"502 31 CURVE SMOOTH",
"502 333 LINE SMOOTH",
"502 426 OFFCURVE",
"478 461 OFFCURVE",
"397 461 CURVE SMOOTH",
"242 461 LINE SMOOTH",
"121 461 OFFCURVE",
"60 422 OFFCURVE",
"60 344 CURVE SMOOTH",
"60 317 OFFCURVE",
"70 304 OFFCURVE",
"91 304 CURVE SMOOTH",
"112 304 OFFCURVE",
"122 317 OFFCURVE",
"122 344 CURVE SMOOTH",
"122 381 OFFCURVE",
"164 399 OFFCURVE",
"249 399 CURVE SMOOTH",
"390 399 LINE SMOOTH",
"429 399 OFFCURVE",
"440 387 OFFCURVE",
"440 350 CURVE SMOOTH",
"440 300 LINE",
"298 300 LINE SMOOTH"
);
}
);
width = 573;
}
);
leftKerningGroup = a;
note = acircumflex;
rightKerningGroup = a;
unicode = 00E2;
},
{
glyphname = atilde;
lastChange = "2016-07-31 02:28:46 +0000";
layers = (
{
layerId = "54C0795B-BA9F-4804-AEEC-86C9BCD12C1B";
paths = (
{
closed = 1;
nodes = (
"231 618 OFFCURVE",
"227 619 OFFCURVE",
"220 619 CURVE SMOOTH",
"213 619 OFFCURVE",
"206 616 OFFCURVE",
"197 609 CURVE",
"152 571 LINE SMOOTH",
"141 562 OFFCURVE",
"136 553 OFFCURVE",
"136 543 CURVE SMOOTH",
"136 523 OFFCURVE",
"151 512 OFFCURVE",
"168 512 CURVE SMOOTH",
"177 512 OFFCURVE",
"184 515 OFFCURVE",
"191 522 CURVE",
"222 550 LINE",
"223 551 OFFCURVE",
"225 552 OFFCURVE",
"227 552 CURVE SMOOTH",
"229 552 OFFCURVE",
"232 551 OFFCURVE",
"235 550 CURVE",
"329 514 LINE",
"331 513 OFFCURVE",
"335 512 OFFCURVE",
"342 512 CURVE SMOOTH",
"349 512 OFFCURVE",
"357 515 OFFCURVE",
"366 522 CURVE",
"411 560 LINE SMOOTH",
"422 569 OFFCURVE",
"427 578 OFFCURVE",
"427 588 CURVE SMOOTH",
"427 608 OFFCURVE",
"412 619 OFFCURVE",
"395 619 CURVE SMOOTH",
"386 619 OFFCURVE",
"379 616 OFFCURVE",
"372 609 CURVE",
"341 581 LINE",
"340 580 OFFCURVE",
"338 579 OFFCURVE",
"336 579 CURVE SMOOTH",
"334 579 OFFCURVE",
"331 580 OFFCURVE",
"328 581 CURVE",
"234 617 LINE"
);
},
{
closed = 1;
nodes = (
"440 228 LINE SMOOTH",
"440 117 OFFCURVE",
"382 62 OFFCURVE",
"265 62 CURVE SMOOTH",
"172 62 LINE SMOOTH",
"148 62 OFFCURVE",
"122 90 OFFCURVE",
"122 121 CURVE SMOOTH",
"122 222 OFFCURVE",
"157 238 OFFCURVE",
"298 238 CURVE SMOOTH",
"440 238 LINE"
);
},
{
closed = 1;
nodes = (
"134 300 OFFCURVE",
"60 262 OFFCURVE",
"60 126 CURVE SMOOTH",
"60 50 OFFCURVE",
"107 0 OFFCURVE",
"172 0 CURVE SMOOTH",
"265 0 LINE SMOOTH",
"342 0 OFFCURVE",
"401 19 OFFCURVE",
"440 56 CURVE",
"440 33 LINE SMOOTH",
"440 6 OFFCURVE",
"450 -7 OFFCURVE",
"471 -7 CURVE SMOOTH",
"492 -7 OFFCURVE",
"502 6 OFFCURVE",
"502 31 CURVE SMOOTH",
"502 333 LINE SMOOTH",
"502 426 OFFCURVE",
"478 461 OFFCURVE",
"397 461 CURVE SMOOTH",
"242 461 LINE SMOOTH",
"121 461 OFFCURVE",
"60 422 OFFCURVE",
"60 344 CURVE SMOOTH",
"60 317 OFFCURVE",
"70 304 OFFCURVE",
"91 304 CURVE SMOOTH",
"112 304 OFFCURVE",
"122 317 OFFCURVE",
"122 344 CURVE SMOOTH",
"122 381 OFFCURVE",
"164 399 OFFCURVE",
"249 399 CURVE SMOOTH",
"390 399 LINE SMOOTH",
"429 399 OFFCURVE",
"440 387 OFFCURVE",
"440 350 CURVE SMOOTH",
"440 300 LINE",
"298 300 LINE SMOOTH"
);
}
);
width = 573;
}
);
leftKerningGroup = a;
note = atilde;
rightKerningGroup = a;
unicode = 00E3;
},
{
glyphname = adieresis;
lastChange = "2016-07-31 02:28:46 +0000";
layers = (
{
layerId = "54C0795B-BA9F-4804-AEEC-86C9BCD12C1B";
paths = (
{
closed = 1;
nodes = (
"212 600 OFFCURVE",
"199 604 OFFCURVE",
"187 604 CURVE SMOOTH",
"163 604 OFFCURVE",
"132 585 OFFCURVE",
"132 558 CURVE SMOOTH",
"132 531 OFFCURVE",
"160 512 OFFCURVE",
"187 512 CURVE SMOOTH",
"214 512 OFFCURVE",
"244 533 OFFCURVE",
"244 558 CURVE SMOOTH",
"244 571 OFFCURVE",
"238 582 OFFCURVE",
"225 591 CURVE SMOOTH"
);
},
{
closed = 1;
nodes = (
"398 600 OFFCURVE",
"385 604 OFFCURVE",
"373 604 CURVE SMOOTH",
"349 604 OFFCURVE",
"318 585 OFFCURVE",
"318 558 CURVE SMOOTH",
"318 531 OFFCURVE",
"346 512 OFFCURVE",
"373 512 CURVE SMOOTH",
"400 512 OFFCURVE",
"430 533 OFFCURVE",
"430 558 CURVE SMOOTH",
"430 571 OFFCURVE",
"424 582 OFFCURVE",
"411 591 CURVE SMOOTH"
);
},
{
closed = 1;
nodes = (
"440 228 LINE SMOOTH",
"440 117 OFFCURVE",
"382 62 OFFCURVE",
"265 62 CURVE SMOOTH",
"172 62 LINE SMOOTH",
"148 62 OFFCURVE",
"122 90 OFFCURVE",
"122 121 CURVE SMOOTH",
"122 222 OFFCURVE",
"157 238 OFFCURVE",
"298 238 CURVE SMOOTH",
"440 238 LINE"
);
},
{
closed = 1;
nodes = (
"134 300 OFFCURVE",
"60 262 OFFCURVE",
"60 126 CURVE SMOOTH",
"60 50 OFFCURVE",
"107 0 OFFCURVE",
"172 0 CURVE SMOOTH",
"265 0 LINE SMOOTH",
"342 0 OFFCURVE",
"401 19 OFFCURVE",
"440 56 CURVE",
"440 33 LINE SMOOTH",
"440 6 OFFCURVE",
"450 -7 OFFCURVE",
"471 -7 CURVE SMOOTH",
"492 -7 OFFCURVE",
"502 6 OFFCURVE",
"502 31 CURVE SMOOTH",
"502 333 LINE SMOOTH",
"502 426 OFFCURVE",
"478 461 OFFCURVE",
"397 461 CURVE SMOOTH",
"242 461 LINE SMOOTH",
"121 461 OFFCURVE",
"60 422 OFFCURVE",
"60 344 CURVE SMOOTH",
"60 317 OFFCURVE",
"70 304 OFFCURVE",
"91 304 CURVE SMOOTH",
"112 304 OFFCURVE",
"122 317 OFFCURVE",
"122 344 CURVE SMOOTH",
"122 381 OFFCURVE",
"164 399 OFFCURVE",
"249 399 CURVE SMOOTH",
"390 399 LINE SMOOTH",
"429 399 OFFCURVE",
"440 387 OFFCURVE",
"440 350 CURVE SMOOTH",
"440 300 LINE",
"298 300 LINE SMOOTH"
);
}
);
width = 573;
}
);
leftKerningGroup = a;
note = adieresis;
rightKerningGroup = a;
unicode = 00E4;
},
{
glyphname = aring;
lastChange = "2016-07-31 02:28:46 +0000";
layers = (
{
layerId = "54C0795B-BA9F-4804-AEEC-86C9BCD12C1B";
paths = (
{
closed = 1;
nodes = (
"262 628 OFFCURVE",
"271 632 OFFCURVE",
"282 632 CURVE SMOOTH",
"303 632 OFFCURVE",
"320 615 OFFCURVE",
"320 594 CURVE SMOOTH",
"320 573 OFFCURVE",
"303 556 OFFCURVE",
"282 556 CURVE SMOOTH",
"261 556 OFFCURVE",
"244 573 OFFCURVE",
"244 594 CURVE SMOOTH",
"244 605 OFFCURVE",
"248 614 OFFCURVE",
"255 621 CURVE SMOOTH"
);
},
{
closed = 1;
nodes = (
"240 520 OFFCURVE",
"259 512 OFFCURVE",
"282 512 CURVE SMOOTH",
"327 512 OFFCURVE",
"364 549 OFFCURVE",
"364 594 CURVE SMOOTH",
"364 639 OFFCURVE",
"327 676 OFFCURVE",
"282 676 CURVE SMOOTH",
"237 676 OFFCURVE",
"200 639 OFFCURVE",
"200 594 CURVE SMOOTH",
"200 571 OFFCURVE",
"208 552 OFFCURVE",
"224 536 CURVE SMOOTH"
);
},
{
closed = 1;
nodes = (
"440 228 LINE SMOOTH",
"440 117 OFFCURVE",
"382 62 OFFCURVE",
"265 62 CURVE SMOOTH",
"172 62 LINE SMOOTH",
"148 62 OFFCURVE",
"122 90 OFFCURVE",
"122 121 CURVE SMOOTH",
"122 222 OFFCURVE",
"157 238 OFFCURVE",
"298 238 CURVE SMOOTH",
"440 238 LINE"
);
},
{
closed = 1;
nodes = (
"134 300 OFFCURVE",
"60 262 OFFCURVE",
"60 126 CURVE SMOOTH",
"60 50 OFFCURVE",
"107 0 OFFCURVE",
"172 0 CURVE SMOOTH",
"265 0 LINE SMOOTH",
"342 0 OFFCURVE",
"401 19 OFFCURVE",
"440 56 CURVE",
"440 33 LINE SMOOTH",
"440 6 OFFCURVE",
"450 -7 OFFCURVE",
"471 -7 CURVE SMOOTH",
"492 -7 OFFCURVE",
"502 6 OFFCURVE",
"502 31 CURVE SMOOTH",
"502 333 LINE SMOOTH",
"502 426 OFFCURVE",
"478 461 OFFCURVE",
"397 461 CURVE SMOOTH",
"242 461 LINE SMOOTH",
"121 461 OFFCURVE",
"60 422 OFFCURVE",
"60 344 CURVE SMOOTH",
"60 317 OFFCURVE",
"70 304 OFFCURVE",
"91 304 CURVE SMOOTH",
"112 304 OFFCURVE",
"122 317 OFFCURVE",
"122 344 CURVE SMOOTH",
"122 381 OFFCURVE",
"164 399 OFFCURVE",
"249 399 CURVE SMOOTH",
"390 399 LINE SMOOTH",
"429 399 OFFCURVE",
"440 387 OFFCURVE",
"440 350 CURVE SMOOTH",
"440 300 LINE",
"298 300 LINE SMOOTH"
);
}
);
width = 573;
}
);
leftKerningGroup = a;
note = aring;
rightKerningGroup = a;
unicode = 00E5;
},
{
glyphname = ae;
lastChange = "2016-07-31 02:28:38 +0000";
layers = (
{
layerId = "54C0795B-BA9F-4804-AEEC-86C9BCD12C1B";
paths = (
{
closed = 1;
nodes = (
"434 228 LINE",
"434 132 OFFCURVE",
"389 62 OFFCURVE",
"265 62 CURVE SMOOTH",
"172 62 LINE SMOOTH",
"148 62 OFFCURVE",
"122 90 OFFCURVE",
"122 121 CURVE SMOOTH",
"122 222 OFFCURVE",
"157 238 OFFCURVE",
"288 238 CURVE SMOOTH",
"432 238 LINE"
);
},
{
closed = 1;
nodes = (
"800 399 OFFCURVE",
"838 383 OFFCURVE",
"842 300 CURVE",
"497 300 LINE",
"501 383 OFFCURVE",
"540 399 OFFCURVE",
"669 399 CURVE SMOOTH",
"677 399 LINE SMOOTH"
);
},
{
closed = 1;
nodes = (
"904 424 OFFCURVE",
"833 461 OFFCURVE",
"677 461 CURVE SMOOTH",
"669 461 LINE SMOOTH",
"578 461 OFFCURVE",
"515 447 OFFCURVE",
"482 418 CURVE",
"467 447 OFFCURVE",
"436 461 OFFCURVE",
"387 461 CURVE SMOOTH",
"232 461 LINE SMOOTH",
"129 461 OFFCURVE",
"60 424 OFFCURVE",
"60 344 CURVE SMOOTH",
"60 317 OFFCURVE",
"70 304 OFFCURVE",
"91 304 CURVE SMOOTH",
"112 304 OFFCURVE",
"122 317 OFFCURVE",
"122 344 CURVE SMOOTH",
"122 381 OFFCURVE",
"161 399 OFFCURVE",
"239 399 CURVE SMOOTH",
"380 399 LINE SMOOTH",
"420 399 OFFCURVE",
"432 387 OFFCURVE",
"432 350 CURVE SMOOTH",
"432 300 LINE",
"288 300 LINE SMOOTH",
"133 300 OFFCURVE",
"60 261 OFFCURVE",
"60 126 CURVE SMOOTH",
"60 50 OFFCURVE",
"107 0 OFFCURVE",
"172 0 CURVE SMOOTH",
"265 0 LINE SMOOTH",
"329 0 OFFCURVE",
"417 27 OFFCURVE",
"458 74 CURVE",
"491 17 OFFCURVE",
"558 0 OFFCURVE",
"669 0 CURVE SMOOTH",
"799 0 LINE SMOOTH",
"883 0 OFFCURVE",
"904 49 OFFCURVE",
"904 110 CURVE SMOOTH",
"904 171 OFFCURVE",
"842 169 OFFCURVE",
"842 122 CURVE SMOOTH",
"842 75 OFFCURVE",
"831 62 OFFCURVE",
"792 62 CURVE SMOOTH",
"669 62 LINE SMOOTH",
"534 62 OFFCURVE",
"499 78 OFFCURVE",
"499 179 CURVE",
"497 238 LINE",
"904 238 LINE",
"904 284 LINE SMOOTH"
);
}
);
width = 964;
}
);
leftKerningGroup = a;
note = ae;
rightKerningGroup = e;
unicode = 00E6;
},
{
glyphname = ccedilla;
lastChange = "2016-07-31 02:28:38 +0000";
layers = (
{
layerId = "54C0795B-BA9F-4804-AEEC-86C9BCD12C1B";
paths = (
{
closed = 1;
nodes = (
"272 -29 OFFCURVE",
"290 -55 OFFCURVE",
"322 -78 CURVE SMOOTH",
"333 -86 OFFCURVE",
"338 -93 OFFCURVE",
"338 -99 CURVE SMOOTH",
"338 -113 OFFCURVE",
"327 -120 OFFCURVE",
"306 -120 CURVE SMOOTH",
"294 -120 OFFCURVE",
"281 -117 OFFCURVE",
"267 -111 CURVE SMOOTH",
"252 -105 OFFCURVE",
"242 -102 OFFCURVE",
"236 -102 CURVE SMOOTH",
"224 -102 OFFCURVE",
"215 -110 OFFCURVE",
"215 -125 CURVE SMOOTH",
"215 -164 OFFCURVE",
"261 -180 OFFCURVE",
"306 -180 CURVE SMOOTH",
"351 -180 OFFCURVE",
"400 -146 OFFCURVE",
"400 -94 CURVE SMOOTH",
"400 -67 OFFCURVE",
"386 -47 OFFCURVE",
"370 -38 CURVE",
"349 -25 OFFCURVE",
"336 -12 OFFCURVE",
"332 0 CURVE",
"441 0 LINE SMOOTH",
"525 0 OFFCURVE",
"546 49 OFFCURVE",
"546 111 CURVE SMOOTH",
"546 142 OFFCURVE",
"536 157 OFFCURVE",
"515 157 CURVE SMOOTH",
"494 157 OFFCURVE",
"484 145 OFFCURVE",
"484 122 CURVE SMOOTH",
"484 75 OFFCURVE",
"473 62 OFFCURVE",
"434 62 CURVE SMOOTH",
"300 62 LINE SMOOTH",
"159 62 OFFCURVE",
"124 78 OFFCURVE",
"124 179 CURVE SMOOTH",
"124 282 LINE SMOOTH",
"124 383 OFFCURVE",
"159 399 OFFCURVE",
"300 399 CURVE SMOOTH",
"434 399 LINE SMOOTH",
"473 399 OFFCURVE",
"484 387 OFFCURVE",
"484 340 CURVE SMOOTH",
"484 316 OFFCURVE",
"494 304 OFFCURVE",
"515 304 CURVE SMOOTH",
"536 304 OFFCURVE",
"546 319 OFFCURVE",
"546 348 CURVE SMOOTH",
"546 407 OFFCURVE",
"530 461 OFFCURVE",
"441 461 CURVE SMOOTH",
"300 461 LINE SMOOTH",
"133 461 OFFCURVE",
"62 424 OFFCURVE",
"62 284 CURVE SMOOTH",
"62 177 LINE SMOOTH",
"62 45 OFFCURVE",
"125 4 OFFCURVE",
"269 0 CURVE"
);
}
);
width = 604;
}
);
leftKerningGroup = c;
note = ccedilla;
rightKerningGroup = c;
unicode = 00E7;
},
{
glyphname = egrave;
lastChange = "2016-07-31 02:28:46 +0000";
layers = (
{
layerId = "54C0795B-BA9F-4804-AEEC-86C9BCD12C1B";
paths = (
{
closed = 1;
nodes = (
"250 679 OFFCURVE",
"241 685 OFFCURVE",
"233 685 CURVE SMOOTH",
"217 685 OFFCURVE",
"201 674 OFFCURVE",
"201 654 CURVE SMOOTH",
"201 645 OFFCURVE",
"204 636 OFFCURVE",
"211 629 CURVE",
"307 514 LINE",
"318 503 OFFCURVE",
"327 497 OFFCURVE",
"335 497 CURVE SMOOTH",
"351 497 OFFCURVE",
"366 508 OFFCURVE",
"366 527 CURVE SMOOTH",
"366 536 OFFCURVE",
"363 545 OFFCURVE",
"356 553 CURVE SMOOTH",
"260 668 LINE"
);
},
{
closed = 1;
nodes = (
"566 424 OFFCURVE",
"494 461 OFFCURVE",
"329 461 CURVE SMOOTH",
"300 461 LINE SMOOTH",
"133 461 OFFCURVE",
"62 424 OFFCURVE",
"62 284 CURVE SMOOTH",
"62 177 LINE SMOOTH",
"62 37 OFFCURVE",
"133 0 OFFCURVE",
"300 0 CURVE SMOOTH",
"461 0 LINE SMOOTH",
"545 0 OFFCURVE",
"566 49 OFFCURVE",
"566 110 CURVE SMOOTH",
"566 171 OFFCURVE",
"504 169 OFFCURVE",
"504 122 CURVE SMOOTH",
"504 75 OFFCURVE",
"493 62 OFFCURVE",
"454 62 CURVE SMOOTH",
"300 62 LINE SMOOTH",
"159 62 OFFCURVE",
"124 78 OFFCURVE",
"124 179 CURVE SMOOTH",
"124 240 LINE",
"566 240 LINE",
"566 284 LINE SMOOTH"
);
},
{
closed = 1;
nodes = (
"464 399 OFFCURVE",
"501 385 OFFCURVE",
"504 302 CURVE",
"124 302 LINE",
"127 385 OFFCURVE",
"164 399 OFFCURVE",
"300 399 CURVE SMOOTH",
"329 399 LINE SMOOTH"
);
}
);
width = 626;
}
);
leftKerningGroup = c;
note = egrave;
rightKerningGroup = e;
unicode = 00E8;
},
{
glyphname = eacute;
lastChange = "2016-07-31 02:28:46 +0000";
layers = (
{
layerId = "54C0795B-BA9F-4804-AEEC-86C9BCD12C1B";
paths = (
{
closed = 1;
nodes = (
"447 639 OFFCURVE",
"450 648 OFFCURVE",
"450 657 CURVE SMOOTH",
"450 676 OFFCURVE",
"435 688 OFFCURVE",
"419 688 CURVE SMOOTH",
"411 688 OFFCURVE",
"402 682 OFFCURVE",
"391 671 CURVE",
"295 556 LINE SMOOTH",
"288 548 OFFCURVE",
"285 539 OFFCURVE",
"285 530 CURVE SMOOTH",
"285 511 OFFCURVE",
"301 500 OFFCURVE",
"317 500 CURVE SMOOTH",
"325 500 OFFCURVE",
"334 506 OFFCURVE",
"344 517 CURVE",
"440 632 LINE"
);
},
{
closed = 1;
nodes = (
"566 424 OFFCURVE",
"494 461 OFFCURVE",
"329 461 CURVE SMOOTH",
"300 461 LINE SMOOTH",
"133 461 OFFCURVE",
"62 424 OFFCURVE",
"62 284 CURVE SMOOTH",
"62 177 LINE SMOOTH",
"62 37 OFFCURVE",
"133 0 OFFCURVE",
"300 0 CURVE SMOOTH",
"461 0 LINE SMOOTH",
"545 0 OFFCURVE",
"566 49 OFFCURVE",
"566 110 CURVE SMOOTH",
"566 171 OFFCURVE",
"504 169 OFFCURVE",
"504 122 CURVE SMOOTH",
"504 75 OFFCURVE",
"493 62 OFFCURVE",
"454 62 CURVE SMOOTH",
"300 62 LINE SMOOTH",
"159 62 OFFCURVE",
"124 78 OFFCURVE",
"124 179 CURVE SMOOTH",
"124 240 LINE",
"566 240 LINE",
"566 284 LINE SMOOTH"
);
},
{
closed = 1;
nodes = (
"464 399 OFFCURVE",
"501 385 OFFCURVE",
"504 302 CURVE",
"124 302 LINE",
"127 385 OFFCURVE",
"164 399 OFFCURVE",
"300 399 CURVE SMOOTH",
"329 399 LINE SMOOTH"
);
}
);
width = 626;
}
);
leftKerningGroup = c;
note = eacute;
rightKerningGroup = e;
unicode = 00E9;
},
